{"glyphs":{"0":{"ha":1012,"x_min":40,"x_max":972,"o":"m 506 -16 q 161.5 109 283 -16 q 40 469 40 234 l 40 1263 q 155.5 1643.5 40 1511 q 506 1776 271 1776 q 857 1643.5 742 1776 q 972 1263 972 1511 l 972 469 q 851 109 972 234 q 506 -16 730 -16 m 506 308 q 570 345 547 308 q 593 428 593 382 l 593 1297 q 579.5 1405.5 593 1359 q 506 1452 566 1452 q 432.5 1405.5 446 1452 q 419 1297 419 1359 l 419 428 q 442.5 345 419 382 q 506 308 466 308"},"1":{"ha":677,"x_min":25,"x_max":616,"o":"m 616 0 l 243 0 l 243 1356 q 144 1286.5 207 1313 q 25 1260 81 1260 l 25 1541 q 139 1575.5 78 1549 q 252.5 1648.5 200 1602 q 333 1761 305 1695 l 616 1761 l 616 0"},"2":{"ha":1012,"x_min":58,"x_max":987,"o":"m 975 0 l 62 0 l 62 84 q 102.5 319.5 62 215 q 207 513.5 143 424 q 342 689 271 603 q 473.5 861.5 411 773 q 575.5 1053.5 536 950 q 615 1286 615 1157 q 596.5 1392.5 615 1348 q 520 1437 578 1437 q 432 1280 432 1437 l 432 1065 l 62 1065 q 59.5 1117 61 1088 q 58 1173 58 1146 q 98 1495.5 58 1363 q 239.5 1697.5 138 1628 q 525 1767 341 1767 q 865.5 1644 744 1767 q 987 1293 987 1521 q 947 1021.5 987 1138 q 841 809.5 907 905 q 696 619 775 714 q 587.5 482 640 552 q 495 332 535 412 l 975 332 l 975 0"},"3":{"ha":1012,"x_min":39,"x_max":961,"o":"m 484 -20 q 145 103 251 -20 q 39 474 39 226 l 39 658 l 400 658 l 400 473 q 417.5 354.5 400 403 q 496 306 435 306 q 575 358.5 558 306 q 592 530 592 411 l 592 574 q 561.5 733 592 665 q 442 801 531 801 q 422.5 800.5 431 801 q 408 799 414 800 l 408 1115 q 547 1155.5 499 1115 q 595 1291 595 1196 q 509 1440 595 1440 q 433.5 1396.5 453 1440 q 414 1286 414 1353 l 414 1233 l 50 1233 q 48.5 1262 49 1245 q 48 1295 48 1279 q 161 1650 48 1537 q 507 1763 274 1763 q 957 1295 957 1763 q 922 1080.5 957 1165 q 792 962 887 996 q 903 870 867 926 q 950 731 939 814 q 961 530 961 648 q 850.5 123 961 266 q 484 -20 740 -20"},"4":{"ha":1012,"x_min":18,"x_max":993,"o":"m 899 -1 l 540 -1 l 540 278 l 18 278 l 18 553 l 351 1761 l 899 1761 l 899 572 l 993 572 l 993 278 l 899 278 l 899 -1 m 540 1459 l 332 572 l 540 572 l 540 1459"},"5":{"ha":1012,"x_min":46,"x_max":977,"o":"m 506 -25 q 174.5 75.5 303 -25 q 46 384 46 176 l 46 646 l 412 646 l 412 495 q 417.5 404 412 448 q 443 332 423 360 q 506 304 463 304 q 581 342.5 563 304 q 599 441 599 381 l 599 787 q 593.5 872 599 830 q 569 942 588 914 q 508 970 550 970 q 408 825 408 970 l 85 825 l 85 1761 l 924 1761 l 924 1431 l 419 1431 l 419 1183 q 489.5 1239.5 445 1215 q 594 1264 534 1264 q 789.5 1218 714 1264 q 905.5 1090 865 1172 q 961.5 900 946 1008 q 977 668 977 792 q 960.5 381.5 977 509 q 895.5 163 944 254 q 753.5 23.5 847 72 q 506 -25 660 -25"},"6":{"ha":1012,"x_min":54,"x_max":988,"o":"m 529 -16 q 242.5 46.5 346 -16 q 96.5 235 139 109 q 54 549 54 361 l 54 1025 q 69.5 1348 54 1208 q 134 1583 85 1488 q 280 1727 183 1678 q 539 1776 377 1776 q 746 1737.5 650 1776 q 901 1622.5 842 1699 q 960 1431 960 1546 l 960 1241 l 621 1241 l 621 1277 q 616.5 1365 621 1321 q 594 1438 612 1409 q 533 1467 576 1467 q 451 1434.5 474 1467 q 428 1341 428 1402 l 428 988 q 503 1063.5 453 1035 q 625 1092 553 1092 q 849.5 1033.5 771 1092 q 958 859 928 975 q 988 569 988 743 q 945 261.5 988 393 q 801.5 57 902 130 q 529 -16 701 -16 m 516 308 q 590 360.5 578 308 q 602 495 602 413 l 602 637 q 521 781 602 781 q 428 656 428 781 l 428 438 q 516 308 428 308"},"7":{"ha":1012,"x_min":70,"x_max":958,"o":"m 543 1 l 145 1 q 214 461 161 247 q 336 859.5 267 675 q 469 1198 405 1044 l 567 1435 l 70 1435 l 70 1761 l 958 1761 l 958 1569 q 923 1355 958 1463 q 831 1117 888 1247 q 633.5 555.5 707 835 q 543 1 560 276"},"8":{"ha":1012,"x_min":46,"x_max":966,"o":"m 506 -19 q 152 123 258 -19 q 46 525 46 265 l 46 642 q 78 859 46 776 q 196 986 110 942 q 81 1096.5 115 1019 q 47 1289 47 1174 l 47 1335 q 164.5 1675.5 47 1569 q 506 1782 282 1782 q 850 1672.5 736 1782 q 964 1321 964 1563 q 934 1108 964 1194 q 815 984 904 1022 q 938 855.5 910 935 q 966 642 966 776 l 966 525 q 860 123 966 265 q 506 -19 754 -19 m 506 329 q 602 484 602 329 l 602 645 q 580.5 770 602 725 q 506 815 559 815 q 431 770 451 815 q 411 645 411 725 l 411 484 q 506 329 411 329 m 506 1134 q 599 1302 599 1134 q 579.5 1408 599 1358 q 506 1458 560 1458 q 432.5 1408 452 1458 q 413 1302 413 1358 q 506 1134 413 1134"},"9":{"ha":1012,"x_min":54,"x_max":988,"o":"m 503 -16 q 296 22.5 392 -16 q 141 138 200 61 q 82 329 82 215 l 82 519 l 421 519 l 421 483 q 425.5 395 421 439 q 448.5 322 430 351 q 509 293 467 293 q 591 325.5 568 293 q 614 419 614 358 l 614 772 q 539 697 589 726 q 417 668 489 668 q 193 726.5 272 668 q 84 901 114 785 q 54 1191 54 1017 q 97 1498.5 54 1367 q 240.5 1703 140 1630 q 513 1776 341 1776 q 800 1713.5 697 1776 q 945.5 1525.5 903 1651 q 988 1211 988 1400 l 988 735 q 972.5 412 988 552 q 908 177 957 272 q 762 33 859 82 q 503 -16 665 -16 m 521 979 q 614 1104 614 979 l 614 1322 q 526 1452 614 1452 q 452 1399.5 464 1452 q 440 1265 440 1347 l 440 1123 q 521 979 440 979"},"\r":{"ha":480,"x_min":0,"x_max":0,"o":""}," ":{"ha":480,"x_min":0,"x_max":0,"o":""},"A":{"ha":994,"x_min":30,"x_max":964,"o":"m 372 0 l 30 0 l 200 1760 l 797 1760 l 964 0 l 631 0 l 606 284 l 394 284 l 372 0 m 486 1460 l 419 565 l 579 565 l 502 1460 l 486 1460"},"Æ":{"ha":1311,"x_min":-44,"x_max":1272,"o":"m 337 0 l -44 0 l 277 1760 l 1249 1760 l 1249 1451 l 963 1451 l 963 1049 l 1235 1049 l 1235 750 l 963 750 l 963 311 l 1272 311 l 1272 0 l 623 0 l 623 479 l 416 479 l 337 0 m 561 1461 l 462 769 l 618 769 l 618 1461 l 561 1461"},"Ǽ":{"ha":1311,"x_min":-44,"x_max":1272,"o":"m 337 0 l -44 0 l 277 1760 l 1249 1760 l 1249 1451 l 963 1451 l 963 1049 l 1235 1049 l 1235 750 l 963 750 l 963 311 l 1272 311 l 1272 0 l 623 0 l 623 479 l 416 479 l 337 0 m 1033 1907 l 1033 2254 l 558 2036 l 558 1813 l 1033 1907 m 561 1461 l 462 769 l 618 769 l 618 1461 l 561 1461"},"Ǣ":{"ha":1311,"x_min":-44,"x_max":1272,"o":"m 337 0 l -44 0 l 277 1760 l 1249 1760 l 1249 1451 l 963 1451 l 963 1049 l 1235 1049 l 1235 750 l 963 750 l 963 311 l 1272 311 l 1272 0 l 623 0 l 623 479 l 416 479 l 337 0 m 1121 1879 l 1121 2032 l 471 2032 l 471 1879 l 1121 1879 m 561 1461 l 462 769 l 618 769 l 618 1461 l 561 1461"},"Á":{"ha":994,"x_min":30,"x_max":964,"o":"m 372 0 l 30 0 l 200 1760 l 797 1760 l 964 0 l 631 0 l 606 284 l 394 284 l 372 0 m 733 1907 l 733 2254 l 258 2036 l 258 1813 l 733 1907 m 486 1460 l 419 565 l 579 565 l 502 1460 l 486 1460"},"Ă":{"ha":994,"x_min":30,"x_max":964,"o":"m 372 0 l 30 0 l 200 1760 l 797 1760 l 964 0 l 631 0 l 606 284 l 394 284 l 372 0 m 499 1852 q 786.5 1927.5 679 1852 q 894 2170 894 2003 q 893.5 2185 894 2175 q 892 2205 893 2195 l 636 2205 q 607 2118.5 636 2148 q 501 2089 578 2089 q 395 2118.5 424 2089 q 366 2205 366 2148 l 110 2205 q 107 2163 107 2184 q 215.5 1926 107 2000 q 499 1852 324 1852 m 486 1460 l 419 565 l 579 565 l 502 1460 l 486 1460"},"Ắ":{"ha":994,"x_min":30,"x_max":964,"o":"m 372 0 l 30 0 l 200 1760 l 797 1760 l 964 0 l 631 0 l 606 284 l 394 284 l 372 0 m 491 1830 q 671.5 1865.5 596 1830 q 787.5 1957.5 747 1901 q 828 2076 828 2014 q 826 2111 828 2087 l 625 2111 q 596.5 2017 625 2049 q 491 1985 568 1985 q 386 2017 415 1985 q 357 2111 357 2049 l 167 2111 q 164 2069 164 2090 q 204.5 1955 164 2010 q 319 1865 245 1900 q 491 1830 393 1830 m 486 1460 l 419 565 l 579 565 l 502 1460 l 486 1460 m 705 2225 l 705 2454 l 331 2266 l 331 2161 l 705 2225"},"Ặ":{"ha":994,"x_min":30,"x_max":964,"o":"m 372 0 l 30 0 l 200 1760 l 797 1760 l 964 0 l 631 0 l 606 284 l 394 284 l 372 0 m 495 1852 q 782.5 1920.5 675 1852 q 890 2140 890 1989 q 888 2175 890 2151 l 632 2175 q 603 2081 632 2113 q 497 2049 574 2049 q 391 2081 420 2049 q 362 2175 362 2113 l 106 2175 q 103 2133 103 2154 q 211.5 1919 103 1986 q 495 1852 320 1852 m 676 -397 l 676 -99 l 318 -99 l 318 -397 l 676 -397 m 486 1460 l 419 565 l 579 565 l 502 1460 l 486 1460"},"Ằ":{"ha":994,"x_min":30,"x_max":964,"o":"m 372 0 l 30 0 l 200 1760 l 797 1760 l 964 0 l 631 0 l 606 284 l 394 284 l 372 0 m 491 1830 q 671.5 1865.5 596 1830 q 787.5 1957.5 747 1901 q 828 2076 828 2014 q 826 2111 828 2089 l 625 2111 q 596.5 2017 625 2049 q 491 1985 568 1985 q 386 2017 415 1985 q 357 2111 357 2049 l 167 2111 q 164 2069 164 2090 q 204.5 1955 164 2010 q 319 1865 245 1900 q 491 1830 393 1830 m 486 1460 l 419 565 l 579 565 l 502 1460 l 486 1460 m 705 2266 l 331 2454 l 331 2225 l 705 2161 l 705 2266"},"Ẳ":{"ha":994,"x_min":30,"x_max":964,"o":"m 372 0 l 30 0 l 200 1760 l 797 1760 l 964 0 l 631 0 l 606 284 l 394 284 l 372 0 m 491 1830 q 671.5 1865.5 596 1830 q 787.5 1957.5 747 1901 q 828 2076 828 2014 q 827.5 2091 828 2081 q 826 2111 827 2101 l 625 2111 q 596.5 2017 625 2049 q 491 1985 568 1985 q 386 2017 415 1985 q 357 2111 357 2049 l 167 2111 q 164 2069 164 2090 q 204.5 1955 164 2010 q 319 1865 245 1900 q 491 1830 393 1830 m 486 1460 l 419 565 l 579 565 l 502 1460 l 486 1460 m 502 2129 q 622.5 2197 574 2152 q 671 2321 671 2242 q 627 2430 671 2391 q 506 2469 583 2469 q 392 2448 449 2469 l 392 2336 q 448 2346 420 2346 q 511 2287 511 2346 q 490.5 2237.5 511 2256 q 436 2206 470 2219 l 502 2129"},"Ẵ":{"ha":994,"x_min":30,"x_max":964,"o":"m 372 0 l 30 0 l 200 1760 l 797 1760 l 964 0 l 631 0 l 606 284 l 394 284 l 372 0 m 491 1830 q 671.5 1865.5 596 1830 q 787.5 1957.5 747 1901 q 828 2076 828 2014 q 827.5 2091 828 2081 q 826 2111 827 2101 l 625 2111 q 596.5 2017 625 2049 q 491 1985 568 1985 q 386 2017 415 1985 q 357 2111 357 2049 l 167 2111 q 164 2069 164 2090 q 204.5 1955 164 2010 q 319 1865 245 1900 q 491 1830 393 1830 m 634 2174 q 756 2229.5 719 2174 q 821 2355 793 2285 l 696 2395 q 612 2339 662 2339 q 535 2356 572 2339 q 459 2390 498 2373 q 373 2407 420 2407 q 262 2360.5 298 2407 q 200 2249 226 2314 l 311 2191 q 350 2231 329 2220 q 395 2242 371 2242 q 472 2225 434 2242 q 549.5 2191 510 2208 q 634 2174 589 2174 m 486 1460 l 419 565 l 579 565 l 502 1460 l 486 1460"},"Ǎ":{"ha":994,"x_min":30,"x_max":964,"o":"m 372 0 l 30 0 l 200 1760 l 797 1760 l 964 0 l 631 0 l 606 284 l 394 284 l 372 0 m 700 1851 l 941 2254 l 582 2254 l 496 1969 l 410 2254 l 51 2254 l 292 1851 l 700 1851 m 486 1460 l 419 565 l 579 565 l 502 1460 l 486 1460"},"Â":{"ha":994,"x_min":30,"x_max":964,"o":"m 372 0 l 30 0 l 200 1760 l 797 1760 l 964 0 l 631 0 l 606 284 l 394 284 l 372 0 m 410 1851 l 496 2136 l 582 1851 l 941 1851 l 700 2254 l 292 2254 l 51 1851 l 410 1851 m 486 1460 l 419 565 l 579 565 l 502 1460 l 486 1460"},"Ấ":{"ha":994,"x_min":30,"x_max":1206,"o":"m 372 0 l 30 0 l 200 1760 l 797 1760 l 964 0 l 631 0 l 606 284 l 394 284 l 372 0 m 397 1839 l 496 1974 l 595 1839 l 880 1839 l 643 2093 l 349 2093 l 112 1839 l 397 1839 m 486 1460 l 419 565 l 579 565 l 502 1460 l 486 1460 m 1018 2000 l 1206 2204 l 899 2204 l 785 2000 l 1018 2000"},"Ậ":{"ha":994,"x_min":30,"x_max":964,"o":"m 372 0 l 30 0 l 200 1760 l 797 1760 l 964 0 l 631 0 l 606 284 l 394 284 l 372 0 m 410 1861 l 496 2076 l 582 1861 l 941 1861 l 700 2194 l 292 2194 l 51 1861 l 410 1861 m 676 -397 l 676 -99 l 318 -99 l 318 -397 l 676 -397 m 486 1460 l 419 565 l 579 565 l 502 1460 l 486 1460"},"Ầ":{"ha":994,"x_min":30,"x_max":1085,"o":"m 372 0 l 30 0 l 200 1760 l 797 1760 l 964 0 l 631 0 l 606 284 l 394 284 l 372 0 m 397 1839 l 496 1974 l 595 1839 l 880 1839 l 643 2093 l 349 2093 l 112 1839 l 397 1839 m 486 1460 l 419 565 l 579 565 l 502 1460 l 486 1460 m 1085 2000 l 971 2204 l 664 2204 l 852 2000 l 1085 2000"},"Ẩ":{"ha":994,"x_min":30,"x_max":1035,"o":"m 372 0 l 30 0 l 200 1760 l 797 1760 l 964 0 l 631 0 l 606 284 l 394 284 l 372 0 m 397 1839 l 496 1974 l 595 1839 l 880 1839 l 643 2093 l 349 2093 l 112 1839 l 397 1839 m 486 1460 l 419 565 l 579 565 l 502 1460 l 486 1460 m 866 1959 q 986.5 2027 938 1982 q 1035 2151 1035 2072 q 991 2260 1035 2221 q 870 2299 947 2299 q 756 2278 813 2299 l 756 2166 q 812 2176 784 2176 q 875 2117 875 2176 q 854.5 2067.5 875 2086 q 800 2036 834 2049 l 866 1959"},"Ẫ":{"ha":994,"x_min":30,"x_max":964,"o":"m 372 0 l 30 0 l 200 1760 l 797 1760 l 964 0 l 631 0 l 606 284 l 394 284 l 372 0 m 397 1839 l 496 1974 l 595 1839 l 880 1839 l 643 2093 l 349 2093 l 112 1839 l 397 1839 m 616 2142 q 738 2197.5 701 2142 q 803 2323 775 2253 l 678 2363 q 594 2307 644 2307 q 517 2324 554 2307 q 441 2358 480 2341 q 355 2375 402 2375 q 244 2328.5 280 2375 q 182 2217 208 2282 l 293 2159 q 332 2199 311 2188 q 377 2210 353 2210 q 454.5 2193 417 2210 q 531.5 2159 492 2176 q 616 2142 571 2142 m 486 1460 l 419 565 l 579 565 l 502 1460 l 486 1460"},"Ȁ":{"ha":994,"x_min":10,"x_max":964,"o":"m 372 0 l 30 0 l 200 1760 l 797 1760 l 964 0 l 631 0 l 606 284 l 394 284 l 372 0 m 465 1904 l 244 2383 l 10 2275 l 299 1846 l 465 1904 m 767 1904 l 583 2383 l 353 2275 l 601 1846 l 767 1904 m 486 1460 l 419 565 l 579 565 l 502 1460 l 486 1460"},"Ä":{"ha":994,"x_min":30,"x_max":964,"o":"m 372 0 l 30 0 l 200 1760 l 797 1760 l 964 0 l 631 0 l 606 284 l 394 284 l 372 0 m 910 1859 l 910 2157 l 552 2157 l 552 1859 l 910 1859 m 426 1859 l 426 2157 l 68 2157 l 68 1859 l 426 1859 m 486 1460 l 419 565 l 579 565 l 502 1460 l 486 1460"},"Ǟ":{"ha":994,"x_min":30,"x_max":964,"o":"m 372 0 l 30 0 l 200 1760 l 797 1760 l 964 0 l 631 0 l 606 284 l 394 284 l 372 0 m 821 2216 l 821 2369 l 171 2369 l 171 2216 l 821 2216 m 917 1859 l 917 2107 l 559 2107 l 559 1859 l 917 1859 m 433 1859 l 433 2107 l 75 2107 l 75 1859 l 433 1859 m 486 1460 l 419 565 l 579 565 l 502 1460 l 486 1460"},"Ȧ":{"ha":994,"x_min":30,"x_max":964,"o":"m 372 0 l 30 0 l 200 1760 l 797 1760 l 964 0 l 631 0 l 606 284 l 394 284 l 372 0 m 675 1852 l 675 2150 l 317 2150 l 317 1852 l 675 1852 m 486 1460 l 419 565 l 579 565 l 502 1460 l 486 1460"},"Ạ":{"ha":994,"x_min":30,"x_max":964,"o":"m 372 0 l 30 0 l 200 1760 l 797 1760 l 964 0 l 631 0 l 606 284 l 394 284 l 372 0 m 676 -397 l 676 -99 l 318 -99 l 318 -397 l 676 -397 m 486 1460 l 419 565 l 579 565 l 502 1460 l 486 1460"},"Ǡ":{"ha":994,"x_min":30,"x_max":964,"o":"m 372 0 l 30 0 l 200 1760 l 797 1760 l 964 0 l 631 0 l 606 284 l 394 284 l 372 0 m 821 2198 l 821 2351 l 171 2351 l 171 2198 l 821 2198 m 675 1852 l 675 2110 l 317 2110 l 317 1852 l 675 1852 m 486 1460 l 419 565 l 579 565 l 502 1460 l 486 1460"},"À":{"ha":994,"x_min":30,"x_max":964,"o":"m 372 0 l 30 0 l 200 1760 l 797 1760 l 964 0 l 631 0 l 606 284 l 394 284 l 372 0 m 733 2036 l 258 2254 l 258 1907 l 733 1813 l 733 2036 m 486 1460 l 419 565 l 579 565 l 502 1460 l 486 1460"},"Ả":{"ha":994,"x_min":30,"x_max":964,"o":"m 372 0 l 30 0 l 200 1760 l 797 1760 l 964 0 l 631 0 l 606 284 l 394 284 l 372 0 m 467 1837 q 661 1945.5 583 1873 q 739 2145 739 2018 q 668.5 2320.5 739 2258 q 473 2383 598 2383 q 290 2350 378 2383 l 290 2170 q 380 2186 333 2186 q 481 2091 481 2186 q 448 2011 481 2041 q 361 1961 415 1981 l 467 1837 m 486 1460 l 419 565 l 579 565 l 502 1460 l 486 1460"},"Ȃ":{"ha":994,"x_min":30,"x_max":964,"o":"m 372 0 l 30 0 l 200 1760 l 797 1760 l 964 0 l 631 0 l 606 284 l 394 284 l 372 0 m 361 1868 q 399.5 1969 361 1936 q 496 2002 438 2002 q 593 1969 555 2002 q 631 1868 631 1936 l 867 1868 q 868.5 1887.5 868 1878 q 869 1902 869 1897 q 771.5 2144.5 869 2069 q 494 2220 674 2220 q 220.5 2146 319 2220 q 122 1909 122 2072 q 125 1868 122 1888 l 361 1868 m 486 1460 l 419 565 l 579 565 l 502 1460 l 486 1460"},"Ɑ":{"ha":1069,"x_min":64,"x_max":1059,"o":"m 363 -16 q 170 45.5 234 -16 q 85 216 106 107 q 64 467 64 325 l 64 1294 q 85 1544.5 64 1436 q 170 1714.5 106 1653 q 363 1776 234 1776 q 500 1733 449 1776 q 581 1604 551 1690 l 581 1760 l 931 1760 l 931 439 q 961.5 337 931 368 q 1059 306 992 306 l 1059 -10 q 790 29.5 887 -10 q 642 189 693 69 q 534 29.5 609 75 q 363 -16 459 -16 m 499 278 q 563.5 322 546 278 q 581 431 581 366 l 581 1330 q 563.5 1438.5 581 1395 q 499 1482 546 1482 q 431 1441.5 448 1482 q 414 1330 414 1401 l 414 431 q 431 319 414 360 q 499 278 448 278"},"Ā":{"ha":994,"x_min":30,"x_max":964,"o":"m 372 0 l 30 0 l 200 1760 l 797 1760 l 964 0 l 631 0 l 606 284 l 394 284 l 372 0 m 822 1879 l 822 2032 l 172 2032 l 172 1879 l 822 1879 m 486 1460 l 419 565 l 579 565 l 502 1460 l 486 1460"},"Ą":{"ha":994,"x_min":30,"x_max":973,"o":"m 372 0 l 30 0 l 200 1760 l 797 1760 l 964 0 l 631 0 l 606 284 l 394 284 l 372 0 m 775 -631 q 973 -591 878 -631 l 973 -368 q 857 -391 906 -391 q 742 -279 742 -391 q 794 -127 742 -196 q 902 0 846 -58 l 691 0 q 427 -330 427 -148 q 474.5 -491.5 427 -424 q 601 -595 522 -559 q 775 -631 680 -631 m 486 1460 l 419 565 l 579 565 l 502 1460 l 486 1460"},"Å":{"ha":994,"x_min":30,"x_max":964,"o":"m 372 0 l 30 0 l 200 1760 l 797 1760 l 964 0 l 631 0 l 606 284 l 394 284 l 372 0 m 495 1840 q 752.5 1930 656 1840 q 849 2178 849 2020 q 752.5 2426 849 2336 q 495 2516 656 2516 q 238.5 2426 335 2516 q 142 2178 142 2336 q 238.5 1929.5 142 2019 q 495 1840 335 1840 m 486 1460 l 419 565 l 579 565 l 502 1460 l 486 1460 m 496 2021 q 600.5 2067 563 2021 q 638 2178 638 2113 q 600.5 2289 638 2243 q 496 2335 563 2335 q 391.5 2289 429 2335 q 354 2178 354 2243 q 391.5 2067 354 2113 q 496 2021 429 2021"},"Ǻ":{"ha":994,"x_min":30,"x_max":964,"o":"m 372 0 l 30 0 l 200 1760 l 797 1760 l 964 0 l 631 0 l 606 284 l 394 284 l 372 0 m 496 1840 q 753.5 1925 657 1840 q 850 2158 850 2010 q 753.5 2391.5 850 2307 q 496 2476 657 2476 q 239.5 2391.5 336 2476 q 143 2158 143 2307 q 239.5 1924 143 2008 q 496 1840 336 1840 m 734 2587 l 734 2874 l 259 2706 l 259 2513 l 734 2587 m 486 1460 l 419 565 l 579 565 l 502 1460 l 486 1460 m 497 2021 q 601.5 2061 564 2021 q 639 2158 639 2101 q 601.5 2255 639 2215 q 497 2295 564 2295 q 392.5 2255 430 2295 q 355 2158 355 2215 q 392.5 2061 355 2101 q 497 2021 430 2021"},"Ḁ":{"ha":994,"x_min":30,"x_max":964,"o":"m 372 0 l 30 0 l 200 1760 l 797 1760 l 964 0 l 631 0 l 606 284 l 394 284 l 372 0 m 496 -613 q 753.5 -528 657 -613 q 850 -295 850 -443 q 753.5 -61.5 850 -146 q 496 23 657 23 q 239.5 -61.5 336 23 q 143 -295 143 -146 q 239.5 -529 143 -445 q 496 -613 336 -613 m 486 1460 l 419 565 l 579 565 l 502 1460 l 486 1460 m 497 -432 q 601.5 -392 564 -432 q 639 -295 639 -352 q 601.5 -198 639 -238 q 497 -158 564 -158 q 392.5 -198 430 -158 q 355 -295 355 -238 q 392.5 -392 355 -352 q 497 -432 430 -432"},"Ⱥ":{"ha":994,"x_min":30,"x_max":964,"o":"m 149 0 l 30 0 l 200 1760 l 607 1760 l 669 2000 l 809 2000 l 747 1760 l 797 1760 l 964 0 l 631 0 l 606 284 l 394 284 l 372 0 l 289 0 l 241 -186 l 101 -186 l 149 0 m 486 1460 l 419 565 l 579 565 l 502 1460 l 486 1460"},"Ã":{"ha":994,"x_min":30,"x_max":964,"o":"m 372 0 l 30 0 l 200 1760 l 797 1760 l 964 0 l 631 0 l 606 284 l 394 284 l 372 0 m 661 1871 q 781.5 1908 736 1871 q 856 2005 827 1945 q 909 2132 885 2065 l 743 2186 q 700 2128 723 2145 q 650 2111 677 2111 q 563.5 2132 611 2111 q 458.5 2174 516 2153 q 330 2195 401 2195 q 213 2164.5 259 2195 q 137.5 2083.5 167 2134 q 83 1972 108 2033 l 231 1894 q 274 1947 251 1932 q 323 1962 297 1962 q 414 1939.5 364 1962 q 525.5 1894 464 1917 q 661 1871 587 1871 m 486 1460 l 419 565 l 579 565 l 502 1460 l 486 1460"},"B":{"ha":980,"x_min":78,"x_max":942,"o":"m 555 0 l 78 0 l 78 1760 l 555 1760 q 834.5 1666.5 747 1760 q 922 1358 922 1573 l 922 1281 q 877.5 1080 922 1157 q 742 979 833 1003 q 901.5 838.5 861 949 q 942 569 942 728 q 910 270 942 398 q 794 71 878 142 q 555 0 710 0 m 457 310 q 594 440 594 310 l 594 660 q 571.5 778.5 594 735 q 487 822 549 822 l 422 822 l 422 312 q 457 310 444 310 m 422 1488 l 422 1097 l 494 1097 q 557 1135 543 1097 q 571 1226 571 1173 l 571 1403 q 496 1488 571 1488 l 422 1488"},"Ḃ":{"ha":980,"x_min":78,"x_max":942,"o":"m 555 0 l 78 0 l 78 1760 l 555 1760 q 834.5 1666.5 747 1760 q 922 1358 922 1573 l 922 1281 q 877.5 1080 922 1157 q 742 979 833 1003 q 901.5 838.5 861 949 q 942 569 942 728 q 910 270 942 398 q 794 71 878 142 q 555 0 710 0 m 630 1852 l 630 2150 l 272 2150 l 272 1852 l 630 1852 m 457 310 q 594 440 594 310 l 594 660 q 571.5 778.5 594 735 q 487 822 549 822 l 422 822 l 422 312 q 457 310 444 310 m 422 1488 l 422 1097 l 494 1097 q 557 1135 543 1097 q 571 1226 571 1173 l 571 1403 q 496 1488 571 1488 l 422 1488"},"Ḅ":{"ha":980,"x_min":78,"x_max":942,"o":"m 555 0 l 78 0 l 78 1760 l 555 1760 q 834.5 1666.5 747 1760 q 922 1358 922 1573 l 922 1281 q 877.5 1080 922 1157 q 742 979 833 1003 q 901.5 838.5 861 949 q 942 569 942 728 q 910 270 942 398 q 794 71 878 142 q 555 0 710 0 m 630 -417 l 630 -119 l 272 -119 l 272 -417 l 630 -417 m 457 310 q 594 440 594 310 l 594 660 q 571.5 778.5 594 735 q 487 822 549 822 l 422 822 l 422 312 q 457 310 444 310 m 422 1488 l 422 1097 l 494 1097 q 557 1135 543 1097 q 571 1226 571 1173 l 571 1403 q 496 1488 571 1488 l 422 1488"},"Ꞵ":{"ha":980,"x_min":78,"x_max":942,"o":"m 422 -186 l 78 -186 l 78 1760 l 555 1760 q 834.5 1666.5 747 1760 q 922 1358 922 1573 l 922 1281 q 877.5 1080 922 1157 q 742 979 833 1003 q 901.5 838.5 861 949 q 942 569 942 728 q 910 270 942 398 q 794 71 878 142 q 555 0 710 0 l 422 0 l 422 -186 m 457 310 q 594 440 594 310 l 594 660 q 571.5 778.5 594 735 q 487 822 549 822 l 422 822 l 422 312 q 457 310 444 310 m 422 1488 l 422 1097 l 494 1097 q 557 1135 543 1097 q 571 1226 571 1173 l 571 1403 q 496 1488 571 1488 l 422 1488"},"Ɓ":{"ha":1328,"x_min":5,"x_max":1290,"o":"m 903 0 l 426 0 l 426 1488 q 312 1336 312 1488 l 312 1252 l 5 1252 l 5 1312 q 51.5 1544 5 1443 q 191.5 1702.5 98 1645 q 426 1760 285 1760 l 903 1760 q 1182.5 1666.5 1095 1760 q 1270 1358 1270 1573 l 1270 1281 q 1225.5 1080 1270 1157 q 1090 979 1181 1003 q 1249.5 838.5 1209 949 q 1290 569 1290 728 q 1258 270 1290 398 q 1142 71 1226 142 q 903 0 1058 0 m 805 310 q 942 440 942 310 l 942 660 q 919.5 778.5 942 735 q 835 822 897 822 l 770 822 l 770 312 q 805 310 792 310 m 770 1488 l 770 1097 l 842 1097 q 905 1135 891 1097 q 919 1226 919 1173 l 919 1403 q 844 1488 919 1488 l 770 1488"},"Ḇ":{"ha":980,"x_min":78,"x_max":942,"o":"m 555 0 l 78 0 l 78 1760 l 555 1760 q 834.5 1666.5 747 1760 q 922 1358 922 1573 l 922 1281 q 877.5 1080 922 1157 q 742 979 833 1003 q 901.5 838.5 861 949 q 942 569 942 728 q 910 270 942 398 q 794 71 878 142 q 555 0 710 0 m 776 -272 l 776 -119 l 126 -119 l 126 -272 l 776 -272 m 457 310 q 594 440 594 310 l 594 660 q 571.5 778.5 594 735 q 487 822 549 822 l 422 822 l 422 312 q 457 310 444 310 m 422 1488 l 422 1097 l 494 1097 q 557 1135 543 1097 q 571 1226 571 1173 l 571 1403 q 496 1488 571 1488 l 422 1488"},"Ƀ":{"ha":980,"x_min":0,"x_max":942,"o":"m 555 0 l 78 0 l 78 453 l 0 453 l 0 685 l 78 685 l 78 1760 l 555 1760 q 834.5 1666.5 747 1760 q 922 1358 922 1573 l 922 1281 q 877.5 1080 922 1157 q 742 979 833 1003 q 901.5 838.5 861 949 q 942 569 942 728 q 910 270 942 398 q 794 71 878 142 q 555 0 710 0 m 457 310 q 594 440 594 310 l 594 660 q 571.5 778.5 594 735 q 487 822 549 822 l 422 822 l 422 685 l 516 685 l 516 453 l 422 453 l 422 312 q 457 310 444 310 m 422 1488 l 422 1097 l 494 1097 q 557 1135 543 1097 q 571 1226 571 1173 l 571 1403 q 496 1488 571 1488 l 422 1488"},"C":{"ha":971,"x_min":64,"x_max":932,"o":"m 488 -16 q 180.5 103 297 -16 q 64 436 64 222 l 64 1248 q 165.5 1640 64 1504 q 496 1776 267 1776 q 718.5 1730 621 1776 q 872 1592.5 816 1684 q 928 1362 928 1501 l 928 1058 l 578 1058 l 578 1318 q 558 1424.5 578 1397 q 496 1452 538 1452 q 430 1416.5 447 1452 q 413 1322 413 1381 l 413 441 q 434.5 338 413 368 q 496 308 456 308 q 559.5 345 541 308 q 578 441 578 382 l 578 758 l 932 758 l 932 425 q 815 88.5 932 193 q 488 -16 698 -16"},"Ć":{"ha":971,"x_min":64,"x_max":932,"o":"m 488 -16 q 180.5 103 297 -16 q 64 436 64 222 l 64 1248 q 165.5 1640 64 1504 q 496 1776 267 1776 q 718.5 1730 621 1776 q 872 1592.5 816 1684 q 928 1362 928 1501 l 928 1058 l 578 1058 l 578 1318 q 558 1424.5 578 1397 q 496 1452 538 1452 q 430 1416.5 447 1452 q 413 1322 413 1381 l 413 441 q 434.5 338 413 368 q 496 308 456 308 q 559.5 345 541 308 q 578 441 578 382 l 578 758 l 932 758 l 932 425 q 815 88.5 932 193 q 488 -16 698 -16 m 733 1907 l 733 2254 l 258 2036 l 258 1813 l 733 1907"},"Č":{"ha":971,"x_min":51,"x_max":941,"o":"m 488 -16 q 180.5 103 297 -16 q 64 436 64 222 l 64 1248 q 165.5 1640 64 1504 q 496 1776 267 1776 q 718.5 1730 621 1776 q 872 1592.5 816 1684 q 928 1362 928 1501 l 928 1058 l 578 1058 l 578 1318 q 558 1424.5 578 1397 q 496 1452 538 1452 q 430 1416.5 447 1452 q 413 1322 413 1381 l 413 441 q 434.5 338 413 368 q 496 308 456 308 q 559.5 345 541 308 q 578 441 578 382 l 578 758 l 932 758 l 932 425 q 815 88.5 932 193 q 488 -16 698 -16 m 700 1851 l 941 2254 l 582 2254 l 496 1969 l 410 2254 l 51 2254 l 292 1851 l 700 1851"},"Ç":{"ha":971,"x_min":64,"x_max":932,"o":"m 488 -16 q 180.5 103 297 -16 q 64 436 64 222 l 64 1248 q 165.5 1640 64 1504 q 496 1776 267 1776 q 718.5 1730 621 1776 q 872 1592.5 816 1684 q 928 1362 928 1501 l 928 1058 l 578 1058 l 578 1318 q 558 1424.5 578 1397 q 496 1452 538 1452 q 430 1416.5 447 1452 q 413 1322 413 1381 l 413 441 q 434.5 338 413 368 q 496 308 456 308 q 559.5 345 541 308 q 578 441 578 382 l 578 758 l 932 758 l 932 425 q 815 88.5 932 193 q 488 -16 698 -16 m 463 -631 q 690 -560.5 619 -631 q 761 -387 761 -490 q 707.5 -189.5 761 -294 q 557 0 654 -85 l 396 0 q 472.5 -145 445 -73 q 500 -273 500 -217 q 466.5 -364.5 500 -338 q 383 -391 433 -391 q 326 -384.5 356 -391 q 265 -368 296 -378 l 265 -591 q 463 -631 360 -631"},"Ḉ":{"ha":971,"x_min":64,"x_max":932,"o":"m 488 -16 q 180.5 103 297 -16 q 64 436 64 222 l 64 1248 q 165.5 1640 64 1504 q 496 1776 267 1776 q 718.5 1730 621 1776 q 872 1592.5 816 1684 q 928 1362 928 1501 l 928 1058 l 578 1058 l 578 1318 q 558 1424.5 578 1397 q 496 1452 538 1452 q 430 1416.5 447 1452 q 413 1322 413 1381 l 413 441 q 434.5 338 413 368 q 496 308 456 308 q 559.5 345 541 308 q 578 441 578 382 l 578 758 l 932 758 l 932 425 q 815 88.5 932 193 q 488 -16 698 -16 m 463 -631 q 690 -560.5 619 -631 q 761 -387 761 -490 q 707.5 -189.5 761 -294 q 557 0 654 -85 l 396 0 q 472.5 -145 445 -73 q 500 -273 500 -217 q 466.5 -364.5 500 -338 q 383 -391 433 -391 q 326 -384.5 356 -391 q 265 -368 296 -378 l 265 -591 q 463 -631 360 -631 m 734 1907 l 734 2254 l 259 2036 l 259 1813 l 734 1907"},"Ĉ":{"ha":971,"x_min":51,"x_max":941,"o":"m 488 -16 q 180.5 103 297 -16 q 64 436 64 222 l 64 1248 q 165.5 1640 64 1504 q 496 1776 267 1776 q 718.5 1730 621 1776 q 872 1592.5 816 1684 q 928 1362 928 1501 l 928 1058 l 578 1058 l 578 1318 q 558 1424.5 578 1397 q 496 1452 538 1452 q 430 1416.5 447 1452 q 413 1322 413 1381 l 413 441 q 434.5 338 413 368 q 496 308 456 308 q 559.5 345 541 308 q 578 441 578 382 l 578 758 l 932 758 l 932 425 q 815 88.5 932 193 q 488 -16 698 -16 m 410 1851 l 496 2136 l 582 1851 l 941 1851 l 700 2254 l 292 2254 l 51 1851 l 410 1851"},"Ċ":{"ha":971,"x_min":64,"x_max":932,"o":"m 488 -16 q 180.5 103 297 -16 q 64 436 64 222 l 64 1248 q 165.5 1640 64 1504 q 496 1776 267 1776 q 718.5 1730 621 1776 q 872 1592.5 816 1684 q 928 1362 928 1501 l 928 1058 l 578 1058 l 578 1318 q 558 1424.5 578 1397 q 496 1452 538 1452 q 430 1416.5 447 1452 q 413 1322 413 1381 l 413 441 q 434.5 338 413 368 q 496 308 456 308 q 559.5 345 541 308 q 578 441 578 382 l 578 758 l 932 758 l 932 425 q 815 88.5 932 193 q 488 -16 698 -16 m 675 1852 l 675 2150 l 317 2150 l 317 1852 l 675 1852"},"Ꭓ":{"ha":1013,"x_min":27,"x_max":987,"o":"m 987 84 l 987 -202 q 680.5 -121.5 777 -202 q 559 134 584 -41 l 497 572 l 387 -186 l 37 -186 l 221 844 l 143 1342 q 113 1453.5 131 1419 q 27 1488 95 1488 l 27 1774 q 334.5 1694 237 1774 q 455 1438 432 1614 l 501 1091 l 579 1760 l 917 1760 l 769 844 l 879 231 q 914 119 893 154 q 987 84 935 84"},"Ƈ":{"ha":1054,"x_min":64,"x_max":1064,"o":"m 488 -16 q 180.5 103 297 -16 q 64 436 64 222 l 64 1248 q 164.5 1640 64 1504 q 486 1776 265 1776 q 677 1723 596 1776 q 818.5 1924.5 718 1849 q 1064 2000 919 2000 l 1064 1684 q 961.5 1651.5 995 1684 q 928 1532 928 1619 l 928 1058 l 578 1058 l 578 1318 q 558 1424.5 578 1397 q 496 1452 538 1452 q 430 1416.5 447 1452 q 413 1322 413 1381 l 413 441 q 434.5 338 413 368 q 496 308 456 308 q 559.5 345 541 308 q 578 441 578 382 l 578 758 l 932 758 l 932 425 q 815 88.5 932 193 q 488 -16 698 -16"},"Ȼ":{"ha":971,"x_min":64,"x_max":932,"o":"m 301 -186 l 161 -186 l 226 63 q 106.5 214.5 149 120 q 64 436 64 309 l 64 1248 q 165.5 1640 64 1504 q 496 1776 267 1776 q 665 1752 588 1776 l 729 2000 l 869 2000 l 789 1687 q 891 1554.5 854 1636 q 928 1362 928 1473 l 928 1058 l 578 1058 l 578 1318 q 558 1424.5 578 1397 q 496 1452 538 1452 q 430 1416.5 447 1452 q 413 1322 413 1381 l 413 441 q 434.5 338 413 368 q 496 308 456 308 q 559.5 345 541 308 q 578 441 578 382 l 578 758 l 932 758 l 932 425 q 815 88.5 932 193 q 488 -16 698 -16 q 350 2 414 -16 l 301 -186"},"D":{"ha":1010,"x_min":78,"x_max":944,"o":"m 550 0 l 78 0 l 78 1760 l 562 1760 q 848 1654.5 752 1760 q 944 1346 944 1549 l 944 522 q 856.5 136 944 272 q 550 0 769 0 m 432 1452 l 432 311 l 493 311 q 590 405 590 311 l 590 1313 q 566.5 1426.5 590 1401 q 471 1452 543 1452 l 432 1452"},"Ǳ":{"ha":1850,"x_min":78,"x_max":1816,"o":"m 550 0 l 78 0 l 78 1760 l 562 1760 q 848 1654.5 752 1760 q 944 1346 944 1549 l 944 522 q 856.5 136 944 272 q 550 0 769 0 m 1799 0 l 1799 324 l 1406 324 l 1816 1452 l 1816 1760 l 1081 1760 l 1081 1436 l 1445 1436 l 1042 320 l 1042 0 l 1799 0 m 432 1452 l 432 311 l 493 311 q 590 405 590 311 l 590 1313 q 566.5 1426.5 590 1401 q 471 1452 543 1452 l 432 1452"},"Ǆ":{"ha":1850,"x_min":78,"x_max":1894,"o":"m 550 0 l 78 0 l 78 1760 l 562 1760 q 848 1654.5 752 1760 q 944 1346 944 1549 l 944 522 q 856.5 136 944 272 q 550 0 769 0 m 1799 0 l 1799 324 l 1406 324 l 1816 1452 l 1816 1760 l 1081 1760 l 1081 1436 l 1445 1436 l 1042 320 l 1042 0 l 1799 0 m 1653 1851 l 1894 2254 l 1535 2254 l 1449 1969 l 1363 2254 l 1004 2254 l 1245 1851 l 1653 1851 m 432 1452 l 432 311 l 493 311 q 590 405 590 311 l 590 1313 q 566.5 1426.5 590 1401 q 471 1452 543 1452 l 432 1452"},"Ɖ":{"ha":1010,"x_min":3,"x_max":944,"o":"m 550 0 l 78 0 l 78 804 l 3 804 l 3 1036 l 78 1036 l 78 1760 l 562 1760 q 848 1654.5 752 1760 q 944 1346 944 1549 l 944 522 q 856.5 136 944 272 q 550 0 769 0 m 432 804 l 432 311 l 493 311 q 590 405 590 311 l 590 1313 q 566.5 1426.5 590 1401 q 471 1452 543 1452 l 432 1452 l 432 1036 l 519 1036 l 519 804 l 432 804"},"Ď":{"ha":1010,"x_min":59,"x_max":949,"o":"m 550 0 l 78 0 l 78 1760 l 562 1760 q 848 1654.5 752 1760 q 944 1346 944 1549 l 944 522 q 856.5 136 944 272 q 550 0 769 0 m 708 1851 l 949 2254 l 590 2254 l 504 1969 l 418 2254 l 59 2254 l 300 1851 l 708 1851 m 432 1452 l 432 311 l 493 311 q 590 405 590 311 l 590 1313 q 566.5 1426.5 590 1401 q 471 1452 543 1452 l 432 1452"},"Ḑ":{"ha":1010,"x_min":78,"x_max":944,"o":"m 550 0 l 78 0 l 78 1760 l 562 1760 q 848 1654.5 752 1760 q 944 1346 944 1549 l 944 522 q 856.5 136 944 272 q 550 0 769 0 m 432 1452 l 432 311 l 493 311 q 590 405 590 311 l 590 1313 q 566.5 1426.5 590 1401 q 471 1452 543 1452 l 432 1452 m 577 -643 l 679 -398 l 679 -109 l 305 -109 l 305 -407 l 432 -407 l 366 -643 l 577 -643"},"Ḓ":{"ha":1010,"x_min":60,"x_max":950,"o":"m 550 0 l 78 0 l 78 1760 l 562 1760 q 848 1654.5 752 1760 q 944 1346 944 1549 l 944 522 q 856.5 136 944 272 q 550 0 769 0 m 419 -512 l 505 -227 l 591 -512 l 950 -512 l 709 -109 l 301 -109 l 60 -512 l 419 -512 m 432 1452 l 432 311 l 493 311 q 590 405 590 311 l 590 1313 q 566.5 1426.5 590 1401 q 471 1452 543 1452 l 432 1452"},"Đ":{"ha":1010,"x_min":3,"x_max":944,"o":"m 550 0 l 78 0 l 78 804 l 3 804 l 3 1036 l 78 1036 l 78 1760 l 562 1760 q 848 1654.5 752 1760 q 944 1346 944 1549 l 944 522 q 856.5 136 944 272 q 550 0 769 0 m 432 804 l 432 311 l 493 311 q 590 405 590 311 l 590 1313 q 566.5 1426.5 590 1401 q 471 1452 543 1452 l 432 1452 l 432 1036 l 519 1036 l 519 804 l 432 804"},"Ḋ":{"ha":1010,"x_min":78,"x_max":944,"o":"m 550 0 l 78 0 l 78 1760 l 562 1760 q 848 1654.5 752 1760 q 944 1346 944 1549 l 944 522 q 856.5 136 944 272 q 550 0 769 0 m 432 1452 l 432 311 l 493 311 q 590 405 590 311 l 590 1313 q 566.5 1426.5 590 1401 q 471 1452 543 1452 l 432 1452 m 683 1852 l 683 2150 l 325 2150 l 325 1852 l 683 1852"},"Ḍ":{"ha":1010,"x_min":78,"x_max":944,"o":"m 550 0 l 78 0 l 78 1760 l 562 1760 q 848 1654.5 752 1760 q 944 1346 944 1549 l 944 522 q 856.5 136 944 272 q 550 0 769 0 m 432 1452 l 432 311 l 493 311 q 590 405 590 311 l 590 1313 q 566.5 1426.5 590 1401 q 471 1452 543 1452 l 432 1452 m 684 -417 l 684 -119 l 326 -119 l 326 -417 l 684 -417"},"Δ":{"ha":1103,"x_min":30,"x_max":1073,"o":"m 1073 0 l 30 0 l 299 1760 l 796 1760 l 1073 0 m 515 1560 l 359 225 l 668 225 l 531 1560 l 515 1560"},"Ɗ":{"ha":1359,"x_min":5,"x_max":1293,"o":"m 899 0 l 427 0 l 427 1452 q 312 1312 312 1452 l 312 1252 l 5 1252 l 5 1312 q 110 1634.5 5 1509 q 427 1760 215 1760 l 911 1760 q 1197 1654.5 1101 1760 q 1293 1346 1293 1549 l 1293 522 q 1205.5 136 1293 272 q 899 0 1118 0 m 781 1452 l 781 311 l 842 311 q 939 405 939 311 l 939 1313 q 915.5 1426.5 939 1401 q 820 1452 892 1452 l 781 1452"},"Ḏ":{"ha":1010,"x_min":78,"x_max":944,"o":"m 550 0 l 78 0 l 78 1760 l 562 1760 q 848 1654.5 752 1760 q 944 1346 944 1549 l 944 522 q 856.5 136 944 272 q 550 0 769 0 m 432 1452 l 432 311 l 493 311 q 590 405 590 311 l 590 1313 q 566.5 1426.5 590 1401 q 471 1452 543 1452 l 432 1452 m 830 -272 l 830 -119 l 180 -119 l 180 -272 l 830 -272"},"ǲ":{"ha":1800,"x_min":78,"x_max":1786,"o":"m 550 0 l 78 0 l 78 1760 l 562 1760 q 848 1654.5 752 1760 q 944 1346 944 1549 l 944 522 q 856.5 136 944 272 q 550 0 769 0 m 1786 0 l 1786 268 l 1430 268 l 1783 1256 l 1783 1500 l 1056 1500 l 1056 1216 l 1412 1216 l 1038 219 l 1038 0 l 1786 0 m 432 1452 l 432 311 l 493 311 q 590 405 590 311 l 590 1313 q 566.5 1426.5 590 1401 q 471 1452 543 1452 l 432 1452"},"ǅ":{"ha":1800,"x_min":78,"x_max":1891,"o":"m 550 0 l 78 0 l 78 1760 l 562 1760 q 848 1654.5 752 1760 q 944 1346 944 1549 l 944 522 q 856.5 136 944 272 q 550 0 769 0 m 1786 0 l 1786 268 l 1430 268 l 1783 1256 l 1783 1500 l 1056 1500 l 1056 1216 l 1412 1216 l 1038 219 l 1038 0 l 1786 0 m 1650 1591 l 1891 1994 l 1532 1994 l 1446 1709 l 1360 1994 l 1001 1994 l 1242 1591 l 1650 1591 m 432 1452 l 432 311 l 493 311 q 590 405 590 311 l 590 1313 q 566.5 1426.5 590 1401 q 471 1452 543 1452 l 432 1452"},"E":{"ha":843,"x_min":78,"x_max":805,"o":"m 805 0 l 78 0 l 78 1760 l 782 1760 l 782 1420 l 436 1420 l 436 1077 l 768 1077 l 768 746 l 436 746 l 436 343 l 805 343 l 805 0"},"É":{"ha":843,"x_min":78,"x_max":805,"o":"m 805 0 l 78 0 l 78 1760 l 782 1760 l 782 1420 l 436 1420 l 436 1077 l 768 1077 l 768 746 l 436 746 l 436 343 l 805 343 l 805 0 m 681 1907 l 681 2254 l 206 2036 l 206 1813 l 681 1907"},"Ĕ":{"ha":843,"x_min":55,"x_max":842,"o":"m 805 0 l 78 0 l 78 1760 l 782 1760 l 782 1420 l 436 1420 l 436 1077 l 768 1077 l 768 746 l 436 746 l 436 343 l 805 343 l 805 0 m 447 1852 q 734.5 1927.5 627 1852 q 842 2170 842 2003 q 841.5 2185 842 2175 q 840 2205 841 2195 l 584 2205 q 555 2118.5 584 2148 q 449 2089 526 2089 q 343 2118.5 372 2089 q 314 2205 314 2148 l 58 2205 q 55 2163 55 2184 q 163.5 1926 55 2000 q 447 1852 272 1852"},"Ě":{"ha":843,"x_min":-1,"x_max":889,"o":"m 805 0 l 78 0 l 78 1760 l 782 1760 l 782 1420 l 436 1420 l 436 1077 l 768 1077 l 768 746 l 436 746 l 436 343 l 805 343 l 805 0 m 648 1851 l 889 2254 l 530 2254 l 444 1969 l 358 2254 l -1 2254 l 240 1851 l 648 1851"},"Ȩ":{"ha":843,"x_min":78,"x_max":805,"o":"m 805 0 l 78 0 l 78 1760 l 782 1760 l 782 1420 l 436 1420 l 436 1077 l 768 1077 l 768 746 l 436 746 l 436 343 l 805 343 l 805 0 m 405 -631 q 632 -560.5 561 -631 q 703 -387 703 -490 q 649.5 -189.5 703 -294 q 499 0 596 -85 l 338 0 q 414.5 -145 387 -73 q 442 -273 442 -217 q 408.5 -364.5 442 -338 q 325 -391 375 -391 q 268 -384.5 298 -391 q 207 -368 238 -378 l 207 -591 q 405 -631 302 -631"},"Ḝ":{"ha":843,"x_min":42,"x_max":829,"o":"m 805 0 l 78 0 l 78 1760 l 782 1760 l 782 1420 l 436 1420 l 436 1077 l 768 1077 l 768 746 l 436 746 l 436 343 l 805 343 l 805 0 m 434 1852 q 721.5 1927.5 614 1852 q 829 2170 829 2003 q 828.5 2185 829 2175 q 827 2205 828 2195 l 571 2205 q 542 2118.5 571 2148 q 436 2089 513 2089 q 330 2118.5 359 2089 q 301 2205 301 2148 l 45 2205 q 42 2163 42 2184 q 150.5 1926 42 2000 q 434 1852 259 1852 m 405 -631 q 632 -560.5 561 -631 q 703 -387 703 -490 q 649.5 -189.5 703 -294 q 499 0 596 -85 l 338 0 q 414.5 -145 387 -73 q 442 -273 442 -217 q 408.5 -364.5 442 -338 q 325 -391 375 -391 q 268 -384.5 298 -391 q 207 -368 238 -378 l 207 -591 q 405 -631 302 -631"},"Ê":{"ha":843,"x_min":-1,"x_max":889,"o":"m 805 0 l 78 0 l 78 1760 l 782 1760 l 782 1420 l 436 1420 l 436 1077 l 768 1077 l 768 746 l 436 746 l 436 343 l 805 343 l 805 0 m 358 1851 l 444 2136 l 530 1851 l 889 1851 l 648 2254 l 240 2254 l -1 1851 l 358 1851"},"Ế":{"ha":843,"x_min":51,"x_max":1145,"o":"m 805 0 l 78 0 l 78 1760 l 782 1760 l 782 1420 l 436 1420 l 436 1077 l 768 1077 l 768 746 l 436 746 l 436 343 l 805 343 l 805 0 m 336 1839 l 435 1974 l 534 1839 l 819 1839 l 582 2093 l 288 2093 l 51 1839 l 336 1839 m 957 2000 l 1145 2204 l 838 2204 l 724 2000 l 957 2000"},"Ḙ":{"ha":843,"x_min":-3,"x_max":887,"o":"m 805 0 l 78 0 l 78 1760 l 782 1760 l 782 1420 l 436 1420 l 436 1077 l 768 1077 l 768 746 l 436 746 l 436 343 l 805 343 l 805 0 m 356 -512 l 442 -227 l 528 -512 l 887 -512 l 646 -109 l 238 -109 l -3 -512 l 356 -512"},"Ệ":{"ha":843,"x_min":-10,"x_max":880,"o":"m 805 0 l 78 0 l 78 1760 l 782 1760 l 782 1420 l 436 1420 l 436 1077 l 768 1077 l 768 746 l 436 746 l 436 343 l 805 343 l 805 0 m 349 1861 l 435 2076 l 521 1861 l 880 1861 l 639 2194 l 231 2194 l -10 1861 l 349 1861 m 621 -417 l 621 -119 l 263 -119 l 263 -417 l 621 -417"},"Ề":{"ha":843,"x_min":51,"x_max":1024,"o":"m 805 0 l 78 0 l 78 1760 l 782 1760 l 782 1420 l 436 1420 l 436 1077 l 768 1077 l 768 746 l 436 746 l 436 343 l 805 343 l 805 0 m 336 1839 l 435 1974 l 534 1839 l 819 1839 l 582 2093 l 288 2093 l 51 1839 l 336 1839 m 1024 2000 l 910 2204 l 603 2204 l 791 2000 l 1024 2000"},"Ể":{"ha":843,"x_min":51,"x_max":974,"o":"m 805 0 l 78 0 l 78 1760 l 782 1760 l 782 1420 l 436 1420 l 436 1077 l 768 1077 l 768 746 l 436 746 l 436 343 l 805 343 l 805 0 m 336 1839 l 435 1974 l 534 1839 l 819 1839 l 582 2093 l 288 2093 l 51 1839 l 336 1839 m 805 1959 q 925.5 2027 877 1982 q 974 2151 974 2072 q 930 2260 974 2221 q 809 2299 886 2299 q 695 2278 752 2299 l 695 2166 q 751 2176 723 2176 q 814 2117 814 2176 q 793.5 2067.5 814 2086 q 739 2036 773 2049 l 805 1959"},"Ễ":{"ha":843,"x_min":51,"x_max":819,"o":"m 805 0 l 78 0 l 78 1760 l 782 1760 l 782 1420 l 436 1420 l 436 1077 l 768 1077 l 768 746 l 436 746 l 436 343 l 805 343 l 805 0 m 336 1839 l 435 1974 l 534 1839 l 819 1839 l 582 2093 l 288 2093 l 51 1839 l 336 1839 m 555 2142 q 677 2197.5 640 2142 q 742 2323 714 2253 l 617 2363 q 533 2307 583 2307 q 456 2324 493 2307 q 380 2358 419 2341 q 294 2375 341 2375 q 183 2328.5 219 2375 q 121 2217 147 2282 l 232 2159 q 271 2199 250 2188 q 316 2210 292 2210 q 393.5 2193 356 2210 q 470.5 2159 431 2176 q 555 2142 510 2142"},"Ȅ":{"ha":843,"x_min":-42,"x_max":805,"o":"m 805 0 l 78 0 l 78 1760 l 782 1760 l 782 1420 l 436 1420 l 436 1077 l 768 1077 l 768 746 l 436 746 l 436 343 l 805 343 l 805 0 m 413 1904 l 192 2383 l -42 2275 l 247 1846 l 413 1904 m 715 1904 l 531 2383 l 301 2275 l 549 1846 l 715 1904"},"Ë":{"ha":843,"x_min":16,"x_max":858,"o":"m 805 0 l 78 0 l 78 1760 l 782 1760 l 782 1420 l 436 1420 l 436 1077 l 768 1077 l 768 746 l 436 746 l 436 343 l 805 343 l 805 0 m 858 1859 l 858 2157 l 500 2157 l 500 1859 l 858 1859 m 374 1859 l 374 2157 l 16 2157 l 16 1859 l 374 1859"},"Ė":{"ha":843,"x_min":78,"x_max":805,"o":"m 805 0 l 78 0 l 78 1760 l 782 1760 l 782 1420 l 436 1420 l 436 1077 l 768 1077 l 768 746 l 436 746 l 436 343 l 805 343 l 805 0 m 623 1852 l 623 2150 l 265 2150 l 265 1852 l 623 1852"},"Ẹ":{"ha":843,"x_min":78,"x_max":805,"o":"m 805 0 l 78 0 l 78 1760 l 782 1760 l 782 1420 l 436 1420 l 436 1077 l 768 1077 l 768 746 l 436 746 l 436 343 l 805 343 l 805 0 m 621 -417 l 621 -119 l 263 -119 l 263 -417 l 621 -417"},"È":{"ha":843,"x_min":78,"x_max":805,"o":"m 805 0 l 78 0 l 78 1760 l 782 1760 l 782 1420 l 436 1420 l 436 1077 l 768 1077 l 768 746 l 436 746 l 436 343 l 805 343 l 805 0 m 681 2036 l 206 2254 l 206 1907 l 681 1813 l 681 2036"},"Ẻ":{"ha":843,"x_min":78,"x_max":805,"o":"m 805 0 l 78 0 l 78 1760 l 782 1760 l 782 1420 l 436 1420 l 436 1077 l 768 1077 l 768 746 l 436 746 l 436 343 l 805 343 l 805 0 m 406 1837 q 600 1945.5 522 1873 q 678 2145 678 2018 q 607.5 2320.5 678 2258 q 412 2383 537 2383 q 229 2350 317 2383 l 229 2170 q 319 2186 272 2186 q 420 2091 420 2186 q 387 2011 420 2041 q 300 1961 354 1981 l 406 1837"},"Ȇ":{"ha":843,"x_min":70,"x_max":817,"o":"m 805 0 l 78 0 l 78 1760 l 782 1760 l 782 1420 l 436 1420 l 436 1077 l 768 1077 l 768 746 l 436 746 l 436 343 l 805 343 l 805 0 m 309 1868 q 347.5 1969 309 1936 q 444 2002 386 2002 q 541 1969 503 2002 q 579 1868 579 1936 l 815 1868 q 816.5 1887.5 816 1878 q 817 1902 817 1897 q 719.5 2144.5 817 2069 q 442 2220 622 2220 q 168.5 2146 267 2220 q 70 1909 70 2072 q 73 1868 70 1888 l 309 1868"},"Ē":{"ha":843,"x_min":78,"x_max":805,"o":"m 805 0 l 78 0 l 78 1760 l 782 1760 l 782 1420 l 436 1420 l 436 1077 l 768 1077 l 768 746 l 436 746 l 436 343 l 805 343 l 805 0 m 746 1879 l 746 2032 l 96 2032 l 96 1879 l 746 1879"},"Ḗ":{"ha":843,"x_min":78,"x_max":805,"o":"m 805 0 l 78 0 l 78 1760 l 782 1760 l 782 1420 l 436 1420 l 436 1077 l 768 1077 l 768 746 l 436 746 l 436 343 l 805 343 l 805 0 m 679 2094 l 679 2381 l 204 2213 l 204 2020 l 679 2094 m 760 1819 l 760 1972 l 110 1972 l 110 1819 l 760 1819"},"Ḕ":{"ha":843,"x_min":78,"x_max":805,"o":"m 805 0 l 78 0 l 78 1760 l 782 1760 l 782 1420 l 436 1420 l 436 1077 l 768 1077 l 768 746 l 436 746 l 436 343 l 805 343 l 805 0 m 679 2212 l 204 2380 l 204 2093 l 679 2019 l 679 2212 m 760 1819 l 760 1972 l 110 1972 l 110 1819 l 760 1819"},"Ŋ":{"ha":1006,"x_min":78,"x_max":942,"o":"m 447 -488 l 447 -186 q 577 -31 577 -186 l 577 105 l 422 880 l 422 0 l 78 0 l 78 1760 l 440 1760 l 602 917 l 602 1760 l 942 1760 l 942 -8 q 812.5 -367 942 -246 q 447 -488 683 -488"},"Ę":{"ha":843,"x_min":78,"x_max":805,"o":"m 805 0 l 78 0 l 78 1760 l 782 1760 l 782 1420 l 436 1420 l 436 1077 l 768 1077 l 768 746 l 436 746 l 436 343 l 805 343 l 805 0 m 462 -631 q 660 -591 565 -631 l 660 -368 q 544 -391 593 -391 q 429 -279 429 -391 q 481 -127 429 -196 q 589 0 533 -58 l 378 0 q 114 -330 114 -148 q 161.5 -491.5 114 -424 q 288 -595 209 -559 q 462 -631 367 -631"},"Ɛ":{"ha":1012,"x_min":39,"x_max":961,"o":"m 516 -20 q 149.5 123 260 -20 q 39 530 39 266 q 50 719 39 640 q 97 853.5 61 798 q 208 945 133 909 q 78.5 1066 114 979 q 43 1295 43 1153 q 493 1763 43 1763 q 838 1650 726 1763 q 950 1295 950 1537 l 950 1233 l 586 1233 l 586 1286 q 574 1394.5 586 1349 q 503 1440 562 1440 q 405 1291 405 1440 q 459 1147 405 1191 q 598 1103 513 1103 l 662 1103 l 662 787 l 558 787 q 439 720 470 787 q 408 562 408 653 l 408 530 q 412.5 422.5 408 474 q 438 338.5 417 371 q 506 306 459 306 q 585.5 354.5 571 306 q 600 473 600 403 l 600 658 l 961 658 l 961 474 q 855 103 961 226 q 516 -20 749 -20"},"Ǝ":{"ha":843,"x_min":38,"x_max":765,"o":"m 765 1760 l 765 0 l 38 0 l 38 343 l 407 343 l 407 746 l 75 746 l 75 1077 l 407 1077 l 407 1420 l 61 1420 l 61 1760 l 765 1760"},"Ʃ":{"ha":836,"x_min":62,"x_max":795,"o":"m 795 0 l 62 0 l 62 268 l 369 882 l 62 1455 l 62 1760 l 779 1760 l 779 1420 l 438 1420 l 702 926 l 702 850 l 449 343 l 795 343 l 795 0"},"Ɇ":{"ha":843,"x_min":78,"x_max":809,"o":"m 149 0 l 78 0 l 78 1760 l 607 1760 l 669 2000 l 809 2000 l 747 1760 l 782 1760 l 782 1420 l 436 1420 l 436 1077 l 768 1077 l 768 746 l 436 746 l 436 343 l 805 343 l 805 0 l 289 0 l 241 -186 l 101 -186 l 149 0"},"Ð":{"ha":1010,"x_min":3,"x_max":944,"o":"m 550 0 l 78 0 l 78 804 l 3 804 l 3 1036 l 78 1036 l 78 1760 l 562 1760 q 848 1654.5 752 1760 q 944 1346 944 1549 l 944 522 q 856.5 136 944 272 q 550 0 769 0 m 432 804 l 432 311 l 493 311 q 590 405 590 311 l 590 1313 q 566.5 1426.5 590 1401 q 471 1452 543 1452 l 432 1452 l 432 1036 l 519 1036 l 519 804 l 432 804"},"Ẽ":{"ha":843,"x_min":31,"x_max":857,"o":"m 805 0 l 78 0 l 78 1760 l 782 1760 l 782 1420 l 436 1420 l 436 1077 l 768 1077 l 768 746 l 436 746 l 436 343 l 805 343 l 805 0 m 609 1871 q 729.5 1908 684 1871 q 804 2005 775 1945 q 857 2132 833 2065 l 691 2186 q 648 2128 671 2145 q 598 2111 625 2111 q 512.5 2132 559 2111 q 409 2174 466 2153 q 278 2195 352 2195 q 161 2164.5 207 2195 q 85.5 2083.5 115 2134 q 31 1972 56 2033 l 179 1894 q 222 1947 199 1932 q 271 1962 245 1962 q 365.5 1939.5 317 1962 q 473 1894 414 1917 q 609 1871 532 1871"},"Ḛ":{"ha":843,"x_min":29,"x_max":855,"o":"m 805 0 l 78 0 l 78 1760 l 782 1760 l 782 1420 l 436 1420 l 436 1077 l 768 1077 l 768 746 l 436 746 l 436 343 l 805 343 l 805 0 m 607 -435 q 727.5 -398 682 -435 q 802 -301 773 -361 q 855 -174 831 -241 l 689 -120 q 646 -178 669 -161 q 596 -195 623 -195 q 509.5 -174 557 -195 q 404.5 -132 462 -153 q 276 -111 347 -111 q 159 -141.5 205 -111 q 83.5 -222.5 113 -172 q 29 -334 54 -273 l 177 -412 q 220 -359 197 -374 q 269 -344 243 -344 q 360 -366.5 310 -344 q 471.5 -412 410 -389 q 607 -435 533 -435"},"Ʒ":{"ha":1012,"x_min":43,"x_max":961,"o":"m 486 -14 q 149 107.5 255 -14 q 43 479 43 229 l 43 658 l 402 658 l 402 479 q 422.5 354.5 402 399 q 504 310 443 310 q 566.5 341 548 310 q 588.5 423.5 585 372 q 592 536 592 475 l 592 579 q 445 803 592 803 l 329 803 l 329 1058 l 566 1420 l 88 1420 l 88 1760 l 959 1760 l 959 1450 l 697 1050 q 898.5 867 836 998 q 961 536 961 736 q 848 125.5 961 265 q 486 -14 735 -14"},"Ǯ":{"ha":1012,"x_min":43,"x_max":971,"o":"m 486 -14 q 149 107.5 255 -14 q 43 479 43 229 l 43 658 l 402 658 l 402 479 q 422.5 354.5 402 399 q 504 310 443 310 q 566.5 341 548 310 q 588.5 423.5 585 372 q 592 536 592 475 l 592 579 q 445 803 592 803 l 329 803 l 329 1058 l 566 1420 l 88 1420 l 88 1760 l 959 1760 l 959 1450 l 697 1050 q 898.5 867 836 998 q 961 536 961 736 q 848 125.5 961 265 q 486 -14 735 -14 m 322 1861 l 730 1861 l 971 2194 l 612 2194 l 526 1979 l 440 2194 l 81 2194 l 322 1861"},"Ƹ":{"ha":1012,"x_min":51,"x_max":969,"o":"m 526 -14 q 164 125.5 277 -14 q 51 536 51 265 q 113.5 867 51 736 q 315 1050 176 998 l 53 1450 l 53 1760 l 924 1760 l 924 1420 l 446 1420 l 683 1058 l 683 803 l 567 803 q 420 579 420 803 l 420 536 q 423.5 423.5 420 475 q 445.5 341 427 372 q 508 310 464 310 q 590 354.5 570 310 q 610 479 610 399 l 610 658 l 969 658 l 969 479 q 863 107.5 969 229 q 526 -14 757 -14"},"F":{"ha":817,"x_min":78,"x_max":782,"o":"m 432 0 l 78 0 l 78 1760 l 782 1760 l 782 1417 l 432 1417 l 432 1137 l 764 1137 l 764 798 l 432 798 l 432 0"},"Ḟ":{"ha":817,"x_min":78,"x_max":782,"o":"m 432 0 l 78 0 l 78 1760 l 782 1760 l 782 1417 l 432 1417 l 432 1137 l 764 1137 l 764 798 l 432 798 l 432 0 m 631 1852 l 631 2150 l 273 2150 l 273 1852 l 631 1852"},"Ƒ":{"ha":817,"x_min":-22,"x_max":782,"o":"m -22 -196 l -22 120 q 54.5 151 31 120 q 78 252 78 182 l 78 1760 l 782 1760 l 782 1417 l 432 1417 l 432 1137 l 764 1137 l 764 798 l 432 798 l 432 252 q 376 20 432 121 q 218 -138.5 320 -81 q -22 -196 116 -196"},"G":{"ha":993,"x_min":64,"x_max":936,"o":"m 441 -16 q 64 524 64 -16 l 64 1283 q 496 1776 64 1776 q 769 1704.5 674 1776 q 900 1496 864 1633 q 936 1162 936 1359 l 592 1162 l 592 1318 q 576.5 1413.5 592 1375 q 512 1452 561 1452 q 431.5 1411 451 1452 q 412 1321 412 1370 l 412 468 q 430.5 352.5 412 397 q 503 308 449 308 q 577.5 352.5 559 308 q 596 470 596 397 l 596 721 l 502 721 l 502 1025 l 932 1025 l 932 0 l 791 0 l 731 148 q 441 -16 639 -16"},"Ǵ":{"ha":993,"x_min":64,"x_max":936,"o":"m 441 -16 q 64 524 64 -16 l 64 1283 q 496 1776 64 1776 q 769 1704.5 674 1776 q 900 1496 864 1633 q 936 1162 936 1359 l 592 1162 l 592 1318 q 576.5 1413.5 592 1375 q 512 1452 561 1452 q 431.5 1411 451 1452 q 412 1321 412 1370 l 412 468 q 430.5 352.5 412 397 q 503 308 449 308 q 577.5 352.5 559 308 q 596 470 596 397 l 596 721 l 502 721 l 502 1025 l 932 1025 l 932 0 l 791 0 l 731 148 q 441 -16 639 -16 m 732 1907 l 732 2254 l 257 2036 l 257 1813 l 732 1907"},"Ɣ":{"ha":961,"x_min":23,"x_max":937,"o":"m 480 -196 q 273 -146 358 -196 q 143.5 -8.5 188 -96 q 99 189 99 79 q 129 401 99 285 q 201 638 159 517 l 273 846 l 23 1761 l 361 1761 l 480 1182 l 599 1761 l 937 1761 l 689 855 l 770 638 q 838 401.5 815 518 q 861 189 861 285 q 816.5 -8.5 861 79 q 687 -146 772 -96 q 480 -196 602 -196 m 480 102 q 535.5 128.5 517 102 q 554 193 554 155 q 536 331 554 263 q 480 506 518 399 q 424 331 442 399 q 406 193 406 263 q 424.5 128.5 406 155 q 480 102 443 102"},"Ğ":{"ha":993,"x_min":64,"x_max":936,"o":"m 441 -16 q 64 524 64 -16 l 64 1283 q 496 1776 64 1776 q 769 1704.5 674 1776 q 900 1496 864 1633 q 936 1162 936 1359 l 592 1162 l 592 1318 q 576.5 1413.5 592 1375 q 512 1452 561 1452 q 431.5 1411 451 1452 q 412 1321 412 1370 l 412 468 q 430.5 352.5 412 397 q 503 308 449 308 q 577.5 352.5 559 308 q 596 470 596 397 l 596 721 l 502 721 l 502 1025 l 932 1025 l 932 0 l 791 0 l 731 148 q 441 -16 639 -16 m 498 1852 q 785.5 1927.5 678 1852 q 893 2170 893 2003 q 892.5 2185 893 2175 q 891 2205 892 2195 l 635 2205 q 606 2118.5 635 2148 q 500 2089 577 2089 q 394 2118.5 423 2089 q 365 2205 365 2148 l 109 2205 q 106 2163 106 2184 q 214.5 1926 106 2000 q 498 1852 323 1852"},"Ǧ":{"ha":993,"x_min":50,"x_max":940,"o":"m 441 -16 q 64 524 64 -16 l 64 1283 q 496 1776 64 1776 q 769 1704.5 674 1776 q 900 1496 864 1633 q 936 1162 936 1359 l 592 1162 l 592 1318 q 576.5 1413.5 592 1375 q 512 1452 561 1452 q 431.5 1411 451 1452 q 412 1321 412 1370 l 412 468 q 430.5 352.5 412 397 q 503 308 449 308 q 577.5 352.5 559 308 q 596 470 596 397 l 596 721 l 502 721 l 502 1025 l 932 1025 l 932 0 l 791 0 l 731 148 q 441 -16 639 -16 m 699 1851 l 940 2254 l 581 2254 l 495 1969 l 409 2254 l 50 2254 l 291 1851 l 699 1851"},"Ĝ":{"ha":993,"x_min":50,"x_max":940,"o":"m 441 -16 q 64 524 64 -16 l 64 1283 q 496 1776 64 1776 q 769 1704.5 674 1776 q 900 1496 864 1633 q 936 1162 936 1359 l 592 1162 l 592 1318 q 576.5 1413.5 592 1375 q 512 1452 561 1452 q 431.5 1411 451 1452 q 412 1321 412 1370 l 412 468 q 430.5 352.5 412 397 q 503 308 449 308 q 577.5 352.5 559 308 q 596 470 596 397 l 596 721 l 502 721 l 502 1025 l 932 1025 l 932 0 l 791 0 l 731 148 q 441 -16 639 -16 m 409 1851 l 495 2136 l 581 1851 l 940 1851 l 699 2254 l 291 2254 l 50 1851 l 409 1851"},"Ģ":{"ha":993,"x_min":64,"x_max":936,"o":"m 441 -16 q 64 524 64 -16 l 64 1283 q 496 1776 64 1776 q 769 1704.5 674 1776 q 900 1496 864 1633 q 936 1162 936 1359 l 592 1162 l 592 1318 q 576.5 1413.5 592 1375 q 512 1452 561 1452 q 431.5 1411 451 1452 q 412 1321 412 1370 l 412 468 q 430.5 352.5 412 397 q 503 308 449 308 q 577.5 352.5 559 308 q 596 470 596 397 l 596 721 l 502 721 l 502 1025 l 932 1025 l 932 0 l 791 0 l 731 148 q 441 -16 639 -16 m 577 -643 l 679 -398 l 679 -109 l 305 -109 l 305 -407 l 432 -407 l 366 -643 l 577 -643"},"Ġ":{"ha":993,"x_min":64,"x_max":936,"o":"m 441 -16 q 64 524 64 -16 l 64 1283 q 496 1776 64 1776 q 769 1704.5 674 1776 q 900 1496 864 1633 q 936 1162 936 1359 l 592 1162 l 592 1318 q 576.5 1413.5 592 1375 q 512 1452 561 1452 q 431.5 1411 451 1452 q 412 1321 412 1370 l 412 468 q 430.5 352.5 412 397 q 503 308 449 308 q 577.5 352.5 559 308 q 596 470 596 397 l 596 721 l 502 721 l 502 1025 l 932 1025 l 932 0 l 791 0 l 731 148 q 441 -16 639 -16 m 674 1852 l 674 2150 l 316 2150 l 316 1852 l 674 1852"},"ẞ":{"ha":1019,"x_min":58,"x_max":969,"o":"m 408 0 l 58 0 l 58 1403 q 170.5 1684 58 1591 q 491 1777 283 1777 q 750.5 1738 640 1777 q 934 1647 861 1699 l 934 1404 l 805 1032 q 936 867 903 988 q 969 538 969 746 q 935 236.5 969 356 q 816.5 58.5 901 117 q 582 0 732 0 l 478 0 l 478 281 q 621 399 621 281 l 621 676 q 588.5 790 621 757 q 474 823 556 823 l 474 1043 l 617 1451 q 514 1470 568 1470 q 408 1358 408 1470 l 408 0"},"Ɠ":{"ha":1054,"x_min":64,"x_max":1064,"o":"m 441 -16 q 64 524 64 -16 l 64 1283 q 167 1651.5 64 1527 q 456 1776 270 1776 q 676 1717 590 1776 q 816.5 1923 716 1846 q 1064 2000 917 2000 l 1064 1684 q 961.5 1651.5 995 1684 q 928 1532 928 1619 l 928 1162 l 592 1162 l 592 1318 q 576.5 1413.5 592 1375 q 512 1452 561 1452 q 431.5 1411 451 1452 q 412 1321 412 1370 l 412 468 q 430.5 352.5 412 397 q 503 308 449 308 q 577.5 352.5 559 308 q 596 470 596 397 l 596 721 l 502 721 l 502 1025 l 932 1025 l 932 0 l 791 0 l 731 148 q 441 -16 639 -16"},"Ɂ":{"ha":1008,"x_min":48,"x_max":978,"o":"m 620 0 l 287 0 l 287 871 q 430.5 884 371 871 q 527.5 939 490 897 q 583 1066 565 981 q 601 1294 601 1151 q 584.5 1408 601 1359 q 508 1457 568 1457 q 445 1429.5 465 1457 q 419.5 1359.5 425 1402 q 414 1271 414 1317 l 414 1125 l 48 1125 l 48 1379 q 176.5 1678.5 48 1581 q 508 1776 305 1776 q 788.5 1712 686 1776 q 934.5 1525.5 891 1648 q 978 1226 978 1403 q 936.5 917 978 1053 q 815 703 895 781 q 620 625 735 625 l 620 0"},"Ḡ":{"ha":993,"x_min":64,"x_max":936,"o":"m 441 -16 q 64 524 64 -16 l 64 1283 q 496 1776 64 1776 q 769 1704.5 674 1776 q 900 1496 864 1633 q 936 1162 936 1359 l 592 1162 l 592 1318 q 576.5 1413.5 592 1375 q 512 1452 561 1452 q 431.5 1411 451 1452 q 412 1321 412 1370 l 412 468 q 430.5 352.5 412 397 q 503 308 449 308 q 577.5 352.5 559 308 q 596 470 596 397 l 596 721 l 502 721 l 502 1025 l 932 1025 l 932 0 l 791 0 l 731 148 q 441 -16 639 -16 m 820 1879 l 820 2032 l 170 2032 l 170 1879 l 820 1879"},"Ǥ":{"ha":993,"x_min":64,"x_max":1015,"o":"m 441 -16 q 64 524 64 -16 l 64 1283 q 496 1776 64 1776 q 769 1704.5 674 1776 q 900 1496 864 1633 q 936 1162 936 1359 l 592 1162 l 592 1318 q 576.5 1413.5 592 1375 q 512 1452 561 1452 q 431.5 1411 451 1452 q 412 1321 412 1370 l 412 468 q 430.5 352.5 412 397 q 503 308 449 308 q 569 339 549 308 q 594 423 589 370 l 499 423 l 499 655 l 596 655 l 596 721 l 502 721 l 502 1025 l 932 1025 l 932 655 l 1015 655 l 1015 423 l 932 423 l 932 0 l 791 0 l 731 148 q 441 -16 639 -16"},"H":{"ha":1022,"x_min":78,"x_max":944,"o":"m 428 0 l 78 0 l 78 1760 l 428 1760 l 428 1131 l 594 1131 l 594 1760 l 944 1760 l 944 0 l 594 0 l 594 798 l 428 798 l 428 0"},"Ħ":{"ha":1041,"x_min":-10,"x_max":1051,"o":"m 446 0 l 96 0 l 96 1342 l -10 1342 l -10 1562 l 96 1562 l 96 1760 l 446 1760 l 446 1562 l 612 1562 l 612 1760 l 962 1760 l 962 1562 l 1051 1562 l 1051 1342 l 962 1342 l 962 0 l 612 0 l 612 798 l 446 798 l 446 0 m 446 1342 l 446 1131 l 612 1131 l 612 1342 l 446 1342"},"Ḫ":{"ha":1022,"x_min":78,"x_max":944,"o":"m 428 0 l 78 0 l 78 1760 l 428 1760 l 428 1131 l 594 1131 l 594 1760 l 944 1760 l 944 0 l 594 0 l 594 798 l 428 798 l 428 0 m 509 -416 q 796.5 -340.5 689 -416 q 904 -98 904 -265 q 902 -64 904 -88 l 646 -64 q 617 -149.5 646 -120 q 511 -179 588 -179 q 405 -149.5 434 -179 q 376 -64 376 -120 l 120 -64 q 117 -105 117 -83 q 225.5 -342 117 -268 q 509 -416 334 -416"},"Ȟ":{"ha":1022,"x_min":66,"x_max":956,"o":"m 428 0 l 78 0 l 78 1760 l 428 1760 l 428 1131 l 594 1131 l 594 1760 l 944 1760 l 944 0 l 594 0 l 594 798 l 428 798 l 428 0 m 715 1851 l 956 2254 l 597 2254 l 511 1969 l 425 2254 l 66 2254 l 307 1851 l 715 1851"},"Ḩ":{"ha":1022,"x_min":38,"x_max":944,"o":"m 428 0 l 78 0 l 78 1760 l 428 1760 l 428 1131 l 594 1131 l 594 1760 l 944 1760 l 944 0 l 594 0 l 594 798 l 428 798 l 428 0 m 236 -631 q 463 -560.5 392 -631 q 534 -387 534 -490 q 480.5 -189.5 534 -294 q 330 0 427 -85 l 169 0 q 245.5 -145 218 -73 q 273 -273 273 -217 q 239.5 -364.5 273 -338 q 156 -391 206 -391 q 99 -384.5 129 -391 q 38 -368 69 -378 l 38 -591 q 236 -631 133 -631"},"Ĥ":{"ha":1022,"x_min":66,"x_max":956,"o":"m 428 0 l 78 0 l 78 1760 l 428 1760 l 428 1131 l 594 1131 l 594 1760 l 944 1760 l 944 0 l 594 0 l 594 798 l 428 798 l 428 0 m 425 1851 l 511 2136 l 597 1851 l 956 1851 l 715 2254 l 307 2254 l 66 1851 l 425 1851"},"Ḧ":{"ha":1022,"x_min":78,"x_max":944,"o":"m 428 0 l 78 0 l 78 1760 l 428 1760 l 428 1131 l 594 1131 l 594 1760 l 944 1760 l 944 0 l 594 0 l 594 798 l 428 798 l 428 0 m 925 1859 l 925 2157 l 567 2157 l 567 1859 l 925 1859 m 441 1859 l 441 2157 l 83 2157 l 83 1859 l 441 1859"},"Ḣ":{"ha":1022,"x_min":78,"x_max":944,"o":"m 428 0 l 78 0 l 78 1760 l 428 1760 l 428 1131 l 594 1131 l 594 1760 l 944 1760 l 944 0 l 594 0 l 594 798 l 428 798 l 428 0 m 690 1852 l 690 2150 l 332 2150 l 332 1852 l 690 1852"},"Ḥ":{"ha":1022,"x_min":78,"x_max":944,"o":"m 428 0 l 78 0 l 78 1760 l 428 1760 l 428 1131 l 594 1131 l 594 1760 l 944 1760 l 944 0 l 594 0 l 594 798 l 428 798 l 428 0 m 689 -417 l 689 -119 l 331 -119 l 331 -417 l 689 -417"},"Ꜧ":{"ha":1022,"x_min":78,"x_max":944,"o":"m 514 -196 l 514 120 q 573 143.5 552 120 q 594 252 594 167 l 594 798 l 428 798 l 428 0 l 78 0 l 78 1760 l 428 1760 l 428 1131 l 594 1131 l 594 1760 l 944 1760 l 944 232 q 824.5 -87.5 944 21 q 514 -196 705 -196"},"Ɦ":{"ha":1371,"x_min":5,"x_max":1293,"o":"m 777 0 l 427 0 l 427 1464 q 340 1428 368 1464 q 312 1312 312 1392 l 312 1252 l 5 1252 l 5 1312 q 110 1634.5 5 1509 q 427 1760 215 1760 l 777 1760 l 777 1131 l 943 1131 l 943 1760 l 1293 1760 l 1293 0 l 943 0 l 943 798 l 777 798 l 777 0"},"Ɥ":{"ha":1022,"x_min":78,"x_max":944,"o":"m 944 0 l 594 0 l 594 798 l 78 798 l 78 1760 l 428 1760 l 428 1131 l 594 1131 l 594 1760 l 944 1760 l 944 0"},"I":{"ha":464,"x_min":62,"x_max":402,"o":"m 402 0 l 62 0 l 62 1760 l 402 1760 l 402 0"},"Ĳ":{"ha":1419,"x_min":62,"x_max":1362,"o":"m 932 -16 q 715 30 813 -16 q 559.5 166.5 617 76 q 502 389 502 257 l 502 830 l 850 830 l 850 410 q 868.5 336 850 364 q 928 308 887 308 q 1007 405 1007 308 l 1007 1760 l 1362 1760 l 1362 440 q 1307 197.5 1362 300 q 1155 39.5 1252 95 q 932 -16 1058 -16 m 402 0 l 402 1760 l 62 1760 l 62 0 l 402 0"},"Í":{"ha":464,"x_min":-6,"x_max":469,"o":"m 402 0 l 62 0 l 62 1760 l 402 1760 l 402 0 m 469 1907 l 469 2254 l -6 2036 l -6 1813 l 469 1907"},"Ĭ":{"ha":464,"x_min":-157,"x_max":630,"o":"m 402 0 l 62 0 l 62 1760 l 402 1760 l 402 0 m 235 1852 q 522.5 1927.5 415 1852 q 630 2170 630 2003 q 629.5 2185 630 2175 q 628 2205 629 2195 l 372 2205 q 343 2118.5 372 2148 q 237 2089 314 2089 q 131 2118.5 160 2089 q 102 2205 102 2148 l -154 2205 q -157 2163 -157 2184 q -48.5 1926 -157 2000 q 235 1852 60 1852"},"Ǐ":{"ha":464,"x_min":-213,"x_max":677,"o":"m 402 0 l 62 0 l 62 1760 l 402 1760 l 402 0 m 436 1851 l 677 2254 l 318 2254 l 232 1969 l 146 2254 l -213 2254 l 28 1851 l 436 1851"},"Î":{"ha":464,"x_min":-213,"x_max":677,"o":"m 402 0 l 62 0 l 62 1760 l 402 1760 l 402 0 m 146 1851 l 232 2136 l 318 1851 l 677 1851 l 436 2254 l 28 2254 l -213 1851 l 146 1851"},"Ȉ":{"ha":464,"x_min":-254,"x_max":503,"o":"m 402 0 l 62 0 l 62 1760 l 402 1760 l 402 0 m 201 1904 l -20 2383 l -254 2275 l 35 1846 l 201 1904 m 503 1904 l 319 2383 l 89 2275 l 337 1846 l 503 1904"},"Ï":{"ha":464,"x_min":-196,"x_max":646,"o":"m 402 0 l 62 0 l 62 1760 l 402 1760 l 402 0 m 646 1859 l 646 2157 l 288 2157 l 288 1859 l 646 1859 m 162 1859 l 162 2157 l -196 2157 l -196 1859 l 162 1859"},"Ḯ":{"ha":464,"x_min":-189,"x_max":653,"o":"m 402 0 l 62 0 l 62 1760 l 402 1760 l 402 0 m 470 2268 l 470 2555 l -5 2387 l -5 2194 l 470 2268 m 653 1859 l 653 2107 l 295 2107 l 295 1859 l 653 1859 m 169 1859 l 169 2107 l -189 2107 l -189 1859 l 169 1859"},"İ":{"ha":464,"x_min":53,"x_max":411,"o":"m 402 0 l 62 0 l 62 1760 l 402 1760 l 402 0 m 411 1852 l 411 2150 l 53 2150 l 53 1852 l 411 1852"},"Ị":{"ha":464,"x_min":53,"x_max":411,"o":"m 402 0 l 62 0 l 62 1760 l 402 1760 l 402 0 m 411 -417 l 411 -119 l 53 -119 l 53 -417 l 411 -417"},"Ì":{"ha":464,"x_min":-6,"x_max":469,"o":"m 402 0 l 62 0 l 62 1760 l 402 1760 l 402 0 m 469 2036 l -6 2254 l -6 1907 l 469 1813 l 469 2036"},"Ỉ":{"ha":464,"x_min":26,"x_max":475,"o":"m 402 0 l 62 0 l 62 1760 l 402 1760 l 402 0 m 203 1837 q 397 1945.5 319 1873 q 475 2145 475 2018 q 404.5 2320.5 475 2258 q 209 2383 334 2383 q 26 2350 114 2383 l 26 2170 q 116 2186 69 2186 q 217 2091 217 2186 q 184 2011 217 2041 q 97 1961 151 1981 l 203 1837"},"Ȋ":{"ha":464,"x_min":-142,"x_max":605,"o":"m 402 0 l 62 0 l 62 1760 l 402 1760 l 402 0 m 97 1868 q 135.5 1969 97 1936 q 232 2002 174 2002 q 329 1969 291 2002 q 367 1868 367 1936 l 603 1868 q 604.5 1887.5 604 1878 q 605 1902 605 1897 q 507.5 2144.5 605 2069 q 230 2220 410 2220 q -43.5 2146 55 2220 q -142 1909 -142 2072 q -139 1868 -142 1888 l 97 1868"},"Ī":{"ha":464,"x_min":-89,"x_max":561,"o":"m 402 0 l 62 0 l 62 1760 l 402 1760 l 402 0 m 561 1879 l 561 2032 l -89 2032 l -89 1879 l 561 1879"},"Į":{"ha":464,"x_min":-73,"x_max":473,"o":"m 402 0 l 62 0 l 62 1760 l 402 1760 l 402 0 m 275 -631 q 473 -591 378 -631 l 473 -368 q 357 -391 406 -391 q 242 -279 242 -391 q 294 -127 242 -196 q 402 0 346 -58 l 191 0 q -73 -330 -73 -148 q -25.5 -491.5 -73 -424 q 101 -595 22 -559 q 275 -631 180 -631"},"Ɩ":{"ha":464,"x_min":62,"x_max":482,"o":"m 482 300 l 482 -16 q 180 92.5 298 -16 q 62 412 62 201 l 62 1760 l 402 1760 l 402 432 q 423.5 323.5 402 347 q 482 300 445 300"},"ɪ":{"ha":616,"x_min":33,"x_max":583,"o":"m 583 0 l 33 0 l 33 273 l 134 273 l 134 1227 l 33 1227 l 33 1500 l 583 1500 l 583 1227 l 482 1227 l 482 273 l 583 273 l 583 0"},"Ɨ":{"ha":526,"x_min":5,"x_max":521,"o":"m 433 0 l 93 0 l 93 785 l 5 785 l 5 1017 l 93 1017 l 93 1760 l 433 1760 l 433 1017 l 521 1017 l 521 785 l 433 785 l 433 0"},"Ĩ":{"ha":464,"x_min":-181,"x_max":645,"o":"m 402 0 l 62 0 l 62 1760 l 402 1760 l 402 0 m 397 1873 q 517.5 1910 472 1873 q 592 2007 563 1947 q 645 2134 621 2067 l 479 2188 q 436 2130 459 2147 q 386 2113 413 2113 q 299.5 2134 347 2113 q 194.5 2176 252 2155 q 66 2197 137 2197 q -51 2166.5 -5 2197 q -126.5 2085.5 -97 2136 q -181 1974 -156 2035 l -33 1896 q 10 1949 -13 1934 q 59 1964 33 1964 q 150 1941.5 100 1964 q 261.5 1896 200 1919 q 397 1873 323 1873"},"Ḭ":{"ha":464,"x_min":-181,"x_max":645,"o":"m 402 0 l 62 0 l 62 1760 l 402 1760 l 402 0 m 397 -435 q 517.5 -398 472 -435 q 592 -301 563 -361 q 645 -174 621 -241 l 479 -120 q 436 -178 459 -161 q 386 -195 413 -195 q 299.5 -174 347 -195 q 194.5 -132 252 -153 q 66 -111 137 -111 q -51 -141.5 -5 -111 q -126.5 -222.5 -97 -172 q -181 -334 -156 -273 l -33 -412 q 10 -359 -13 -374 q 59 -344 33 -344 q 150 -366.5 100 -344 q 261.5 -412 200 -389 q 397 -435 323 -435"},"J":{"ha":955,"x_min":38,"x_max":898,"o":"m 468 -16 q 251 30 349 -16 q 95.5 166.5 153 76 q 38 389 38 257 l 38 830 l 386 830 l 386 410 q 404.5 336 386 364 q 464 308 423 308 q 543 405 543 308 l 543 1760 l 898 1760 l 898 440 q 843 197.5 898 300 q 691 39.5 788 95 q 468 -16 594 -16"},"Ĵ":{"ha":955,"x_min":38,"x_max":1166,"o":"m 468 -16 q 251 30 349 -16 q 95.5 166.5 153 76 q 38 389 38 257 l 38 830 l 386 830 l 386 410 q 404.5 336 386 364 q 464 308 423 308 q 543 405 543 308 l 543 1760 l 898 1760 l 898 440 q 843 197.5 898 300 q 691 39.5 788 95 q 468 -16 594 -16 m 635 1851 l 721 2136 l 807 1851 l 1166 1851 l 925 2254 l 517 2254 l 276 1851 l 635 1851"},"Ʝ":{"ha":975,"x_min":38,"x_max":985,"o":"m 468 -16 q 251 30 349 -16 q 95.5 166.5 153 76 q 38 389 38 257 l 38 564 q 162 943 38 798 q 543 1106 286 1088 l 543 1760 l 898 1760 l 898 1057 q 940 1042.5 918 1050 q 985 1026 962 1035 l 985 721 q 940 737.5 962 730 q 898 752 918 745 l 898 440 q 843 197.5 898 300 q 691 39.5 788 95 q 468 -16 594 -16 m 464 308 q 543 405 543 308 l 543 798 q 422 729 458 785 q 386 564 386 673 l 386 410 q 404.5 336 386 364 q 464 308 423 308"},"Ɉ":{"ha":975,"x_min":38,"x_max":984,"o":"m 468 -16 q 251 30 349 -16 q 95.5 166.5 153 76 q 38 389 38 257 l 38 830 l 386 830 l 386 410 q 404.5 336 386 364 q 464 308 423 308 q 543 405 543 308 l 543 1055 l 390 1055 l 390 1287 l 543 1287 l 543 1760 l 898 1760 l 898 1287 l 984 1287 l 984 1055 l 898 1055 l 898 440 q 843 197.5 898 300 q 691 39.5 788 95 q 468 -16 594 -16"},"K":{"ha":967,"x_min":78,"x_max":985,"o":"m 428 0 l 78 0 l 78 1760 l 426 1760 l 426 1055 l 590 1760 l 944 1760 l 747 954 l 985 0 l 620 0 l 428 852 l 428 0"},"Ḱ":{"ha":967,"x_min":78,"x_max":985,"o":"m 428 0 l 78 0 l 78 1760 l 426 1760 l 426 1055 l 590 1760 l 944 1760 l 747 954 l 985 0 l 620 0 l 428 852 l 428 0 m 749 1907 l 749 2254 l 274 2036 l 274 1813 l 749 1907"},"Ǩ":{"ha":967,"x_min":66,"x_max":985,"o":"m 428 0 l 78 0 l 78 1760 l 426 1760 l 426 1055 l 590 1760 l 944 1760 l 747 954 l 985 0 l 620 0 l 428 852 l 428 0 m 715 1851 l 956 2254 l 597 2254 l 511 1969 l 425 2254 l 66 2254 l 307 1851 l 715 1851"},"Ķ":{"ha":967,"x_min":78,"x_max":985,"o":"m 428 0 l 78 0 l 78 1760 l 426 1760 l 426 1055 l 590 1760 l 944 1760 l 747 954 l 985 0 l 620 0 l 428 852 l 428 0 m 595 -643 l 697 -398 l 697 -109 l 323 -109 l 323 -407 l 450 -407 l 384 -643 l 595 -643"},"Ḳ":{"ha":967,"x_min":78,"x_max":985,"o":"m 428 0 l 78 0 l 78 1760 l 426 1760 l 426 1055 l 590 1760 l 944 1760 l 747 954 l 985 0 l 620 0 l 428 852 l 428 0 m 702 -417 l 702 -119 l 344 -119 l 344 -417 l 702 -417"},"Ƙ":{"ha":967,"x_min":78,"x_max":985,"o":"m 428 0 l 78 0 l 78 1760 l 426 1760 l 426 1055 l 590 1760 l 944 1760 l 747 954 l 985 0 l 620 0 l 428 852 l 428 0"},"Ḵ":{"ha":967,"x_min":78,"x_max":985,"o":"m 428 0 l 78 0 l 78 1760 l 426 1760 l 426 1055 l 590 1760 l 944 1760 l 747 954 l 985 0 l 620 0 l 428 852 l 428 0 m 848 -272 l 848 -119 l 198 -119 l 198 -272 l 848 -272"},"Ꝁ":{"ha":982,"x_min":0,"x_max":1000,"o":"m 443 0 l 93 0 l 93 1479 l 0 1479 l 0 1711 l 93 1711 l 93 1760 l 441 1760 l 441 1711 l 516 1711 l 516 1479 l 441 1479 l 441 1055 l 605 1760 l 959 1760 l 762 954 l 1000 0 l 635 0 l 443 852 l 443 0"},"L":{"ha":814,"x_min":78,"x_max":792,"o":"m 792 0 l 78 0 l 78 1760 l 430 1760 l 430 300 l 792 300 l 792 0"},"Ǉ":{"ha":1769,"x_min":78,"x_max":1712,"o":"m 1282 -16 q 1065 30 1163 -16 q 909.5 166.5 967 76 q 852 389 852 257 l 852 830 l 1200 830 l 1200 410 q 1218.5 336 1200 364 q 1278 308 1237 308 q 1357 405 1357 308 l 1357 1760 l 1712 1760 l 1712 440 q 1657 197.5 1712 300 q 1505 39.5 1602 95 q 1282 -16 1408 -16 m 792 0 l 792 300 l 430 300 l 430 1760 l 78 1760 l 78 0 l 792 0"},"Ĺ":{"ha":814,"x_min":16,"x_max":792,"o":"m 792 0 l 78 0 l 78 1760 l 430 1760 l 430 300 l 792 300 l 792 0 m 491 1907 l 491 2254 l 16 2036 l 16 1813 l 491 1907"},"Ƚ":{"ha":814,"x_min":-36,"x_max":792,"o":"m 792 0 l 78 0 l 78 1760 l 430 1760 l 430 300 l 792 300 l 792 0 m 624 799 l 624 1031 l -36 1031 l -36 799 l 624 799"},"Ɬ":{"ha":1004,"x_min":-10,"x_max":982,"o":"m 982 0 l 268 0 l 268 725 q 69.5 805.5 149 734 q -10 994 -10 877 q 63 1201.5 -10 1127 q 268 1284 136 1276 l 268 1761 l 620 1761 l 620 955 l 760 955 l 760 724 l 620 724 l 620 300 l 982 300 l 982 0 m 184 1015 q 268 955 184 955 l 268 1074 q 184 1015 184 1072"},"Ľ":{"ha":814,"x_min":78,"x_max":827,"o":"m 792 0 l 78 0 l 78 1760 l 430 1760 l 430 300 l 792 300 l 792 0 m 725 1226 l 827 1471 l 827 1760 l 515 1760 l 515 1462 l 590 1462 l 514 1226 l 725 1226"},"Ḽ":{"ha":814,"x_min":-12,"x_max":878,"o":"m 792 0 l 78 0 l 78 1760 l 430 1760 l 430 300 l 792 300 l 792 0 m 347 -512 l 433 -227 l 519 -512 l 878 -512 l 637 -109 l 229 -109 l -12 -512 l 347 -512"},"Ļ":{"ha":814,"x_min":78,"x_max":792,"o":"m 792 0 l 78 0 l 78 1760 l 430 1760 l 430 300 l 792 300 l 792 0 m 505 -643 l 607 -398 l 607 -109 l 233 -109 l 233 -407 l 360 -407 l 294 -643 l 505 -643"},"Ŀ":{"ha":924,"x_min":78,"x_max":880,"o":"m 792 0 l 78 0 l 78 1760 l 430 1760 l 430 300 l 792 300 l 792 0 m 880 756 l 880 1094 l 552 1094 l 552 756 l 880 756"},"Ḷ":{"ha":814,"x_min":78,"x_max":792,"o":"m 792 0 l 78 0 l 78 1760 l 430 1760 l 430 300 l 792 300 l 792 0 m 612 -417 l 612 -119 l 254 -119 l 254 -417 l 612 -417"},"Ḹ":{"ha":814,"x_min":-73,"x_max":792,"o":"m 792 0 l 78 0 l 78 1760 l 430 1760 l 430 300 l 792 300 l 792 0 m 612 -417 l 612 -119 l 254 -119 l 254 -417 l 612 -417 m 577 1879 l 577 2032 l -73 2032 l -73 1879 l 577 1879"},"Ⱡ":{"ha":814,"x_min":-36,"x_max":792,"o":"m 792 0 l 78 0 l 78 1760 l 430 1760 l 430 300 l 792 300 l 792 0 m 624 979 l 624 1211 l -36 1211 l -36 979 l 624 979 m 624 619 l 624 851 l -36 851 l -36 619 l 624 619"},"ǈ":{"ha":1352,"x_min":78,"x_max":1282,"o":"m 792 0 l 78 0 l 78 1760 l 430 1760 l 430 300 l 792 300 l 792 0 m 1000 -260 q 1218.5 -169 1155 -260 q 1282 82 1282 -78 l 1282 1500 l 924 1500 l 924 72 q 917 21 924 41 q 881 1 910 1 q 848 6 866 1 l 848 -234 q 1000 -260 886 -260 m 1282 1592 l 1282 1890 l 924 1890 l 924 1592 l 1282 1592"},"Ḻ":{"ha":814,"x_min":78,"x_max":792,"o":"m 792 0 l 78 0 l 78 1760 l 430 1760 l 430 300 l 792 300 l 792 0 m 758 -272 l 758 -119 l 108 -119 l 108 -272 l 758 -272"},"Ɫ":{"ha":943,"x_min":-30,"x_max":921,"o":"m 921 0 l 207 0 l 207 1760 l 559 1760 l 559 300 l 921 300 l 921 0 m 548 776 q 668.5 813 623 776 q 743 910 714 850 q 796 1037 772 970 l 630 1091 q 587 1033 610 1050 q 537 1016 564 1016 q 451.5 1037 498 1016 q 348 1079 405 1058 q 217 1100 291 1100 q 100 1069.5 146 1100 q 24.5 988.5 54 1039 q -30 877 -5 938 l 118 799 q 161 852 138 837 q 210 867 184 867 q 304.5 844.5 256 867 q 412 799 353 822 q 548 776 471 776"},"Ł":{"ha":853,"x_min":-11,"x_max":792,"o":"m 792 0 l 78 0 l 78 718 l -11 679 l -11 1001 l 78 1040 l 78 1760 l 430 1760 l 430 1193 l 636 1283 l 636 961 l 430 871 l 430 300 l 792 300 l 792 0"},"M":{"ha":1528,"x_min":78,"x_max":1450,"o":"m 396 0 l 78 0 l 78 1760 l 614 1760 l 762 687 l 909 1760 l 1450 1760 l 1450 0 l 1128 0 l 1128 1268 l 926 0 l 610 0 l 396 1268 l 396 0"},"Ḿ":{"ha":1528,"x_min":78,"x_max":1450,"o":"m 396 0 l 78 0 l 78 1760 l 614 1760 l 762 687 l 909 1760 l 1450 1760 l 1450 0 l 1128 0 l 1128 1268 l 926 0 l 610 0 l 396 1268 l 396 0 m 1000 1907 l 1000 2254 l 525 2036 l 525 1813 l 1000 1907"},"Ṁ":{"ha":1528,"x_min":78,"x_max":1450,"o":"m 396 0 l 78 0 l 78 1760 l 614 1760 l 762 687 l 909 1760 l 1450 1760 l 1450 0 l 1128 0 l 1128 1268 l 926 0 l 610 0 l 396 1268 l 396 0 m 941 1852 l 941 2150 l 583 2150 l 583 1852 l 941 1852"},"Ṃ":{"ha":1528,"x_min":78,"x_max":1450,"o":"m 396 0 l 78 0 l 78 1760 l 614 1760 l 762 687 l 909 1760 l 1450 1760 l 1450 0 l 1128 0 l 1128 1268 l 926 0 l 610 0 l 396 1268 l 396 0 m 943 -417 l 943 -119 l 585 -119 l 585 -417 l 943 -417"},"Ɯ":{"ha":1551,"x_min":78,"x_max":1473,"o":"m 369 -16 q 143.5 93.5 209 -16 q 78 410 78 203 l 78 1760 l 423 1760 l 423 404 q 509 256 423 256 q 579.5 307.5 557 256 q 602 429 602 359 l 602 1760 l 947 1760 l 947 404 q 966 300 947 340 q 1031 260 985 260 q 1106 316 1084 260 q 1128 448 1128 372 l 1128 1760 l 1473 1760 l 1473 0 l 1130 0 l 1130 177 q 1048 31.5 1105 79 q 870 -16 991 -16 q 715.5 25 782 -16 q 623 136 649 66 q 522 20.5 578 57 q 369 -16 466 -16"},"N":{"ha":1020,"x_min":78,"x_max":942,"o":"m 422 0 l 78 0 l 78 1760 l 440 1760 l 602 917 l 602 1760 l 942 1760 l 942 0 l 598 0 l 422 880 l 422 0"},"Ǌ":{"ha":1975,"x_min":78,"x_max":1918,"o":"m 422 0 l 78 0 l 78 1760 l 440 1760 l 602 917 l 602 1760 l 942 1760 l 942 0 l 598 0 l 422 880 l 422 0 m 1488 -16 q 1711 39.5 1614 -16 q 1863 197.5 1808 95 q 1918 440 1918 300 l 1918 1760 l 1563 1760 l 1563 405 q 1484 308 1563 308 q 1424.5 336 1443 308 q 1406 410 1406 364 l 1406 830 l 1058 830 l 1058 389 q 1115.5 166.5 1058 257 q 1271 30 1173 76 q 1488 -16 1369 -16"},"Ń":{"ha":1020,"x_min":78,"x_max":942,"o":"m 422 0 l 78 0 l 78 1760 l 440 1760 l 602 917 l 602 1760 l 942 1760 l 942 0 l 598 0 l 422 880 l 422 0 m 768 1907 l 768 2254 l 293 2036 l 293 1813 l 768 1907"},"Ň":{"ha":1020,"x_min":78,"x_max":976,"o":"m 422 0 l 78 0 l 78 1760 l 440 1760 l 602 917 l 602 1760 l 942 1760 l 942 0 l 598 0 l 422 880 l 422 0 m 735 1851 l 976 2254 l 617 2254 l 531 1969 l 445 2254 l 86 2254 l 327 1851 l 735 1851"},"Ṋ":{"ha":1020,"x_min":58,"x_max":948,"o":"m 422 0 l 78 0 l 78 1760 l 440 1760 l 602 917 l 602 1760 l 942 1760 l 942 0 l 598 0 l 422 880 l 422 0 m 417 -512 l 503 -227 l 589 -512 l 948 -512 l 707 -109 l 299 -109 l 58 -512 l 417 -512"},"Ņ":{"ha":1020,"x_min":78,"x_max":942,"o":"m 422 0 l 78 0 l 78 1760 l 440 1760 l 602 917 l 602 1760 l 942 1760 l 942 0 l 598 0 l 422 880 l 422 0 m 575 -643 l 677 -398 l 677 -109 l 303 -109 l 303 -407 l 430 -407 l 364 -643 l 575 -643"},"Ṅ":{"ha":1020,"x_min":78,"x_max":942,"o":"m 422 0 l 78 0 l 78 1760 l 440 1760 l 602 917 l 602 1760 l 942 1760 l 942 0 l 598 0 l 422 880 l 422 0 m 710 1852 l 710 2150 l 352 2150 l 352 1852 l 710 1852"},"Ṇ":{"ha":1020,"x_min":78,"x_max":942,"o":"m 422 0 l 78 0 l 78 1760 l 440 1760 l 602 917 l 602 1760 l 942 1760 l 942 0 l 598 0 l 422 880 l 422 0 m 682 -417 l 682 -119 l 324 -119 l 324 -417 l 682 -417"},"Ǹ":{"ha":1020,"x_min":78,"x_max":942,"o":"m 422 0 l 78 0 l 78 1760 l 440 1760 l 602 917 l 602 1760 l 942 1760 l 942 0 l 598 0 l 422 880 l 422 0 m 768 2036 l 293 2254 l 293 1907 l 768 1813 l 768 2036"},"Ɲ":{"ha":1020,"x_min":-52,"x_max":942,"o":"m -52 -488 l -52 -186 q 78 -31 78 -186 l 78 1760 l 440 1760 l 602 917 l 602 1760 l 942 1760 l 942 0 l 598 0 l 422 880 l 422 -8 q 295 -367 422 -246 q -52 -488 168 -488"},"ǋ":{"ha":1558,"x_min":78,"x_max":1488,"o":"m 422 0 l 78 0 l 78 1760 l 440 1760 l 602 917 l 602 1760 l 942 1760 l 942 0 l 598 0 l 422 880 l 422 0 m 1206 -260 q 1424.5 -169 1361 -260 q 1488 82 1488 -78 l 1488 1500 l 1130 1500 l 1130 72 q 1123 21 1130 41 q 1087 1 1116 1 q 1054 6 1072 1 l 1054 -234 q 1206 -260 1092 -260 m 1488 1592 l 1488 1890 l 1130 1890 l 1130 1592 l 1488 1592"},"Ṉ":{"ha":1020,"x_min":78,"x_max":942,"o":"m 422 0 l 78 0 l 78 1760 l 440 1760 l 602 917 l 602 1760 l 942 1760 l 942 0 l 598 0 l 422 880 l 422 0 m 828 -272 l 828 -119 l 178 -119 l 178 -272 l 828 -272"},"Ƞ":{"ha":1020,"x_min":78,"x_max":942,"o":"m 942 -186 l 602 -186 l 602 1328 q 582.5 1428.5 602 1392 q 518 1465 563 1465 q 436.5 1422 455 1465 q 418 1296 418 1379 l 418 0 l 78 0 l 78 1760 l 416 1760 l 416 1574 q 499.5 1720 439 1664 q 651 1776 560 1776 q 871 1685 800 1776 q 942 1425 942 1594 l 942 -186"},"Ñ":{"ha":1020,"x_min":78,"x_max":944,"o":"m 422 0 l 78 0 l 78 1760 l 440 1760 l 602 917 l 602 1760 l 942 1760 l 942 0 l 598 0 l 422 880 l 422 0 m 696 1871 q 816.5 1908 771 1871 q 891 2005 862 1945 q 944 2132 920 2065 l 778 2186 q 735 2128 758 2145 q 685 2111 712 2111 q 598.5 2132 646 2111 q 493.5 2174 551 2153 q 365 2195 436 2195 q 248 2164.5 294 2195 q 172.5 2083.5 202 2134 q 118 1972 143 2033 l 266 1894 q 309 1947 286 1932 q 358 1962 332 1962 q 449 1939.5 399 1962 q 560.5 1894 499 1917 q 696 1871 622 1871"},"O":{"ha":996,"x_min":64,"x_max":932,"o":"m 498 -16 q 175.5 111.5 287 -16 q 64 480 64 239 l 64 1316 q 174.5 1659 64 1542 q 498 1776 285 1776 q 821.5 1659 711 1776 q 932 1316 932 1542 l 932 480 q 820.5 111.5 932 239 q 498 -16 709 -16 m 501 308 q 581 463 581 308 l 581 1322 q 503 1452 581 1452 q 415 1319 415 1452 l 415 461 q 435 343.5 415 379 q 501 308 455 308"},"Œ":{"ha":1330,"x_min":50,"x_max":1291,"o":"m 1291 0 l 606 0 q 50 430 50 0 l 50 1356 q 119.5 1599 50 1511 q 312.5 1723.5 189 1687 q 598 1760 436 1760 l 1268 1760 l 1268 1451 l 931 1451 l 931 1083 l 1254 1083 l 1254 784 l 931 784 l 931 311 l 1291 311 l 1291 0 m 513 311 l 574 311 l 574 1451 l 519 1451 q 429 1414.5 460 1451 q 398 1314 398 1378 l 398 480 q 425 360.5 398 410 q 513 311 452 311"},"Ȣ":{"ha":996,"x_min":64,"x_max":932,"o":"m 498 -16 q 174 114 284 -16 q 64 479 64 244 l 64 683 q 87.5 857 64 782 q 154 986 111 932 q 70 1303 70 1101 l 70 1760 l 412 1760 l 412 1297 q 428 1167 412 1213 q 498 1121 444 1121 q 568 1166.5 552 1121 q 584 1297 584 1212 l 584 1760 l 926 1760 l 926 1303 q 842 986 926 1101 q 908.5 857 885 932 q 932 683 932 782 l 932 479 q 822 112.5 932 241 q 498 -16 712 -16 m 498 308 q 561.5 349 545 308 q 578 463 578 390 l 578 710 q 563 802.5 578 766 q 500 839 548 839 q 412 706 412 839 l 412 461 q 430.5 347 412 386 q 498 308 449 308"},"Ó":{"ha":996,"x_min":64,"x_max":932,"o":"m 498 -16 q 175.5 111.5 287 -16 q 64 480 64 239 l 64 1316 q 174.5 1659 64 1542 q 498 1776 285 1776 q 821.5 1659 711 1776 q 932 1316 932 1542 l 932 480 q 820.5 111.5 932 239 q 498 -16 709 -16 m 501 308 q 581 463 581 308 l 581 1322 q 503 1452 581 1452 q 415 1319 415 1452 l 415 461 q 435 343.5 415 379 q 501 308 455 308 m 736 1907 l 736 2254 l 261 2036 l 261 1813 l 736 1907"},"Ŏ":{"ha":996,"x_min":64,"x_max":932,"o":"m 498 -16 q 175.5 111.5 287 -16 q 64 480 64 239 l 64 1316 q 174.5 1659 64 1542 q 498 1776 285 1776 q 821.5 1659 711 1776 q 932 1316 932 1542 l 932 480 q 820.5 111.5 932 239 q 498 -16 709 -16 m 502 1852 q 789.5 1927.5 682 1852 q 897 2170 897 2003 q 896.5 2185 897 2175 q 895 2205 896 2195 l 639 2205 q 610 2118.5 639 2148 q 504 2089 581 2089 q 398 2118.5 427 2089 q 369 2205 369 2148 l 113 2205 q 110 2163 110 2184 q 218.5 1926 110 2000 q 502 1852 327 1852 m 501 308 q 581 463 581 308 l 581 1322 q 503 1452 581 1452 q 415 1319 415 1452 l 415 461 q 435 343.5 415 379 q 501 308 455 308"},"Ǒ":{"ha":996,"x_min":54,"x_max":944,"o":"m 498 -16 q 175.5 111.5 287 -16 q 64 480 64 239 l 64 1316 q 174.5 1659 64 1542 q 498 1776 285 1776 q 821.5 1659 711 1776 q 932 1316 932 1542 l 932 480 q 820.5 111.5 932 239 q 498 -16 709 -16 m 703 1851 l 944 2254 l 585 2254 l 499 1969 l 413 2254 l 54 2254 l 295 1851 l 703 1851 m 501 308 q 581 463 581 308 l 581 1322 q 503 1452 581 1452 q 415 1319 415 1452 l 415 461 q 435 343.5 415 379 q 501 308 455 308"},"Ɵ":{"ha":996,"x_min":64,"x_max":932,"o":"m 498 -16 q 175.5 111.5 287 -16 q 64 480 64 239 l 64 1316 q 174.5 1659 64 1542 q 498 1776 285 1776 q 821.5 1659 711 1776 q 932 1316 932 1542 l 932 480 q 820.5 111.5 932 239 q 498 -16 709 -16 m 501 308 q 581 463 581 308 l 581 1322 q 503 1452 581 1452 q 415 1319 415 1452 l 415 461 q 435 343.5 415 379 q 501 308 455 308 m 807 769 l 807 1001 l 147 1001 l 147 769 l 807 769"},"Ô":{"ha":996,"x_min":54,"x_max":944,"o":"m 498 -16 q 175.5 111.5 287 -16 q 64 480 64 239 l 64 1316 q 174.5 1659 64 1542 q 498 1776 285 1776 q 821.5 1659 711 1776 q 932 1316 932 1542 l 932 480 q 820.5 111.5 932 239 q 498 -16 709 -16 m 413 1851 l 499 2136 l 585 1851 l 944 1851 l 703 2254 l 295 2254 l 54 1851 l 413 1851 m 501 308 q 581 463 581 308 l 581 1322 q 503 1452 581 1452 q 415 1319 415 1452 l 415 461 q 435 343.5 415 379 q 501 308 455 308"},"Ố":{"ha":996,"x_min":64,"x_max":1208,"o":"m 498 -16 q 175.5 111.5 287 -16 q 64 480 64 239 l 64 1316 q 174.5 1659 64 1542 q 498 1776 285 1776 q 821.5 1659 711 1776 q 932 1316 932 1542 l 932 480 q 820.5 111.5 932 239 q 498 -16 709 -16 m 501 308 q 581 463 581 308 l 581 1322 q 503 1452 581 1452 q 415 1319 415 1452 l 415 461 q 435 343.5 415 379 q 501 308 455 308 m 399 1839 l 498 1974 l 597 1839 l 882 1839 l 645 2093 l 351 2093 l 114 1839 l 399 1839 m 1020 2000 l 1208 2204 l 901 2204 l 787 2000 l 1020 2000"},"Ộ":{"ha":996,"x_min":53,"x_max":943,"o":"m 498 -16 q 175.5 111.5 287 -16 q 64 480 64 239 l 64 1316 q 174.5 1659 64 1542 q 498 1776 285 1776 q 821.5 1659 711 1776 q 932 1316 932 1542 l 932 480 q 820.5 111.5 932 239 q 498 -16 709 -16 m 412 1861 l 498 2076 l 584 1861 l 943 1861 l 702 2194 l 294 2194 l 53 1861 l 412 1861 m 501 308 q 581 463 581 308 l 581 1322 q 503 1452 581 1452 q 415 1319 415 1452 l 415 461 q 435 343.5 415 379 q 501 308 455 308 m 677 -417 l 677 -119 l 319 -119 l 319 -417 l 677 -417"},"Ồ":{"ha":996,"x_min":64,"x_max":1087,"o":"m 498 -16 q 175.5 111.5 287 -16 q 64 480 64 239 l 64 1316 q 174.5 1659 64 1542 q 498 1776 285 1776 q 821.5 1659 711 1776 q 932 1316 932 1542 l 932 480 q 820.5 111.5 932 239 q 498 -16 709 -16 m 501 308 q 581 463 581 308 l 581 1322 q 503 1452 581 1452 q 415 1319 415 1452 l 415 461 q 435 343.5 415 379 q 501 308 455 308 m 399 1839 l 498 1974 l 597 1839 l 882 1839 l 645 2093 l 351 2093 l 114 1839 l 399 1839 m 1087 2000 l 973 2204 l 666 2204 l 854 2000 l 1087 2000"},"Ổ":{"ha":996,"x_min":64,"x_max":1037,"o":"m 498 -16 q 175.5 111.5 287 -16 q 64 480 64 239 l 64 1316 q 174.5 1659 64 1542 q 498 1776 285 1776 q 821.5 1659 711 1776 q 932 1316 932 1542 l 932 480 q 820.5 111.5 932 239 q 498 -16 709 -16 m 501 308 q 581 463 581 308 l 581 1322 q 503 1452 581 1452 q 415 1319 415 1452 l 415 461 q 435 343.5 415 379 q 501 308 455 308 m 399 1839 l 498 1974 l 597 1839 l 882 1839 l 645 2093 l 351 2093 l 114 1839 l 399 1839 m 868 1959 q 988.5 2027 940 1982 q 1037 2151 1037 2072 q 993 2260 1037 2221 q 872 2299 949 2299 q 758 2278 815 2299 l 758 2166 q 814 2176 786 2176 q 877 2117 877 2176 q 856.5 2067.5 877 2086 q 802 2036 836 2049 l 868 1959"},"Ỗ":{"ha":996,"x_min":64,"x_max":932,"o":"m 498 -16 q 175.5 111.5 287 -16 q 64 480 64 239 l 64 1316 q 174.5 1659 64 1542 q 498 1776 285 1776 q 821.5 1659 711 1776 q 932 1316 932 1542 l 932 480 q 820.5 111.5 932 239 q 498 -16 709 -16 m 501 308 q 581 463 581 308 l 581 1322 q 503 1452 581 1452 q 415 1319 415 1452 l 415 461 q 435 343.5 415 379 q 501 308 455 308 m 399 1839 l 498 1974 l 597 1839 l 882 1839 l 645 2093 l 351 2093 l 114 1839 l 399 1839 m 618 2142 q 740 2197.5 703 2142 q 805 2323 777 2253 l 680 2363 q 596 2307 646 2307 q 519 2324 556 2307 q 443 2358 482 2341 q 357 2375 404 2375 q 246 2328.5 282 2375 q 184 2217 210 2282 l 295 2159 q 334 2199 313 2188 q 379 2210 355 2210 q 456.5 2193 419 2210 q 533.5 2159 494 2176 q 618 2142 573 2142"},"Ȍ":{"ha":996,"x_min":13,"x_max":932,"o":"m 498 -16 q 175.5 111.5 287 -16 q 64 480 64 239 l 64 1316 q 174.5 1659 64 1542 q 498 1776 285 1776 q 821.5 1659 711 1776 q 932 1316 932 1542 l 932 480 q 820.5 111.5 932 239 q 498 -16 709 -16 m 501 308 q 581 463 581 308 l 581 1322 q 503 1452 581 1452 q 415 1319 415 1452 l 415 461 q 435 343.5 415 379 q 501 308 455 308 m 468 1904 l 247 2383 l 13 2275 l 302 1846 l 468 1904 m 770 1904 l 586 2383 l 356 2275 l 604 1846 l 770 1904"},"Ö":{"ha":996,"x_min":64,"x_max":932,"o":"m 498 -16 q 175.5 111.5 287 -16 q 64 480 64 239 l 64 1316 q 174.5 1659 64 1542 q 498 1776 285 1776 q 821.5 1659 711 1776 q 932 1316 932 1542 l 932 480 q 820.5 111.5 932 239 q 498 -16 709 -16 m 501 308 q 581 463 581 308 l 581 1322 q 503 1452 581 1452 q 415 1319 415 1452 l 415 461 q 435 343.5 415 379 q 501 308 455 308 m 913 1859 l 913 2157 l 555 2157 l 555 1859 l 913 1859 m 429 1859 l 429 2157 l 71 2157 l 71 1859 l 429 1859"},"Ȫ":{"ha":996,"x_min":64,"x_max":932,"o":"m 498 -16 q 175.5 111.5 287 -16 q 64 480 64 239 l 64 1316 q 174.5 1659 64 1542 q 498 1776 285 1776 q 821.5 1659 711 1776 q 932 1316 932 1542 l 932 480 q 820.5 111.5 932 239 q 498 -16 709 -16 m 501 308 q 581 463 581 308 l 581 1322 q 503 1452 581 1452 q 415 1319 415 1452 l 415 461 q 435 343.5 415 379 q 501 308 455 308 m 823 2216 l 823 2369 l 173 2369 l 173 2216 l 823 2216 m 919 1859 l 919 2107 l 561 2107 l 561 1859 l 919 1859 m 435 1859 l 435 2107 l 77 2107 l 77 1859 l 435 1859"},"Ȯ":{"ha":996,"x_min":64,"x_max":932,"o":"m 498 -16 q 175.5 111.5 287 -16 q 64 480 64 239 l 64 1316 q 174.5 1659 64 1542 q 498 1776 285 1776 q 821.5 1659 711 1776 q 932 1316 932 1542 l 932 480 q 820.5 111.5 932 239 q 498 -16 709 -16 m 501 308 q 581 463 581 308 l 581 1322 q 503 1452 581 1452 q 415 1319 415 1452 l 415 461 q 435 343.5 415 379 q 501 308 455 308 m 678 1852 l 678 2150 l 320 2150 l 320 1852 l 678 1852"},"Ȱ":{"ha":996,"x_min":64,"x_max":932,"o":"m 498 -16 q 175.5 111.5 287 -16 q 64 480 64 239 l 64 1316 q 174.5 1659 64 1542 q 498 1776 285 1776 q 821.5 1659 711 1776 q 932 1316 932 1542 l 932 480 q 820.5 111.5 932 239 q 498 -16 709 -16 m 501 308 q 581 463 581 308 l 581 1322 q 503 1452 581 1452 q 415 1319 415 1452 l 415 461 q 435 343.5 415 379 q 501 308 455 308 m 823 2198 l 823 2351 l 173 2351 l 173 2198 l 823 2198 m 677 1852 l 677 2110 l 319 2110 l 319 1852 l 677 1852"},"Ọ":{"ha":996,"x_min":64,"x_max":932,"o":"m 498 -16 q 175.5 111.5 287 -16 q 64 480 64 239 l 64 1316 q 174.5 1659 64 1542 q 498 1776 285 1776 q 821.5 1659 711 1776 q 932 1316 932 1542 l 932 480 q 820.5 111.5 932 239 q 498 -16 709 -16 m 501 308 q 581 463 581 308 l 581 1322 q 503 1452 581 1452 q 415 1319 415 1452 l 415 461 q 435 343.5 415 379 q 501 308 455 308 m 677 -417 l 677 -119 l 319 -119 l 319 -417 l 677 -417"},"Ò":{"ha":996,"x_min":64,"x_max":932,"o":"m 498 -16 q 175.5 111.5 287 -16 q 64 480 64 239 l 64 1316 q 174.5 1659 64 1542 q 498 1776 285 1776 q 821.5 1659 711 1776 q 932 1316 932 1542 l 932 480 q 820.5 111.5 932 239 q 498 -16 709 -16 m 501 308 q 581 463 581 308 l 581 1322 q 503 1452 581 1452 q 415 1319 415 1452 l 415 461 q 435 343.5 415 379 q 501 308 455 308 m 736 2036 l 261 2254 l 261 1907 l 736 1813 l 736 2036"},"Ω":{"ha":992,"x_min":47,"x_max":945,"o":"m 463 0 l 47 0 l 47 246 l 169 246 q 72 710 72 394 l 72 1189 q 180 1500.5 72 1394 q 496 1607 288 1607 q 812.5 1500.5 705 1607 q 920 1189 920 1394 l 920 710 q 823 246 920 394 l 945 246 l 945 0 l 529 0 l 529 247 q 563 289 552 266 q 577.5 354 574 312 q 581 471 581 396 l 581 1211 q 564.5 1299.5 581 1264 q 496 1335 548 1335 q 427.5 1299.5 444 1335 q 411 1211 411 1264 l 411 471 q 424.5 316 411 359 q 463 247 438 273 l 463 0"},"Ỏ":{"ha":996,"x_min":64,"x_max":932,"o":"m 498 -16 q 175.5 111.5 287 -16 q 64 480 64 239 l 64 1316 q 174.5 1659 64 1542 q 498 1776 285 1776 q 821.5 1659 711 1776 q 932 1316 932 1542 l 932 480 q 820.5 111.5 932 239 q 498 -16 709 -16 m 501 308 q 581 463 581 308 l 581 1322 q 503 1452 581 1452 q 415 1319 415 1452 l 415 461 q 435 343.5 415 379 q 501 308 455 308 m 469 1837 q 663 1945.5 585 1873 q 741 2145 741 2018 q 670.5 2320.5 741 2258 q 475 2383 600 2383 q 292 2350 380 2383 l 292 2170 q 382 2186 335 2186 q 483 2091 483 2186 q 450 2011 483 2041 q 363 1961 417 1981 l 469 1837"},"Ơ":{"ha":999,"x_min":64,"x_max":969,"o":"m 498 -16 q 173 114.5 282 -16 q 64 480 64 245 l 64 1316 q 176 1659.5 64 1543 q 500 1776 288 1776 l 576 1776 q 691 1901 691 1776 l 691 1924 l 969 1924 l 969 1909 q 936.5 1734.5 969 1804 q 849 1626 904 1665 q 932 1316 932 1511 l 932 480 q 823 114.5 932 245 q 498 -16 714 -16 m 498 308 q 563 353.5 548 308 q 578 463 578 399 l 578 1322 q 565 1410.5 578 1369 q 500 1452 552 1452 q 430.5 1413.5 449 1452 q 412 1319 412 1375 l 412 461 q 428 350 412 392 q 498 308 444 308"},"Ớ":{"ha":999,"x_min":64,"x_max":969,"o":"m 498 -16 q 173 114.5 282 -16 q 64 480 64 245 l 64 1316 q 176 1659.5 64 1543 q 500 1776 288 1776 l 576 1776 q 691 1901 691 1776 l 691 1924 l 969 1924 l 969 1909 q 936.5 1734.5 969 1804 q 849 1626 904 1665 q 932 1316 932 1511 l 932 480 q 823 114.5 932 245 q 498 -16 714 -16 m 498 308 q 563 353.5 548 308 q 578 463 578 399 l 578 1322 q 565 1410.5 578 1369 q 500 1452 552 1452 q 430.5 1413.5 449 1452 q 412 1319 412 1375 l 412 461 q 428 350 412 392 q 498 308 444 308 m 738 2006 l 738 2293 l 263 2125 l 263 1932 l 738 2006"},"Ợ":{"ha":999,"x_min":64,"x_max":969,"o":"m 498 -16 q 173 114.5 282 -16 q 64 480 64 245 l 64 1316 q 176 1659.5 64 1543 q 500 1776 288 1776 l 576 1776 q 691 1901 691 1776 l 691 1924 l 969 1924 l 969 1909 q 936.5 1734.5 969 1804 q 849 1626 904 1665 q 932 1316 932 1511 l 932 480 q 823 114.5 932 245 q 498 -16 714 -16 m 498 308 q 563 353.5 548 308 q 578 463 578 399 l 578 1322 q 565 1410.5 578 1369 q 500 1452 552 1452 q 430.5 1413.5 449 1452 q 412 1319 412 1375 l 412 461 q 428 350 412 392 q 498 308 444 308 m 677 -417 l 677 -119 l 319 -119 l 319 -417 l 677 -417"},"Ờ":{"ha":999,"x_min":64,"x_max":969,"o":"m 498 -16 q 173 114.5 282 -16 q 64 480 64 245 l 64 1316 q 176 1659.5 64 1543 q 500 1776 288 1776 l 576 1776 q 691 1901 691 1776 l 691 1924 l 969 1924 l 969 1909 q 936.5 1734.5 969 1804 q 849 1626 904 1665 q 932 1316 932 1511 l 932 480 q 823 114.5 932 245 q 498 -16 714 -16 m 498 308 q 563 353.5 548 308 q 578 463 578 399 l 578 1322 q 565 1410.5 578 1369 q 500 1452 552 1452 q 430.5 1413.5 449 1452 q 412 1319 412 1375 l 412 461 q 428 350 412 392 q 498 308 444 308 m 737 2155 l 262 2323 l 262 2036 l 737 1962 l 737 2155"},"Ở":{"ha":999,"x_min":64,"x_max":969,"o":"m 498 -16 q 173 114.5 282 -16 q 64 480 64 245 l 64 1316 q 176 1659.5 64 1543 q 500 1776 288 1776 l 576 1776 q 691 1901 691 1776 l 691 1924 l 969 1924 l 969 1909 q 936.5 1734.5 969 1804 q 849 1626 904 1665 q 932 1316 932 1511 l 932 480 q 823 114.5 932 245 q 498 -16 714 -16 m 498 308 q 563 353.5 548 308 q 578 463 578 399 l 578 1322 q 565 1410.5 578 1369 q 500 1452 552 1452 q 430.5 1413.5 449 1452 q 412 1319 412 1375 l 412 461 q 428 350 412 392 q 498 308 444 308 m 471 1922 q 665 2030.5 587 1958 q 743 2230 743 2103 q 672.5 2405.5 743 2343 q 477 2468 602 2468 q 294 2435 382 2468 l 294 2255 q 384 2271 337 2271 q 485 2176 485 2271 q 452 2096 485 2126 q 365 2046 419 2066 l 471 1922"},"Ỡ":{"ha":999,"x_min":64,"x_max":969,"o":"m 498 -16 q 173 114.5 282 -16 q 64 480 64 245 l 64 1316 q 176 1659.5 64 1543 q 500 1776 288 1776 l 576 1776 q 691 1901 691 1776 l 691 1924 l 969 1924 l 969 1909 q 936.5 1734.5 969 1804 q 849 1626 904 1665 q 932 1316 932 1511 l 932 480 q 823 114.5 932 245 q 498 -16 714 -16 m 498 308 q 563 353.5 548 308 q 578 463 578 399 l 578 1322 q 565 1410.5 578 1369 q 500 1452 552 1452 q 430.5 1413.5 449 1452 q 412 1319 412 1375 l 412 461 q 428 350 412 392 q 498 308 444 308 m 665 2006 q 785.5 2040 740 2006 q 860 2129.5 831 2074 q 913 2247 889 2185 l 747 2301 q 704 2243 727 2260 q 654 2226 681 2226 q 569 2247 616 2226 q 463.5 2289 522 2268 q 334 2310 405 2310 q 217 2282 263 2310 q 141.5 2208 171 2254 q 87 2107 112 2162 l 235 2029 q 278 2082 255 2067 q 327 2097 301 2097 q 418 2074.5 368 2097 q 529.5 2029 468 2052 q 665 2006 591 2006"},"Ő":{"ha":996,"x_min":64,"x_max":970,"o":"m 498 -16 q 175.5 111.5 287 -16 q 64 480 64 239 l 64 1316 q 174.5 1659 64 1542 q 498 1776 285 1776 q 821.5 1659 711 1776 q 932 1316 932 1542 l 932 480 q 820.5 111.5 932 239 q 498 -16 709 -16 m 501 308 q 581 463 581 308 l 581 1322 q 503 1452 581 1452 q 415 1319 415 1452 l 415 461 q 435 343.5 415 379 q 501 308 455 308 m 970 2295 l 736 2403 l 515 1924 l 681 1866 l 970 2295 m 627 2295 l 397 2403 l 213 1924 l 379 1866 l 627 2295"},"Ȏ":{"ha":996,"x_min":64,"x_max":932,"o":"m 498 -16 q 175.5 111.5 287 -16 q 64 480 64 239 l 64 1316 q 174.5 1659 64 1542 q 498 1776 285 1776 q 821.5 1659 711 1776 q 932 1316 932 1542 l 932 480 q 820.5 111.5 932 239 q 498 -16 709 -16 m 364 1868 q 402.5 1969 364 1936 q 499 2002 441 2002 q 596 1969 558 2002 q 634 1868 634 1936 l 870 1868 q 871.5 1887.5 871 1878 q 872 1902 872 1897 q 774.5 2144.5 872 2069 q 497 2220 677 2220 q 223.5 2146 322 2220 q 125 1909 125 2072 q 128 1868 125 1888 l 364 1868 m 501 308 q 581 463 581 308 l 581 1322 q 503 1452 581 1452 q 415 1319 415 1452 l 415 461 q 435 343.5 415 379 q 501 308 455 308"},"Ō":{"ha":996,"x_min":64,"x_max":932,"o":"m 498 -16 q 175.5 111.5 287 -16 q 64 480 64 239 l 64 1316 q 174.5 1659 64 1542 q 498 1776 285 1776 q 821.5 1659 711 1776 q 932 1316 932 1542 l 932 480 q 820.5 111.5 932 239 q 498 -16 709 -16 m 501 308 q 581 463 581 308 l 581 1322 q 503 1452 581 1452 q 415 1319 415 1452 l 415 461 q 435 343.5 415 379 q 501 308 455 308 m 823 1879 l 823 2032 l 173 2032 l 173 1879 l 823 1879"},"Ṓ":{"ha":996,"x_min":64,"x_max":932,"o":"m 498 -16 q 175.5 111.5 287 -16 q 64 480 64 239 l 64 1316 q 174.5 1659 64 1542 q 498 1776 285 1776 q 821.5 1659 711 1776 q 932 1316 932 1542 l 932 480 q 820.5 111.5 932 239 q 498 -16 709 -16 m 501 308 q 581 463 581 308 l 581 1322 q 503 1452 581 1452 q 415 1319 415 1452 l 415 461 q 435 343.5 415 379 q 501 308 455 308 m 736 2091 l 736 2378 l 261 2210 l 261 2017 l 736 2091 m 823 1819 l 823 1972 l 173 1972 l 173 1819 l 823 1819"},"Ṑ":{"ha":996,"x_min":64,"x_max":932,"o":"m 498 -16 q 175.5 111.5 287 -16 q 64 480 64 239 l 64 1316 q 174.5 1659 64 1542 q 498 1776 285 1776 q 821.5 1659 711 1776 q 932 1316 932 1542 l 932 480 q 820.5 111.5 932 239 q 498 -16 709 -16 m 501 308 q 581 463 581 308 l 581 1322 q 503 1452 581 1452 q 415 1319 415 1452 l 415 461 q 435 343.5 415 379 q 501 308 455 308 m 736 2210 l 261 2378 l 261 2091 l 736 2017 l 736 2210 m 823 1819 l 823 1972 l 173 1972 l 173 1819 l 823 1819"},"Ω":{"ha":992,"x_min":47,"x_max":945,"o":"m 463 0 l 47 0 l 47 246 l 169 246 q 72 710 72 394 l 72 1352 q 180 1663.5 72 1557 q 496 1770 288 1770 q 812.5 1663.5 705 1770 q 920 1352 920 1557 l 920 710 q 823 246 920 394 l 945 246 l 945 0 l 529 0 l 529 247 q 571.5 346 562 273 q 581 531 581 419 l 581 1374 q 564.5 1462.5 581 1427 q 496 1498 548 1498 q 427.5 1462.5 444 1498 q 411 1374 411 1427 l 411 531 q 420.5 346 411 419 q 463 247 430 273 l 463 0"},"Ꞷ":{"ha":1517,"x_min":64,"x_max":1453,"o":"m 452 -16 q 158.5 110.5 253 -16 q 64 474 64 237 l 64 1317 q 111.5 1554.5 64 1451 q 255.5 1717 159 1658 q 497 1776 352 1776 l 497 1473 q 433.5 1451 454 1473 q 413 1378 413 1429 l 413 462 q 431.5 347 413 386 q 499 308 450 308 q 564 348.5 547 308 q 581 462 581 389 l 581 1179 l 936 1179 l 936 462 q 953.5 347 936 386 q 1020 308 971 308 q 1085 348.5 1066 308 q 1104 462 1104 389 l 1104 1378 q 1083.5 1451 1104 1429 q 1020 1473 1063 1473 l 1020 1776 q 1262 1717 1166 1776 q 1405.5 1554.5 1358 1658 q 1453 1317 1453 1451 l 1453 474 q 1358.5 109 1453 234 q 1067 -16 1264 -16 q 896 19 976 -16 q 760 146 816 54 q 624.5 19 703 54 q 452 -16 546 -16"},"Ǫ":{"ha":996,"x_min":64,"x_max":932,"o":"m 498 -16 q 175.5 111.5 287 -16 q 64 480 64 239 l 64 1316 q 174.5 1659 64 1542 q 498 1776 285 1776 q 821.5 1659 711 1776 q 932 1316 932 1542 l 932 480 q 820.5 111.5 932 239 q 498 -16 709 -16 m 662 -551 q 860 -511 765 -551 l 860 -288 q 744 -311 793 -311 q 629 -199 629 -311 q 681 -47 629 -116 q 789 80 733 22 l 578 80 q 314 -250 314 -68 q 361.5 -411.5 314 -344 q 488 -515 409 -479 q 662 -551 567 -551 m 501 308 q 581 463 581 308 l 581 1322 q 503 1452 581 1452 q 415 1319 415 1452 l 415 461 q 435 343.5 415 379 q 501 308 455 308"},"Ǭ":{"ha":996,"x_min":64,"x_max":932,"o":"m 498 -16 q 175.5 111.5 287 -16 q 64 480 64 239 l 64 1316 q 174.5 1659 64 1542 q 498 1776 285 1776 q 821.5 1659 711 1776 q 932 1316 932 1542 l 932 480 q 820.5 111.5 932 239 q 498 -16 709 -16 m 662 -551 q 860 -511 765 -551 l 860 -288 q 744 -311 793 -311 q 629 -199 629 -311 q 675 -50.5 629 -116 q 789 80 721 15 l 578 80 q 314 -250 314 -68 q 361.5 -411.5 314 -344 q 488 -515 409 -479 q 662 -551 567 -551 m 501 308 q 581 463 581 308 l 581 1322 q 503 1452 581 1452 q 415 1319 415 1452 l 415 461 q 435 343.5 415 379 q 501 308 455 308 m 823 1819 l 823 1972 l 173 1972 l 173 1819 l 823 1819"},"Ɔ":{"ha":971,"x_min":39,"x_max":907,"o":"m 483 -16 q 156 88.5 273 -16 q 39 425 39 193 l 39 758 l 393 758 l 393 441 q 411.5 345 393 382 q 475 308 430 308 q 537 338 516 308 q 558 441 558 368 l 558 1322 q 541 1416.5 558 1381 q 475 1452 524 1452 q 413 1424.5 433 1452 q 393 1318 393 1397 l 393 1058 l 43 1058 l 43 1362 q 99 1592.5 43 1501 q 252.5 1730 155 1684 q 475 1776 350 1776 q 805.5 1640 704 1776 q 907 1248 907 1504 l 907 436 q 790.5 103 907 222 q 483 -16 674 -16"},"Ø":{"ha":996,"x_min":64,"x_max":932,"o":"m 251 -186 l 111 -186 l 185 101 q 64 480 64 229 l 64 1316 q 175.5 1659.5 64 1543 q 498 1776 287 1776 q 656 1756 585 1776 l 719 2000 l 859 2000 l 781 1695 q 932 1316 932 1581 l 932 480 q 823 114.5 932 245 q 498 -16 714 -16 q 304 19 388 -16 l 251 -186 m 501 308 q 566 353.5 551 308 q 581 463 581 399 l 581 1322 q 568 1410.5 581 1369 q 503 1452 555 1452 q 433.5 1413.5 452 1452 q 415 1319 415 1375 l 415 461 q 431 350 415 392 q 501 308 447 308"},"Ǿ":{"ha":996,"x_min":64,"x_max":932,"o":"m 251 -186 l 111 -186 l 185 101 q 64 480 64 229 l 64 1316 q 175.5 1659.5 64 1543 q 498 1776 287 1776 q 656 1756 585 1776 l 719 2000 l 859 2000 l 781 1695 q 932 1316 932 1581 l 932 480 q 823 114.5 932 245 q 498 -16 714 -16 q 304 19 388 -16 l 251 -186 m 501 308 q 566 353.5 551 308 q 581 463 581 399 l 581 1322 q 568 1410.5 581 1369 q 503 1452 555 1452 q 433.5 1413.5 452 1452 q 415 1319 415 1375 l 415 461 q 431 350 415 392 q 501 308 447 308 m 732 2044 l 732 2391 l 257 2173 l 257 1950 l 732 2044"},"Õ":{"ha":996,"x_min":64,"x_max":932,"o":"m 498 -16 q 175.5 111.5 287 -16 q 64 480 64 239 l 64 1316 q 174.5 1659 64 1542 q 498 1776 285 1776 q 821.5 1659 711 1776 q 932 1316 932 1542 l 932 480 q 820.5 111.5 932 239 q 498 -16 709 -16 m 664 1871 q 784.5 1908 739 1871 q 859 2005 830 1945 q 912 2132 888 2065 l 746 2186 q 703 2128 726 2145 q 653 2111 680 2111 q 566.5 2132 614 2111 q 461.5 2174 519 2153 q 333 2195 404 2195 q 216 2164.5 262 2195 q 140.5 2083.5 170 2134 q 86 1972 111 2033 l 234 1894 q 277 1947 254 1932 q 326 1962 300 1962 q 417 1939.5 367 1962 q 528.5 1894 467 1917 q 664 1871 590 1871 m 501 308 q 581 463 581 308 l 581 1322 q 503 1452 581 1452 q 415 1319 415 1452 l 415 461 q 435 343.5 415 379 q 501 308 455 308"},"Ṍ":{"ha":996,"x_min":64,"x_max":932,"o":"m 498 -16 q 175.5 111.5 287 -16 q 64 480 64 239 l 64 1316 q 174.5 1659 64 1542 q 498 1776 285 1776 q 821.5 1659 711 1776 q 932 1316 932 1542 l 932 480 q 820.5 111.5 932 239 q 498 -16 709 -16 m 501 308 q 581 463 581 308 l 581 1322 q 503 1452 581 1452 q 415 1319 415 1452 l 415 461 q 435 343.5 415 379 q 501 308 455 308 m 663 1841 q 783.5 1875 738 1841 q 858 1964.5 829 1909 q 911 2082 887 2020 l 745 2136 q 702 2078 725 2095 q 652 2061 679 2061 q 567 2082 614 2061 q 461.5 2124 520 2103 q 332 2145 403 2145 q 215 2117 261 2145 q 139.5 2043 169 2089 q 85 1942 110 1997 l 233 1864 q 276 1917 253 1902 q 325 1932 299 1932 q 416 1909.5 366 1932 q 527.5 1864 466 1887 q 663 1841 589 1841 m 736 2278 l 736 2565 l 261 2397 l 261 2204 l 736 2278"},"Ṏ":{"ha":996,"x_min":64,"x_max":932,"o":"m 498 -16 q 175.5 111.5 287 -16 q 64 480 64 239 l 64 1316 q 174.5 1659 64 1542 q 498 1776 285 1776 q 821.5 1659 711 1776 q 932 1316 932 1542 l 932 480 q 820.5 111.5 932 239 q 498 -16 709 -16 m 501 308 q 581 463 581 308 l 581 1322 q 503 1452 581 1452 q 415 1319 415 1452 l 415 461 q 435 343.5 415 379 q 501 308 455 308 m 663 1841 q 783.5 1875 738 1841 q 858 1964.5 829 1909 q 911 2082 887 2020 l 745 2136 q 702 2078 725 2095 q 652 2061 679 2061 q 567 2082 614 2061 q 461.5 2124 520 2103 q 332 2145 403 2145 q 215 2117 261 2145 q 139.5 2043 169 2089 q 85 1942 110 1997 l 233 1864 q 276 1917 253 1902 q 325 1932 299 1932 q 416 1909.5 366 1932 q 527.5 1864 466 1887 q 663 1841 589 1841 m 919 2266 l 919 2514 l 561 2514 l 561 2266 l 919 2266 m 435 2266 l 435 2514 l 77 2514 l 77 2266 l 435 2266"},"Ȭ":{"ha":996,"x_min":64,"x_max":932,"o":"m 498 -16 q 175.5 111.5 287 -16 q 64 480 64 239 l 64 1316 q 174.5 1659 64 1542 q 498 1776 285 1776 q 821.5 1659 711 1776 q 932 1316 932 1542 l 932 480 q 820.5 111.5 932 239 q 498 -16 709 -16 m 501 308 q 581 463 581 308 l 581 1322 q 503 1452 581 1452 q 415 1319 415 1452 l 415 461 q 435 343.5 415 379 q 501 308 455 308 m 663 1841 q 783.5 1875 738 1841 q 858 1964.5 829 1909 q 911 2082 887 2020 l 745 2136 q 702 2078 725 2095 q 652 2061 679 2061 q 567 2082 614 2061 q 461.5 2124 520 2103 q 332 2145 403 2145 q 215 2117 261 2145 q 139.5 2043 169 2089 q 85 1942 110 1997 l 233 1864 q 276 1917 253 1902 q 325 1932 299 1932 q 416 1909.5 366 1932 q 527.5 1864 466 1887 q 663 1841 589 1841 m 823 2226 l 823 2379 l 173 2379 l 173 2226 l 823 2226"},"P":{"ha":967,"x_min":78,"x_max":934,"o":"m 424 0 l 78 0 l 78 1760 l 543 1760 q 774.5 1695 689 1760 q 897 1510 860 1630 q 934 1224 934 1390 q 903 945.5 934 1064 q 792.5 762 872 827 q 567 697 713 697 l 424 697 l 424 0 m 424 1439 l 424 1013 l 444 1013 q 564 1068 542 1013 q 586 1230 586 1123 q 564.5 1384.5 586 1330 q 463 1439 543 1439 l 424 1439"},"Ṕ":{"ha":967,"x_min":78,"x_max":934,"o":"m 424 0 l 78 0 l 78 1760 l 543 1760 q 774.5 1695 689 1760 q 897 1510 860 1630 q 934 1224 934 1390 q 903 945.5 934 1064 q 792.5 762 872 827 q 567 697 713 697 l 424 697 l 424 0 m 721 1907 l 721 2254 l 246 2036 l 246 1813 l 721 1907 m 424 1439 l 424 1013 l 444 1013 q 564 1068 542 1013 q 586 1230 586 1123 q 564.5 1384.5 586 1330 q 463 1439 543 1439 l 424 1439"},"Ṗ":{"ha":967,"x_min":78,"x_max":934,"o":"m 424 0 l 78 0 l 78 1760 l 543 1760 q 774.5 1695 689 1760 q 897 1510 860 1630 q 934 1224 934 1390 q 903 945.5 934 1064 q 792.5 762 872 827 q 567 697 713 697 l 424 697 l 424 0 m 662 1852 l 662 2150 l 304 2150 l 304 1852 l 662 1852 m 424 1439 l 424 1013 l 444 1013 q 564 1068 542 1013 q 586 1230 586 1123 q 564.5 1384.5 586 1330 q 463 1439 543 1439 l 424 1439"},"Ƥ":{"ha":1316,"x_min":5,"x_max":1283,"o":"m 773 0 l 427 0 l 427 1464 q 340 1428 368 1464 q 312 1312 312 1392 l 312 1252 l 5 1252 l 5 1312 q 110 1634.5 5 1509 q 427 1760 215 1760 l 892 1760 q 1123.5 1695 1038 1760 q 1246 1510 1209 1630 q 1283 1224 1283 1390 q 1252 945.5 1283 1064 q 1141.5 762 1221 827 q 916 697 1062 697 l 773 697 l 773 0 m 773 1439 l 773 1013 l 793 1013 q 913 1068 891 1013 q 935 1230 935 1123 q 913.5 1384.5 935 1330 q 812 1439 892 1439 l 773 1439"},"Ᵽ":{"ha":967,"x_min":0,"x_max":934,"o":"m 424 0 l 78 0 l 78 1115 l 0 1115 l 0 1347 l 78 1347 l 78 1760 l 543 1760 q 774.5 1695 689 1760 q 897 1510 860 1630 q 934 1224 934 1390 q 903 945.5 934 1064 q 792.5 762 872 827 q 567 697 713 697 l 424 697 l 424 0 m 424 1115 l 424 1013 l 444 1013 q 564 1068 542 1013 q 586 1230 586 1123 q 564.5 1384.5 586 1330 q 463 1439 543 1439 l 424 1439 l 424 1347 l 516 1347 l 516 1115 l 424 1115"},"Q":{"ha":1011,"x_min":54,"x_max":975,"o":"m 975 23 l 856 -187 l 576 -3 q 477 -16 528 -16 q 162.5 106 271 -16 q 54 462 54 228 l 54 1313 q 165.5 1658 54 1540 q 488 1776 277 1776 q 810.5 1658 699 1776 q 922 1313 922 1540 l 922 462 q 824 119 922 244 l 975 23 m 488 308 q 542.5 336 526 308 q 563.5 405 559 364 q 568 484 568 446 l 568 1307 q 552.5 1407.5 568 1363 q 486 1452 537 1452 q 418 1408.5 434 1452 q 402 1308 402 1365 l 402 477 q 406.5 402.5 402 442 q 429 335.5 411 363 q 488 308 447 308"},"Ɋ":{"ha":1049,"x_min":64,"x_max":1059,"o":"m 1059 120 l 1059 -196 q 833 -164 932 -196 q 677.5 -60.5 734 -132 q 621 130 621 11 l 621 133 q 514.5 17.5 582 51 q 363 -16 447 -16 q 170 45.5 234 -16 q 85 216 106 107 q 64 467 64 325 l 64 1294 q 85 1544.5 64 1436 q 170 1714.5 106 1653 q 363 1776 234 1776 q 500 1733 449 1776 q 581 1604 551 1690 l 581 1760 l 931 1760 l 931 253 q 961.5 151 931 182 q 1059 120 992 120 m 499 278 q 563.5 322 546 278 q 581 431 581 366 l 581 1330 q 563.5 1438.5 581 1395 q 499 1482 546 1482 q 431 1441.5 448 1482 q 414 1330 414 1401 l 414 431 q 431 319 414 360 q 499 278 448 278"},"R":{"ha":976,"x_min":78,"x_max":938,"o":"m 434 0 l 78 0 l 78 1760 l 618 1760 q 822 1698.5 753 1760 q 914.5 1526.5 891 1637 q 938 1267 938 1416 q 901.5 1037 938 1123 q 764 918 865 951 q 880.5 835.5 847 901 q 914 666 914 770 l 914 0 l 567 0 l 567 689 q 535.5 784.5 567 766 q 434 803 504 803 l 434 0 m 436 1434 l 436 1108 l 521 1108 q 594 1267 594 1108 q 578 1402 594 1370 q 518 1434 562 1434 l 436 1434"},"Ŕ":{"ha":976,"x_min":78,"x_max":938,"o":"m 434 0 l 78 0 l 78 1760 l 618 1760 q 822 1698.5 753 1760 q 914.5 1526.5 891 1637 q 938 1267 938 1416 q 901.5 1037 938 1123 q 764 918 865 951 q 880.5 835.5 847 901 q 914 666 914 770 l 914 0 l 567 0 l 567 689 q 535.5 784.5 567 766 q 434 803 504 803 l 434 0 m 716 1907 l 716 2254 l 241 2036 l 241 1813 l 716 1907 m 436 1434 l 436 1108 l 521 1108 q 594 1267 594 1108 q 578 1402 594 1370 q 518 1434 562 1434 l 436 1434"},"Ř":{"ha":976,"x_min":34,"x_max":938,"o":"m 434 0 l 78 0 l 78 1760 l 618 1760 q 822 1698.5 753 1760 q 914.5 1526.5 891 1637 q 938 1267 938 1416 q 901.5 1037 938 1123 q 764 918 865 951 q 880.5 835.5 847 901 q 914 666 914 770 l 914 0 l 567 0 l 567 689 q 535.5 784.5 567 766 q 434 803 504 803 l 434 0 m 683 1851 l 924 2254 l 565 2254 l 479 1969 l 393 2254 l 34 2254 l 275 1851 l 683 1851 m 436 1434 l 436 1108 l 521 1108 q 594 1267 594 1108 q 578 1402 594 1370 q 518 1434 562 1434 l 436 1434"},"Ŗ":{"ha":976,"x_min":78,"x_max":938,"o":"m 434 0 l 78 0 l 78 1760 l 618 1760 q 822 1698.5 753 1760 q 914.5 1526.5 891 1637 q 938 1267 938 1416 q 901.5 1037 938 1123 q 764 918 865 951 q 880.5 835.5 847 901 q 914 666 914 770 l 914 0 l 567 0 l 567 689 q 535.5 784.5 567 766 q 434 803 504 803 l 434 0 m 587 -643 l 689 -398 l 689 -109 l 315 -109 l 315 -407 l 442 -407 l 376 -643 l 587 -643 m 436 1434 l 436 1108 l 521 1108 q 594 1267 594 1108 q 578 1402 594 1370 q 518 1434 562 1434 l 436 1434"},"Ȑ":{"ha":976,"x_min":-7,"x_max":938,"o":"m 434 0 l 78 0 l 78 1760 l 618 1760 q 822 1698.5 753 1760 q 914.5 1526.5 891 1637 q 938 1267 938 1416 q 901.5 1037 938 1123 q 764 918 865 951 q 880.5 835.5 847 901 q 914 666 914 770 l 914 0 l 567 0 l 567 689 q 535.5 784.5 567 766 q 434 803 504 803 l 434 0 m 448 1904 l 227 2383 l -7 2275 l 282 1846 l 448 1904 m 750 1904 l 566 2383 l 336 2275 l 584 1846 l 750 1904 m 436 1434 l 436 1108 l 521 1108 q 594 1267 594 1108 q 578 1402 594 1370 q 518 1434 562 1434 l 436 1434"},"Ṙ":{"ha":976,"x_min":78,"x_max":938,"o":"m 434 0 l 78 0 l 78 1760 l 618 1760 q 822 1698.5 753 1760 q 914.5 1526.5 891 1637 q 938 1267 938 1416 q 901.5 1037 938 1123 q 764 918 865 951 q 880.5 835.5 847 901 q 914 666 914 770 l 914 0 l 567 0 l 567 689 q 535.5 784.5 567 766 q 434 803 504 803 l 434 0 m 658 1852 l 658 2150 l 300 2150 l 300 1852 l 658 1852 m 436 1434 l 436 1108 l 521 1108 q 594 1267 594 1108 q 578 1402 594 1370 q 518 1434 562 1434 l 436 1434"},"Ṛ":{"ha":976,"x_min":78,"x_max":938,"o":"m 434 0 l 78 0 l 78 1760 l 618 1760 q 822 1698.5 753 1760 q 914.5 1526.5 891 1637 q 938 1267 938 1416 q 901.5 1037 938 1123 q 764 918 865 951 q 880.5 835.5 847 901 q 914 666 914 770 l 914 0 l 567 0 l 567 689 q 535.5 784.5 567 766 q 434 803 504 803 l 434 0 m 694 -417 l 694 -119 l 336 -119 l 336 -417 l 694 -417 m 436 1434 l 436 1108 l 521 1108 q 594 1267 594 1108 q 578 1402 594 1370 q 518 1434 562 1434 l 436 1434"},"Ṝ":{"ha":976,"x_min":78,"x_max":938,"o":"m 434 0 l 78 0 l 78 1760 l 618 1760 q 822 1698.5 753 1760 q 914.5 1526.5 891 1637 q 938 1267 938 1416 q 901.5 1037 938 1123 q 764 918 865 951 q 880.5 835.5 847 901 q 914 666 914 770 l 914 0 l 567 0 l 567 689 q 535.5 784.5 567 766 q 434 803 504 803 l 434 0 m 694 -417 l 694 -119 l 336 -119 l 336 -417 l 694 -417 m 804 1879 l 804 2032 l 154 2032 l 154 1879 l 804 1879 m 436 1434 l 436 1108 l 521 1108 q 594 1267 594 1108 q 578 1402 594 1370 q 518 1434 562 1434 l 436 1434"},"Ȓ":{"ha":976,"x_min":78,"x_max":938,"o":"m 434 0 l 78 0 l 78 1760 l 618 1760 q 822 1698.5 753 1760 q 914.5 1526.5 891 1637 q 938 1267 938 1416 q 901.5 1037 938 1123 q 764 918 865 951 q 880.5 835.5 847 901 q 914 666 914 770 l 914 0 l 567 0 l 567 689 q 535.5 784.5 567 766 q 434 803 504 803 l 434 0 m 344 1868 q 382.5 1969 344 1936 q 479 2002 421 2002 q 576 1969 538 2002 q 614 1868 614 1936 l 850 1868 q 851.5 1887.5 851 1878 q 852 1902 852 1897 q 754.5 2144.5 852 2069 q 477 2220 657 2220 q 203.5 2146 302 2220 q 105 1909 105 2072 q 108 1868 105 1888 l 344 1868 m 436 1434 l 436 1108 l 521 1108 q 594 1267 594 1108 q 578 1402 594 1370 q 518 1434 562 1434 l 436 1434"},"Ṟ":{"ha":976,"x_min":78,"x_max":938,"o":"m 434 0 l 78 0 l 78 1760 l 618 1760 q 822 1698.5 753 1760 q 914.5 1526.5 891 1637 q 938 1267 938 1416 q 901.5 1037 938 1123 q 764 918 865 951 q 880.5 835.5 847 901 q 914 666 914 770 l 914 0 l 567 0 l 567 689 q 535.5 784.5 567 766 q 434 803 504 803 l 434 0 m 840 -272 l 840 -119 l 190 -119 l 190 -272 l 840 -272 m 436 1434 l 436 1108 l 521 1108 q 594 1267 594 1108 q 578 1402 594 1370 q 518 1434 562 1434 l 436 1434"},"Ɍ":{"ha":976,"x_min":0,"x_max":938,"o":"m 434 0 l 78 0 l 78 843 l 0 843 l 0 1075 l 78 1075 l 78 1760 l 618 1760 q 822 1698.5 753 1760 q 914.5 1526.5 891 1637 q 938 1267 938 1416 q 901.5 1037 938 1123 q 764 918 865 951 q 880.5 835.5 847 901 q 914 666 914 770 l 914 0 l 567 0 l 567 689 q 535.5 784.5 567 766 q 434 803 504 803 l 434 0 m 436 1434 l 436 1108 l 521 1108 q 594 1267 594 1108 q 578 1402 594 1370 q 518 1434 562 1434 l 436 1434"},"Ɽ":{"ha":976,"x_min":78,"x_max":938,"o":"m 504 120 l 504 -196 q 285.5 -147.5 382 -196 q 133.5 -4 189 -99 q 78 232 78 91 l 78 1760 l 618 1760 q 822 1698.5 753 1760 q 914.5 1526.5 891 1637 q 938 1267 938 1416 q 901.5 1037 938 1123 q 764 918 865 951 q 880.5 835.5 847 901 q 914 666 914 770 l 914 0 l 567 0 l 567 689 q 535.5 784.5 567 766 q 434 803 504 803 l 434 252 q 454 143.5 434 167 q 504 120 474 120 m 436 1434 l 436 1108 l 521 1108 q 594 1267 594 1108 q 578 1402 594 1370 q 518 1434 562 1434 l 436 1434"},"S":{"ha":945,"x_min":42,"x_max":906,"o":"m 496 -16 q 148.5 104 255 -16 q 42 486 42 224 l 42 658 l 390 658 l 390 438 q 408.5 342.5 390 377 q 473 308 427 308 q 539.5 336 521 308 q 558 428 558 364 q 542 563.5 558 509 q 486.5 667.5 526 618 q 377 783 447 717 l 219 933 q 42 1315 42 1100 q 146.5 1658 42 1540 q 449 1776 251 1776 q 792.5 1647 691 1776 q 894 1255 894 1518 l 536 1255 l 536 1376 q 515.5 1432 536 1412 q 460 1452 495 1452 q 398.5 1428.5 418 1452 q 379 1368 379 1405 q 399 1288 379 1331 q 478 1189 419 1245 l 681 994 q 793 871.5 742 936 q 875 721.5 844 807 q 906 513 906 636 q 814.5 124.5 906 265 q 496 -16 723 -16"},"Ś":{"ha":945,"x_min":42,"x_max":906,"o":"m 496 -16 q 148.5 104 255 -16 q 42 486 42 224 l 42 658 l 390 658 l 390 438 q 408.5 342.5 390 377 q 473 308 427 308 q 539.5 336 521 308 q 558 428 558 364 q 542 563.5 558 509 q 486.5 667.5 526 618 q 377 783 447 717 l 219 933 q 42 1315 42 1100 q 146.5 1658 42 1540 q 449 1776 251 1776 q 792.5 1647 691 1776 q 894 1255 894 1518 l 536 1255 l 536 1376 q 515.5 1432 536 1412 q 460 1452 495 1452 q 398.5 1428.5 418 1452 q 379 1368 379 1405 q 399 1288 379 1331 q 478 1189 419 1245 l 681 994 q 793 871.5 742 936 q 875 721.5 844 807 q 906 513 906 636 q 814.5 124.5 906 265 q 496 -16 723 -16 m 705 1907 l 705 2254 l 230 2036 l 230 1813 l 705 1907"},"Ṥ":{"ha":945,"x_min":42,"x_max":906,"o":"m 496 -16 q 148.5 104 255 -16 q 42 486 42 224 l 42 658 l 390 658 l 390 438 q 408.5 342.5 390 377 q 473 308 427 308 q 539.5 336 521 308 q 558 428 558 364 q 542 563.5 558 509 q 486.5 667.5 526 618 q 377 783 447 717 l 219 933 q 42 1315 42 1100 q 146.5 1658 42 1540 q 449 1776 251 1776 q 792.5 1647 691 1776 q 894 1255 894 1518 l 536 1255 l 536 1376 q 515.5 1432 536 1412 q 460 1452 495 1452 q 398.5 1428.5 418 1452 q 379 1368 379 1405 q 399 1288 379 1331 q 478 1189 419 1245 l 681 994 q 793 871.5 742 936 q 875 721.5 844 807 q 906 513 906 636 q 814.5 124.5 906 265 q 496 -16 723 -16 m 708 1866 l 708 2153 l 233 1985 l 233 1792 l 708 1866 m 649 2170 l 649 2428 l 291 2428 l 291 2170 l 649 2170"},"Ꞌ":{"ha":469,"x_min":55,"x_max":413,"o":"m 343 479 l 125 479 l 55 1760 l 413 1760 l 343 479"},"Š":{"ha":945,"x_min":23,"x_max":913,"o":"m 496 -16 q 148.5 104 255 -16 q 42 486 42 224 l 42 658 l 390 658 l 390 438 q 408.5 342.5 390 377 q 473 308 427 308 q 539.5 336 521 308 q 558 428 558 364 q 542 563.5 558 509 q 486.5 667.5 526 618 q 377 783 447 717 l 219 933 q 42 1315 42 1100 q 146.5 1658 42 1540 q 449 1776 251 1776 q 792.5 1647 691 1776 q 894 1255 894 1518 l 536 1255 l 536 1376 q 515.5 1432 536 1412 q 460 1452 495 1452 q 398.5 1428.5 418 1452 q 379 1368 379 1405 q 399 1288 379 1331 q 478 1189 419 1245 l 681 994 q 793 871.5 742 936 q 875 721.5 844 807 q 906 513 906 636 q 814.5 124.5 906 265 q 496 -16 723 -16 m 672 1851 l 913 2254 l 554 2254 l 468 1969 l 382 2254 l 23 2254 l 264 1851 l 672 1851"},"Ṧ":{"ha":945,"x_min":42,"x_max":906,"o":"m 496 -16 q 148.5 104 255 -16 q 42 486 42 224 l 42 658 l 390 658 l 390 438 q 408.5 342.5 390 377 q 473 308 427 308 q 539.5 336 521 308 q 558 428 558 364 q 542 563.5 558 509 q 486.5 667.5 526 618 q 377 783 447 717 l 219 933 q 42 1315 42 1100 q 146.5 1658 42 1540 q 449 1776 251 1776 q 792.5 1647 691 1776 q 894 1255 894 1518 l 536 1255 l 536 1376 q 515.5 1432 536 1412 q 460 1452 495 1452 q 398.5 1428.5 418 1452 q 379 1368 379 1405 q 399 1288 379 1331 q 478 1189 419 1245 l 681 994 q 793 871.5 742 936 q 875 721.5 844 807 q 906 513 906 636 q 814.5 124.5 906 265 q 496 -16 723 -16 m 618 1837 l 855 2092 l 570 2092 l 471 1956 l 372 2092 l 87 2092 l 324 1837 l 618 1837 m 649 2125 l 649 2383 l 291 2383 l 291 2125 l 649 2125"},"Ş":{"ha":945,"x_min":42,"x_max":906,"o":"m 496 -16 q 148.5 104 255 -16 q 42 486 42 224 l 42 658 l 390 658 l 390 438 q 408.5 342.5 390 377 q 473 308 427 308 q 539.5 336 521 308 q 558 428 558 364 q 542 563.5 558 509 q 486.5 667.5 526 618 q 377 783 447 717 l 219 933 q 42 1315 42 1100 q 146.5 1658 42 1540 q 449 1776 251 1776 q 792.5 1647 691 1776 q 894 1255 894 1518 l 536 1255 l 536 1376 q 515.5 1432 536 1412 q 460 1452 495 1452 q 398.5 1428.5 418 1452 q 379 1368 379 1405 q 399 1288 379 1331 q 478 1189 419 1245 l 681 994 q 793 871.5 742 936 q 875 721.5 844 807 q 906 513 906 636 q 814.5 124.5 906 265 q 496 -16 723 -16 m 450 -631 q 677 -560.5 606 -631 q 748 -387 748 -490 q 694.5 -189.5 748 -294 q 544 0 641 -85 l 383 0 q 459.5 -145 432 -73 q 487 -273 487 -217 q 453.5 -364.5 487 -338 q 370 -391 420 -391 q 313 -384.5 343 -391 q 252 -368 283 -378 l 252 -591 q 450 -631 347 -631"},"Ə":{"ha":1000,"x_min":64,"x_max":932,"o":"m 500 -16 q 277.5 30 375 -16 q 124 168 180 76 q 68 398 68 260 l 68 890 l 583 890 l 583 1319 q 562 1422 583 1392 q 500 1452 541 1452 q 436.5 1415 455 1452 q 418 1319 418 1378 l 418 1087 l 64 1087 l 64 1335 q 181 1671.5 64 1567 q 508 1776 298 1776 q 815.5 1657 699 1776 q 932 1324 932 1538 l 932 512 q 830.5 120 932 256 q 500 -16 729 -16 m 500 308 q 566 344 549 308 q 583 438 583 380 l 583 620 l 418 620 l 418 442 q 438 335.5 418 363 q 500 308 458 308"},"Ŝ":{"ha":945,"x_min":23,"x_max":913,"o":"m 496 -16 q 148.5 104 255 -16 q 42 486 42 224 l 42 658 l 390 658 l 390 438 q 408.5 342.5 390 377 q 473 308 427 308 q 539.5 336 521 308 q 558 428 558 364 q 542 563.5 558 509 q 486.5 667.5 526 618 q 377 783 447 717 l 219 933 q 42 1315 42 1100 q 146.5 1658 42 1540 q 449 1776 251 1776 q 792.5 1647 691 1776 q 894 1255 894 1518 l 536 1255 l 536 1376 q 515.5 1432 536 1412 q 460 1452 495 1452 q 398.5 1428.5 418 1452 q 379 1368 379 1405 q 399 1288 379 1331 q 478 1189 419 1245 l 681 994 q 793 871.5 742 936 q 875 721.5 844 807 q 906 513 906 636 q 814.5 124.5 906 265 q 496 -16 723 -16 m 382 1851 l 468 2136 l 554 1851 l 913 1851 l 672 2254 l 264 2254 l 23 1851 l 382 1851"},"Ș":{"ha":945,"x_min":42,"x_max":906,"o":"m 496 -16 q 148.5 104 255 -16 q 42 486 42 224 l 42 658 l 390 658 l 390 438 q 408.5 342.5 390 377 q 473 308 427 308 q 539.5 336 521 308 q 558 428 558 364 q 542 563.5 558 509 q 486.5 667.5 526 618 q 377 783 447 717 l 219 933 q 42 1315 42 1100 q 146.5 1658 42 1540 q 449 1776 251 1776 q 792.5 1647 691 1776 q 894 1255 894 1518 l 536 1255 l 536 1376 q 515.5 1432 536 1412 q 460 1452 495 1452 q 398.5 1428.5 418 1452 q 379 1368 379 1405 q 399 1288 379 1331 q 478 1189 419 1245 l 681 994 q 793 871.5 742 936 q 875 721.5 844 807 q 906 513 906 636 q 814.5 124.5 906 265 q 496 -16 723 -16 m 548 -643 l 650 -398 l 650 -109 l 276 -109 l 276 -407 l 403 -407 l 337 -643 l 548 -643"},"Ṡ":{"ha":945,"x_min":42,"x_max":906,"o":"m 496 -16 q 148.5 104 255 -16 q 42 486 42 224 l 42 658 l 390 658 l 390 438 q 408.5 342.5 390 377 q 473 308 427 308 q 539.5 336 521 308 q 558 428 558 364 q 542 563.5 558 509 q 486.5 667.5 526 618 q 377 783 447 717 l 219 933 q 42 1315 42 1100 q 146.5 1658 42 1540 q 449 1776 251 1776 q 792.5 1647 691 1776 q 894 1255 894 1518 l 536 1255 l 536 1376 q 515.5 1432 536 1412 q 460 1452 495 1452 q 398.5 1428.5 418 1452 q 379 1368 379 1405 q 399 1288 379 1331 q 478 1189 419 1245 l 681 994 q 793 871.5 742 936 q 875 721.5 844 807 q 906 513 906 636 q 814.5 124.5 906 265 q 496 -16 723 -16 m 647 1852 l 647 2150 l 289 2150 l 289 1852 l 647 1852"},"Ṣ":{"ha":945,"x_min":42,"x_max":906,"o":"m 496 -16 q 148.5 104 255 -16 q 42 486 42 224 l 42 658 l 390 658 l 390 438 q 408.5 342.5 390 377 q 473 308 427 308 q 539.5 336 521 308 q 558 428 558 364 q 542 563.5 558 509 q 486.5 667.5 526 618 q 377 783 447 717 l 219 933 q 42 1315 42 1100 q 146.5 1658 42 1540 q 449 1776 251 1776 q 792.5 1647 691 1776 q 894 1255 894 1518 l 536 1255 l 536 1376 q 515.5 1432 536 1412 q 460 1452 495 1452 q 398.5 1428.5 418 1452 q 379 1368 379 1405 q 399 1288 379 1331 q 478 1189 419 1245 l 681 994 q 793 871.5 742 936 q 875 721.5 844 807 q 906 513 906 636 q 814.5 124.5 906 265 q 496 -16 723 -16 m 655 -417 l 655 -119 l 297 -119 l 297 -417 l 655 -417"},"Ṩ":{"ha":945,"x_min":42,"x_max":906,"o":"m 496 -16 q 148.5 104 255 -16 q 42 486 42 224 l 42 658 l 390 658 l 390 438 q 408.5 342.5 390 377 q 473 308 427 308 q 539.5 336 521 308 q 558 428 558 364 q 542 563.5 558 509 q 486.5 667.5 526 618 q 377 783 447 717 l 219 933 q 42 1315 42 1100 q 146.5 1658 42 1540 q 449 1776 251 1776 q 792.5 1647 691 1776 q 894 1255 894 1518 l 536 1255 l 536 1376 q 515.5 1432 536 1412 q 460 1452 495 1452 q 398.5 1428.5 418 1452 q 379 1368 379 1405 q 399 1288 379 1331 q 478 1189 419 1245 l 681 994 q 793 871.5 742 936 q 875 721.5 844 807 q 906 513 906 636 q 814.5 124.5 906 265 q 496 -16 723 -16 m 655 -417 l 655 -119 l 297 -119 l 297 -417 l 655 -417 m 647 1852 l 647 2150 l 289 2150 l 289 1852 l 647 1852"},"Σ":{"ha":836,"x_min":62,"x_max":795,"o":"m 795 -119 l 62 -119 l 62 149 l 399 822 l 62 1455 l 62 1760 l 779 1760 l 779 1444 l 387 1444 l 692 866 l 692 790 l 387 176 l 795 176 l 795 -119"},"Ꞩ":{"ha":945,"x_min":42,"x_max":906,"o":"m 496 -16 q 148.5 104 255 -16 q 42 486 42 224 l 42 658 l 390 658 l 390 438 q 408.5 342.5 390 377 q 473 308 427 308 q 539.5 336 521 308 q 558 428 558 364 q 542 563.5 558 509 q 486.5 667.5 526 618 q 377 783 447 717 l 353 805 l 63 736 l 63 982 l 154 1004 q 42 1315 42 1143 q 146.5 1658 42 1540 q 449 1776 251 1776 q 792.5 1647 691 1776 q 894 1255 894 1518 l 536 1255 l 536 1376 q 515.5 1432 536 1412 q 460 1452 495 1452 q 398.5 1428.5 418 1452 q 379 1368 379 1405 q 399 1288 379 1331 q 478 1189 419 1245 l 568 1103 l 875 1176 l 875 930 l 767 904 q 866.5 742 827 833 q 906 513 906 651 q 814.5 124.5 906 265 q 496 -16 723 -16"},"T":{"ha":810,"x_min":20,"x_max":790,"o":"m 581 0 l 229 0 l 229 1422 l 20 1422 l 20 1760 l 790 1760 l 790 1422 l 581 1422 l 581 0"},"Ŧ":{"ha":810,"x_min":20,"x_max":790,"o":"m 20 1760 l 790 1760 l 790 1422 l 581 1422 l 581 985 l 727 985 l 727 752 l 581 752 l 581 0 l 229 0 l 229 752 l 77 752 l 77 985 l 229 985 l 229 1422 l 20 1422 l 20 1760"},"Ť":{"ha":810,"x_min":-40,"x_max":850,"o":"m 581 0 l 229 0 l 229 1422 l 20 1422 l 20 1760 l 790 1760 l 790 1422 l 581 1422 l 581 0 m 609 1851 l 850 2254 l 491 2254 l 405 1969 l 319 2254 l -40 2254 l 201 1851 l 609 1851"},"Ţ":{"ha":810,"x_min":20,"x_max":790,"o":"m 581 0 l 229 0 l 229 1422 l 20 1422 l 20 1760 l 790 1760 l 790 1422 l 581 1422 l 581 0 m 376 -631 q 603 -560.5 532 -631 q 674 -387 674 -490 q 620.5 -189.5 674 -294 q 470 0 567 -85 l 309 0 q 385.5 -145 358 -73 q 413 -273 413 -217 q 379.5 -364.5 413 -338 q 296 -391 346 -391 q 239 -384.5 269 -391 q 178 -368 209 -378 l 178 -591 q 376 -631 273 -631"},"Ṱ":{"ha":810,"x_min":-40,"x_max":850,"o":"m 581 0 l 229 0 l 229 1422 l 20 1422 l 20 1760 l 790 1760 l 790 1422 l 581 1422 l 581 0 m 319 -512 l 405 -227 l 491 -512 l 850 -512 l 609 -109 l 201 -109 l -40 -512 l 319 -512"},"Ț":{"ha":810,"x_min":20,"x_max":790,"o":"m 581 0 l 229 0 l 229 1422 l 20 1422 l 20 1760 l 790 1760 l 790 1422 l 581 1422 l 581 0 m 497 -643 l 599 -398 l 599 -109 l 225 -109 l 225 -407 l 352 -407 l 286 -643 l 497 -643"},"Ⱦ":{"ha":810,"x_min":6,"x_max":790,"o":"m 146 -186 l 6 -186 l 226 666 l 229 666 l 229 1422 l 20 1422 l 20 1760 l 557 1760 l 619 2000 l 759 2000 l 697 1760 l 790 1760 l 790 1422 l 581 1422 l 581 0 l 229 0 l 229 135 l 146 -186"},"Ṫ":{"ha":810,"x_min":20,"x_max":790,"o":"m 581 0 l 229 0 l 229 1422 l 20 1422 l 20 1760 l 790 1760 l 790 1422 l 581 1422 l 581 0 m 584 1852 l 584 2150 l 226 2150 l 226 1852 l 584 1852"},"Ṭ":{"ha":810,"x_min":20,"x_max":790,"o":"m 581 0 l 229 0 l 229 1422 l 20 1422 l 20 1760 l 790 1760 l 790 1422 l 581 1422 l 581 0 m 584 -417 l 584 -119 l 226 -119 l 226 -417 l 584 -417"},"Ƭ":{"ha":1000,"x_min":-5,"x_max":980,"o":"m 771 0 l 419 0 l 419 1422 l 418 1422 q 330 1386 358 1422 q 302 1270 302 1350 l 302 1252 l -5 1252 l -5 1312 q 41.5 1544 -5 1443 q 181.5 1702.5 88 1645 q 416 1760 275 1760 l 980 1760 l 980 1422 l 771 1422 l 771 0"},"Þ":{"ha":947,"x_min":62,"x_max":918,"o":"m 408 0 l 62 0 l 62 1760 l 407 1760 l 407 1516 l 527 1516 q 766 1446.5 681 1516 q 884.5 1254.5 851 1377 q 918 973 918 1132 q 890 698 918 820 q 783 505 862 576 q 551 434 704 434 l 408 434 l 408 0 m 408 1226 l 408 721 l 428 721 q 540 770 510 721 q 570 967 570 819 q 563 1102.5 570 1044 q 530.5 1193.5 556 1161 q 447 1226 505 1226 l 408 1226"},"Ṯ":{"ha":810,"x_min":20,"x_max":790,"o":"m 581 0 l 229 0 l 229 1422 l 20 1422 l 20 1760 l 790 1760 l 790 1422 l 581 1422 l 581 0 m 730 -272 l 730 -119 l 80 -119 l 80 -272 l 730 -272"},"Ʈ":{"ha":810,"x_min":20,"x_max":790,"o":"m 651 120 l 651 -196 q 348 -87.5 467 -196 q 229 232 229 21 l 229 1422 l 20 1422 l 20 1760 l 790 1760 l 790 1422 l 581 1422 l 581 252 q 601 143.5 581 167 q 651 120 621 120"},"U":{"ha":970,"x_min":57,"x_max":913,"o":"m 485 -16 q 161 107.5 265 -16 q 57 471 57 231 l 57 1760 l 399 1760 l 399 485 q 404 400.5 399 441 q 427 334 409 360 q 485 308 445 308 q 544 333.5 526 308 q 566.5 400 562 359 q 571 485 571 441 l 571 1760 l 913 1760 l 913 471 q 809 107.5 913 231 q 485 -16 705 -16"},"Ú":{"ha":970,"x_min":57,"x_max":913,"o":"m 485 -16 q 161 107.5 265 -16 q 57 471 57 231 l 57 1760 l 399 1760 l 399 485 q 404 400.5 399 441 q 427 334 409 360 q 485 308 445 308 q 544 333.5 526 308 q 566.5 400 562 359 q 571 485 571 441 l 571 1760 l 913 1760 l 913 471 q 809 107.5 913 231 q 485 -16 705 -16 m 722 1907 l 722 2254 l 247 2036 l 247 1813 l 722 1907"},"Ʉ":{"ha":1040,"x_min":-10,"x_max":1050,"o":"m 520 -16 q 196 107.5 300 -16 q 92 471 92 231 l 92 912 l -10 912 l -10 1132 l 92 1132 l 92 1760 l 434 1760 l 434 1132 l 606 1132 l 606 1760 l 948 1760 l 948 1132 l 1050 1132 l 1050 912 l 948 912 l 948 471 q 844 107.5 948 231 q 520 -16 740 -16 m 434 912 l 434 485 q 439 400.5 434 441 q 462 334 444 360 q 520 308 480 308 q 579 333.5 561 308 q 601.5 400 597 359 q 606 485 606 441 l 606 912 l 434 912"},"Ŭ":{"ha":970,"x_min":57,"x_max":913,"o":"m 485 -16 q 161 107.5 265 -16 q 57 471 57 231 l 57 1760 l 399 1760 l 399 485 q 404 400.5 399 441 q 427 334 409 360 q 485 308 445 308 q 544 333.5 526 308 q 566.5 400 562 359 q 571 485 571 441 l 571 1760 l 913 1760 l 913 471 q 809 107.5 913 231 q 485 -16 705 -16 m 488 1852 q 775.5 1927.5 668 1852 q 883 2170 883 2003 q 882.5 2185 883 2175 q 881 2205 882 2195 l 625 2205 q 596 2118.5 625 2148 q 490 2089 567 2089 q 384 2118.5 413 2089 q 355 2205 355 2148 l 99 2205 q 96 2163 96 2184 q 204.5 1926 96 2000 q 488 1852 313 1852"},"Ǔ":{"ha":970,"x_min":40,"x_max":930,"o":"m 485 -16 q 161 107.5 265 -16 q 57 471 57 231 l 57 1760 l 399 1760 l 399 485 q 404 400.5 399 441 q 427 334 409 360 q 485 308 445 308 q 544 333.5 526 308 q 566.5 400 562 359 q 571 485 571 441 l 571 1760 l 913 1760 l 913 471 q 809 107.5 913 231 q 485 -16 705 -16 m 689 1851 l 930 2254 l 571 2254 l 485 1969 l 399 2254 l 40 2254 l 281 1851 l 689 1851"},"Û":{"ha":970,"x_min":40,"x_max":930,"o":"m 485 -16 q 161 107.5 265 -16 q 57 471 57 231 l 57 1760 l 399 1760 l 399 485 q 404 400.5 399 441 q 427 334 409 360 q 485 308 445 308 q 544 333.5 526 308 q 566.5 400 562 359 q 571 485 571 441 l 571 1760 l 913 1760 l 913 471 q 809 107.5 913 231 q 485 -16 705 -16 m 399 1851 l 485 2136 l 571 1851 l 930 1851 l 689 2254 l 281 2254 l 40 1851 l 399 1851"},"Ṷ":{"ha":970,"x_min":40,"x_max":930,"o":"m 485 -16 q 161 107.5 265 -16 q 57 471 57 231 l 57 1760 l 399 1760 l 399 485 q 404 400.5 399 441 q 427 334 409 360 q 485 308 445 308 q 544 333.5 526 308 q 566.5 400 562 359 q 571 485 571 441 l 571 1760 l 913 1760 l 913 471 q 809 107.5 913 231 q 485 -16 705 -16 m 399 -512 l 485 -227 l 571 -512 l 930 -512 l 689 -109 l 281 -109 l 40 -512 l 399 -512"},"Ȕ":{"ha":970,"x_min":-1,"x_max":913,"o":"m 485 -16 q 161 107.5 265 -16 q 57 471 57 231 l 57 1760 l 399 1760 l 399 485 q 404 400.5 399 441 q 427 334 409 360 q 485 308 445 308 q 544 333.5 526 308 q 566.5 400 562 359 q 571 485 571 441 l 571 1760 l 913 1760 l 913 471 q 809 107.5 913 231 q 485 -16 705 -16 m 454 1904 l 233 2383 l -1 2275 l 288 1846 l 454 1904 m 756 1904 l 572 2383 l 342 2275 l 590 1846 l 756 1904"},"Ü":{"ha":970,"x_min":57,"x_max":913,"o":"m 485 -16 q 161 107.5 265 -16 q 57 471 57 231 l 57 1760 l 399 1760 l 399 485 q 404 400.5 399 441 q 427 334 409 360 q 485 308 445 308 q 544 333.5 526 308 q 566.5 400 562 359 q 571 485 571 441 l 571 1760 l 913 1760 l 913 471 q 809 107.5 913 231 q 485 -16 705 -16 m 899 1859 l 899 2157 l 541 2157 l 541 1859 l 899 1859 m 415 1859 l 415 2157 l 57 2157 l 57 1859 l 415 1859"},"Ǘ":{"ha":970,"x_min":57,"x_max":913,"o":"m 485 -16 q 161 107.5 265 -16 q 57 471 57 231 l 57 1760 l 399 1760 l 399 485 q 404 400.5 399 441 q 427 334 409 360 q 485 308 445 308 q 544 333.5 526 308 q 566.5 400 562 359 q 571 485 571 441 l 571 1760 l 913 1760 l 913 471 q 809 107.5 913 231 q 485 -16 705 -16 m 723 2268 l 723 2555 l 248 2387 l 248 2194 l 723 2268 m 906 1859 l 906 2107 l 548 2107 l 548 1859 l 906 1859 m 422 1859 l 422 2107 l 64 2107 l 64 1859 l 422 1859"},"Ṳ":{"ha":970,"x_min":57,"x_max":913,"o":"m 485 -16 q 161 107.5 265 -16 q 57 471 57 231 l 57 1760 l 399 1760 l 399 485 q 404 400.5 399 441 q 427 334 409 360 q 485 308 445 308 q 544 333.5 526 308 q 566.5 400 562 359 q 571 485 571 441 l 571 1760 l 913 1760 l 913 471 q 809 107.5 913 231 q 485 -16 705 -16 m 906 -417 l 906 -119 l 548 -119 l 548 -417 l 906 -417 m 422 -417 l 422 -119 l 64 -119 l 64 -417 l 422 -417"},"Ǚ":{"ha":970,"x_min":57,"x_max":913,"o":"m 485 -16 q 161 107.5 265 -16 q 57 471 57 231 l 57 1760 l 399 1760 l 399 485 q 404 400.5 399 441 q 427 334 409 360 q 485 308 445 308 q 544 333.5 526 308 q 566.5 400 562 359 q 571 485 571 441 l 571 1760 l 913 1760 l 913 471 q 809 107.5 913 231 q 485 -16 705 -16 m 632 2204 l 869 2459 l 584 2459 l 485 2323 l 386 2459 l 101 2459 l 338 2204 l 632 2204 m 906 1857 l 906 2105 l 548 2105 l 548 1857 l 906 1857 m 422 1857 l 422 2105 l 64 2105 l 64 1857 l 422 1857"},"Ǜ":{"ha":970,"x_min":57,"x_max":913,"o":"m 485 -16 q 161 107.5 265 -16 q 57 471 57 231 l 57 1760 l 399 1760 l 399 485 q 404 400.5 399 441 q 427 334 409 360 q 485 308 445 308 q 544 333.5 526 308 q 566.5 400 562 359 q 571 485 571 441 l 571 1760 l 913 1760 l 913 471 q 809 107.5 913 231 q 485 -16 705 -16 m 722 2387 l 247 2555 l 247 2268 l 722 2194 l 722 2387 m 906 1859 l 906 2107 l 548 2107 l 548 1859 l 906 1859 m 422 1859 l 422 2107 l 64 2107 l 64 1859 l 422 1859"},"Ǖ":{"ha":970,"x_min":57,"x_max":913,"o":"m 485 -16 q 161 107.5 265 -16 q 57 471 57 231 l 57 1760 l 399 1760 l 399 485 q 404 400.5 399 441 q 427 334 409 360 q 485 308 445 308 q 544 333.5 526 308 q 566.5 400 562 359 q 571 485 571 441 l 571 1760 l 913 1760 l 913 471 q 809 107.5 913 231 q 485 -16 705 -16 m 810 2216 l 810 2369 l 160 2369 l 160 2216 l 810 2216 m 906 1859 l 906 2107 l 548 2107 l 548 1859 l 906 1859 m 422 1859 l 422 2107 l 64 2107 l 64 1859 l 422 1859"},"Ụ":{"ha":970,"x_min":57,"x_max":913,"o":"m 485 -16 q 161 107.5 265 -16 q 57 471 57 231 l 57 1760 l 399 1760 l 399 485 q 404 400.5 399 441 q 427 334 409 360 q 485 308 445 308 q 544 333.5 526 308 q 566.5 400 562 359 q 571 485 571 441 l 571 1760 l 913 1760 l 913 471 q 809 107.5 913 231 q 485 -16 705 -16 m 664 -417 l 664 -119 l 306 -119 l 306 -417 l 664 -417"},"Ù":{"ha":970,"x_min":57,"x_max":913,"o":"m 485 -16 q 161 107.5 265 -16 q 57 471 57 231 l 57 1760 l 399 1760 l 399 485 q 404 400.5 399 441 q 427 334 409 360 q 485 308 445 308 q 544 333.5 526 308 q 566.5 400 562 359 q 571 485 571 441 l 571 1760 l 913 1760 l 913 471 q 809 107.5 913 231 q 485 -16 705 -16 m 722 2036 l 247 2254 l 247 1907 l 722 1813 l 722 2036"},"Ủ":{"ha":970,"x_min":57,"x_max":913,"o":"m 485 -16 q 161 107.5 265 -16 q 57 471 57 231 l 57 1760 l 399 1760 l 399 485 q 404 400.5 399 441 q 427 334 409 360 q 485 308 445 308 q 544 333.5 526 308 q 566.5 400 562 359 q 571 485 571 441 l 571 1760 l 913 1760 l 913 471 q 809 107.5 913 231 q 485 -16 705 -16 m 456 1837 q 650 1945.5 572 1873 q 728 2145 728 2018 q 657.5 2320.5 728 2258 q 462 2383 587 2383 q 279 2350 367 2383 l 279 2170 q 369 2186 322 2186 q 470 2091 470 2186 q 437 2011 470 2041 q 350 1961 404 1981 l 456 1837"},"Ư":{"ha":1083,"x_min":57,"x_max":1093,"o":"m 485 -16 q 161 107.5 265 -16 q 57 471 57 231 l 57 1760 l 399 1760 l 399 485 q 404 400.5 399 441 q 427 334 409 360 q 485 308 445 308 q 544 333.5 526 308 q 566.5 400 562 359 q 571 485 571 441 l 571 1760 l 700 1760 q 815 1885 815 1760 l 815 1908 l 1093 1908 l 1093 1893 q 1043 1686 1093 1762 q 913 1577 993 1610 l 913 471 q 809 107.5 913 231 q 485 -16 705 -16"},"Ứ":{"ha":1083,"x_min":57,"x_max":1093,"o":"m 485 -16 q 161 107.5 265 -16 q 57 471 57 231 l 57 1760 l 399 1760 l 399 485 q 404 400.5 399 441 q 427 334 409 360 q 485 308 445 308 q 544 333.5 526 308 q 566.5 400 562 359 q 571 485 571 441 l 571 1760 l 700 1760 q 815 1885 815 1760 l 815 1908 l 1093 1908 l 1093 1893 q 1043 1686 1093 1762 q 913 1577 993 1610 l 913 471 q 809 107.5 913 231 q 485 -16 705 -16 m 723 1871 l 723 2158 l 248 1990 l 248 1797 l 723 1871"},"Ự":{"ha":1083,"x_min":57,"x_max":1093,"o":"m 485 -16 q 161 107.5 265 -16 q 57 471 57 231 l 57 1760 l 399 1760 l 399 485 q 404 400.5 399 441 q 427 334 409 360 q 485 308 445 308 q 544 333.5 526 308 q 566.5 400 562 359 q 571 485 571 441 l 571 1760 l 700 1760 q 815 1885 815 1760 l 815 1908 l 1093 1908 l 1093 1893 q 1043 1686 1093 1762 q 913 1577 993 1610 l 913 471 q 809 107.5 913 231 q 485 -16 705 -16 m 664 -417 l 664 -119 l 306 -119 l 306 -417 l 664 -417"},"Ừ":{"ha":1083,"x_min":57,"x_max":1093,"o":"m 485 -16 q 161 107.5 265 -16 q 57 471 57 231 l 57 1760 l 399 1760 l 399 485 q 404 400.5 399 441 q 427 334 409 360 q 485 308 445 308 q 544 333.5 526 308 q 566.5 400 562 359 q 571 485 571 441 l 571 1760 l 700 1760 q 815 1885 815 1760 l 815 1908 l 1093 1908 l 1093 1893 q 1043 1686 1093 1762 q 913 1577 993 1610 l 913 471 q 809 107.5 913 231 q 485 -16 705 -16 m 722 1990 l 247 2158 l 247 1871 l 722 1797 l 722 1990"},"Ử":{"ha":1083,"x_min":57,"x_max":1093,"o":"m 485 -16 q 161 107.5 265 -16 q 57 471 57 231 l 57 1760 l 399 1760 l 399 485 q 404 400.5 399 441 q 427 334 409 360 q 485 308 445 308 q 544 333.5 526 308 q 566.5 400 562 359 q 571 485 571 441 l 571 1760 l 700 1760 q 815 1885 815 1760 l 815 1908 l 1093 1908 l 1093 1893 q 1043 1686 1093 1762 q 913 1577 993 1610 l 913 471 q 809 107.5 913 231 q 485 -16 705 -16 m 456 1837 q 650 1945.5 572 1873 q 728 2145 728 2018 q 657.5 2320.5 728 2258 q 462 2383 587 2383 q 279 2350 367 2383 l 279 2170 q 369 2186 322 2186 q 470 2091 470 2186 q 437 2011 470 2041 q 350 1961 404 1981 l 456 1837"},"Ữ":{"ha":1083,"x_min":57,"x_max":1093,"o":"m 485 -16 q 161 107.5 265 -16 q 57 471 57 231 l 57 1760 l 399 1760 l 399 485 q 404 400.5 399 441 q 427 334 409 360 q 485 308 445 308 q 544 333.5 526 308 q 566.5 400 562 359 q 571 485 571 441 l 571 1760 l 700 1760 q 815 1885 815 1760 l 815 1908 l 1093 1908 l 1093 1893 q 1043 1686 1093 1762 q 913 1577 993 1610 l 913 471 q 809 107.5 913 231 q 485 -16 705 -16 m 600 1841 q 720.5 1875 675 1841 q 795 1964.5 766 1909 q 848 2082 824 2020 l 682 2136 q 639 2078 662 2095 q 589 2061 616 2061 q 516 2082 551 2061 q 435.5 2124 481 2103 q 319 2145 390 2145 q 201.5 2117 247 2145 q 126.5 2043 156 2089 q 72 1942 97 1997 l 220 1864 q 263 1917 240 1902 q 312 1932 286 1932 q 390.5 1909.5 353 1932 q 477 1864 428 1887 q 600 1841 526 1841"},"Ű":{"ha":970,"x_min":57,"x_max":1003,"o":"m 485 -16 q 161 107.5 265 -16 q 57 471 57 231 l 57 1760 l 399 1760 l 399 485 q 404 400.5 399 441 q 427 334 409 360 q 485 308 445 308 q 544 333.5 526 308 q 566.5 400 562 359 q 571 485 571 441 l 571 1760 l 913 1760 l 913 471 q 809 107.5 913 231 q 485 -16 705 -16 m 1003 2295 l 769 2403 l 548 1924 l 714 1866 l 1003 2295 m 660 2295 l 430 2403 l 246 1924 l 412 1866 l 660 2295"},"Ȗ":{"ha":970,"x_min":57,"x_max":913,"o":"m 485 -16 q 161 107.5 265 -16 q 57 471 57 231 l 57 1760 l 399 1760 l 399 485 q 404 400.5 399 441 q 427 334 409 360 q 485 308 445 308 q 544 333.5 526 308 q 566.5 400 562 359 q 571 485 571 441 l 571 1760 l 913 1760 l 913 471 q 809 107.5 913 231 q 485 -16 705 -16 m 350 1868 q 388.5 1969 350 1936 q 485 2002 427 2002 q 582 1969 544 2002 q 620 1868 620 1936 l 856 1868 q 857.5 1887.5 857 1878 q 858 1902 858 1897 q 760.5 2144.5 858 2069 q 483 2220 663 2220 q 209.5 2146 308 2220 q 111 1909 111 2072 q 114 1868 111 1888 l 350 1868"},"Ū":{"ha":970,"x_min":57,"x_max":913,"o":"m 485 -16 q 161 107.5 265 -16 q 57 471 57 231 l 57 1760 l 399 1760 l 399 485 q 404 400.5 399 441 q 427 334 409 360 q 485 308 445 308 q 544 333.5 526 308 q 566.5 400 562 359 q 571 485 571 441 l 571 1760 l 913 1760 l 913 471 q 809 107.5 913 231 q 485 -16 705 -16 m 806 1879 l 806 2032 l 156 2032 l 156 1879 l 806 1879"},"Ṻ":{"ha":970,"x_min":57,"x_max":913,"o":"m 485 -16 q 161 107.5 265 -16 q 57 471 57 231 l 57 1760 l 399 1760 l 399 485 q 404 400.5 399 441 q 427 334 409 360 q 485 308 445 308 q 544 333.5 526 308 q 566.5 400 562 359 q 571 485 571 441 l 571 1760 l 913 1760 l 913 471 q 809 107.5 913 231 q 485 -16 705 -16 m 810 1878 l 810 2031 l 160 2031 l 160 1878 l 810 1878 m 906 2129 l 906 2377 l 548 2377 l 548 2129 l 906 2129 m 422 2129 l 422 2377 l 64 2377 l 64 2129 l 422 2129"},"Ų":{"ha":970,"x_min":57,"x_max":913,"o":"m 485 -16 q 161 107.5 265 -16 q 57 471 57 231 l 57 1760 l 399 1760 l 399 485 q 404 400.5 399 441 q 427 334 409 360 q 485 308 445 308 q 544 333.5 526 308 q 566.5 400 562 359 q 571 485 571 441 l 571 1760 l 913 1760 l 913 471 q 809 107.5 913 231 q 485 -16 705 -16 m 492 -631 q 690 -591 595 -631 l 690 -368 q 574 -391 623 -391 q 459 -279 459 -391 q 511 -127 459 -196 q 619 0 563 -58 l 408 0 q 144 -330 144 -148 q 191.5 -491.5 144 -424 q 318 -595 239 -559 q 492 -631 397 -631"},"Ʊ":{"ha":992,"x_min":47,"x_max":945,"o":"m 496 -16 q 180 90.5 288 -16 q 72 402 72 197 l 72 958 q 169 1422 72 1274 l 47 1422 l 47 1760 l 463 1760 l 463 1421 q 430 1376 441 1404 q 415 1282.5 419 1348 q 411 1087 411 1217 l 411 380 q 427.5 292 411 328 q 496 256 444 256 q 564.5 292 548 256 q 581 380 581 328 l 581 1087 q 577 1282.5 581 1217 q 562 1376 573 1348 q 529 1421 551 1404 l 529 1760 l 945 1760 l 945 1422 l 823 1422 q 920 958 920 1274 l 920 402 q 812.5 90.5 920 197 q 496 -16 705 -16"},"Ů":{"ha":970,"x_min":57,"x_max":913,"o":"m 485 -16 q 161 107.5 265 -16 q 57 471 57 231 l 57 1760 l 399 1760 l 399 485 q 404 400.5 399 441 q 427 334 409 360 q 485 308 445 308 q 544 333.5 526 308 q 566.5 400 562 359 q 571 485 571 441 l 571 1760 l 913 1760 l 913 471 q 809 107.5 913 231 q 485 -16 705 -16 m 484 1840 q 741.5 1930 645 1840 q 838 2178 838 2020 q 741.5 2426 838 2336 q 484 2516 645 2516 q 227.5 2426 324 2516 q 131 2178 131 2336 q 227.5 1929.5 131 2019 q 484 1840 324 1840 m 485 2021 q 589.5 2067 552 2021 q 627 2178 627 2113 q 589.5 2289 627 2243 q 485 2335 552 2335 q 380.5 2289 418 2335 q 343 2178 343 2243 q 380.5 2067 343 2113 q 485 2021 418 2021"},"Ũ":{"ha":970,"x_min":57,"x_max":913,"o":"m 485 -16 q 161 107.5 265 -16 q 57 471 57 231 l 57 1760 l 399 1760 l 399 485 q 404 400.5 399 441 q 427 334 409 360 q 485 308 445 308 q 544 333.5 526 308 q 566.5 400 562 359 q 571 485 571 441 l 571 1760 l 913 1760 l 913 471 q 809 107.5 913 231 q 485 -16 705 -16 m 650 1871 q 770.5 1908 725 1871 q 845 2005 816 1945 q 898 2132 874 2065 l 732 2186 q 689 2128 712 2145 q 639 2111 666 2111 q 552.5 2132 600 2111 q 447.5 2174 505 2153 q 319 2195 390 2195 q 202 2164.5 248 2195 q 126.5 2083.5 156 2134 q 72 1972 97 2033 l 220 1894 q 263 1947 240 1932 q 312 1962 286 1962 q 403 1939.5 353 1962 q 514.5 1894 453 1917 q 650 1871 576 1871"},"Ṹ":{"ha":970,"x_min":57,"x_max":913,"o":"m 485 -16 q 161 107.5 265 -16 q 57 471 57 231 l 57 1760 l 399 1760 l 399 485 q 404 400.5 399 441 q 427 334 409 360 q 485 308 445 308 q 544 333.5 526 308 q 566.5 400 562 359 q 571 485 571 441 l 571 1760 l 913 1760 l 913 471 q 809 107.5 913 231 q 485 -16 705 -16 m 650 1841 q 770.5 1875 725 1841 q 845 1964.5 816 1909 q 898 2082 874 2020 l 732 2136 q 689 2078 712 2095 q 639 2061 666 2061 q 554 2082 601 2061 q 448.5 2124 507 2103 q 319 2145 390 2145 q 202 2117 248 2145 q 126.5 2043 156 2089 q 72 1942 97 1997 l 220 1864 q 263 1917 240 1902 q 312 1932 286 1932 q 403 1909.5 353 1932 q 514.5 1864 453 1887 q 650 1841 576 1841 m 723 2278 l 723 2565 l 248 2397 l 248 2204 l 723 2278"},"Ṵ":{"ha":970,"x_min":57,"x_max":913,"o":"m 485 -16 q 161 107.5 265 -16 q 57 471 57 231 l 57 1760 l 399 1760 l 399 485 q 404 400.5 399 441 q 427 334 409 360 q 485 308 445 308 q 544 333.5 526 308 q 566.5 400 562 359 q 571 485 571 441 l 571 1760 l 913 1760 l 913 471 q 809 107.5 913 231 q 485 -16 705 -16 m 650 -435 q 770.5 -398 725 -435 q 845 -301 816 -361 q 898 -174 874 -241 l 732 -120 q 689 -178 712 -161 q 639 -195 666 -195 q 552.5 -174 600 -195 q 447.5 -132 505 -153 q 319 -111 390 -111 q 202 -141.5 248 -111 q 126.5 -222.5 156 -172 q 72 -334 97 -273 l 220 -412 q 263 -359 240 -374 q 312 -344 286 -344 q 403 -366.5 353 -344 q 514.5 -412 453 -389 q 650 -435 576 -435"},"V":{"ha":961,"x_min":23,"x_max":937,"o":"m 720 0 l 240 0 l 23 1761 l 358 1761 l 487 563 l 602 1761 l 937 1761 l 720 0"},"Ṿ":{"ha":961,"x_min":23,"x_max":937,"o":"m 720 0 l 240 0 l 23 1761 l 358 1761 l 487 563 l 602 1761 l 937 1761 l 720 0 m 660 -417 l 660 -119 l 302 -119 l 302 -417 l 660 -417"},"Ʋ":{"ha":911,"x_min":23,"x_max":887,"o":"m 717 0 l 239 0 l 23 1749 l 357 1749 l 485 560 l 564 1367 q 565 1379 565 1373 q 565 1390 565 1385 q 501 1461 565 1461 l 501 1762 q 792 1682.5 697 1762 q 887 1421 887 1603 q 879 1306 887 1372 l 717 0"},"Ṽ":{"ha":961,"x_min":23,"x_max":937,"o":"m 720 0 l 240 0 l 23 1761 l 358 1761 l 487 563 l 602 1761 l 937 1761 l 720 0 m 646 1871 q 766.5 1908 721 1871 q 841 2005 812 1945 q 894 2132 870 2065 l 728 2186 q 685 2128 708 2145 q 635 2111 662 2111 q 549.5 2132 596 2111 q 446 2174 503 2153 q 315 2195 389 2195 q 198 2164.5 244 2195 q 122.5 2083.5 152 2134 q 68 1972 93 2033 l 216 1894 q 259 1947 236 1932 q 308 1962 282 1962 q 402.5 1939.5 354 1962 q 510 1894 451 1917 q 646 1871 569 1871"},"Ʌ":{"ha":961,"x_min":24,"x_max":938,"o":"m 241 1760 l 721 1760 l 938 -1 l 603 -1 l 474 1197 l 359 -1 l 24 -1 l 241 1760"},"W":{"ha":1458,"x_min":27,"x_max":1431,"o":"m 645 0 l 216 0 l 27 1760 l 371 1760 l 468 649 l 567 1760 l 895 1760 l 989 649 l 1083 1760 l 1431 1760 l 1239 0 l 817 0 l 729 847 l 645 0"},"Ẃ":{"ha":1458,"x_min":27,"x_max":1431,"o":"m 645 0 l 216 0 l 27 1760 l 371 1760 l 468 649 l 567 1760 l 895 1760 l 989 649 l 1083 1760 l 1431 1760 l 1239 0 l 817 0 l 729 847 l 645 0 m 980 1907 l 980 2254 l 505 2036 l 505 1813 l 980 1907"},"Ŵ":{"ha":1458,"x_min":27,"x_max":1431,"o":"m 645 0 l 216 0 l 27 1760 l 371 1760 l 468 649 l 567 1760 l 895 1760 l 989 649 l 1083 1760 l 1431 1760 l 1239 0 l 817 0 l 729 847 l 645 0 m 657 1851 l 743 2136 l 829 1851 l 1188 1851 l 947 2254 l 539 2254 l 298 1851 l 657 1851"},"Ẅ":{"ha":1458,"x_min":27,"x_max":1431,"o":"m 645 0 l 216 0 l 27 1760 l 371 1760 l 468 649 l 567 1760 l 895 1760 l 989 649 l 1083 1760 l 1431 1760 l 1239 0 l 817 0 l 729 847 l 645 0 m 1157 1859 l 1157 2157 l 799 2157 l 799 1859 l 1157 1859 m 673 1859 l 673 2157 l 315 2157 l 315 1859 l 673 1859"},"Ẇ":{"ha":1458,"x_min":27,"x_max":1431,"o":"m 645 0 l 216 0 l 27 1760 l 371 1760 l 468 649 l 567 1760 l 895 1760 l 989 649 l 1083 1760 l 1431 1760 l 1239 0 l 817 0 l 729 847 l 645 0 m 922 1852 l 922 2150 l 564 2150 l 564 1852 l 922 1852"},"Ẉ":{"ha":1458,"x_min":27,"x_max":1431,"o":"m 645 0 l 216 0 l 27 1760 l 371 1760 l 468 649 l 567 1760 l 895 1760 l 989 649 l 1083 1760 l 1431 1760 l 1239 0 l 817 0 l 729 847 l 645 0 m 908 -417 l 908 -119 l 550 -119 l 550 -417 l 908 -417"},"Ẁ":{"ha":1458,"x_min":27,"x_max":1431,"o":"m 645 0 l 216 0 l 27 1760 l 371 1760 l 468 649 l 567 1760 l 895 1760 l 989 649 l 1083 1760 l 1431 1760 l 1239 0 l 817 0 l 729 847 l 645 0 m 980 2036 l 505 2254 l 505 1907 l 980 1813 l 980 2036"},"Ⱳ":{"ha":1495,"x_min":26,"x_max":1505,"o":"m 646 0 l 215 0 l 26 1760 l 371 1760 l 469 647 l 568 1760 l 897 1760 l 992 647 l 1056 1417 q 1175.5 1689.5 1072 1604 q 1505 1775 1279 1775 l 1505 1471 q 1414.5 1433.5 1435 1471 q 1385 1315 1394 1396 l 1242 0 l 819 0 l 730 846 l 646 0"},"X":{"ha":991,"x_min":27,"x_max":965,"o":"m 384 0 l 27 0 l 216 933 l 66 1761 l 410 1761 l 501 1156 l 582 1761 l 927 1761 l 777 933 l 965 0 l 609 0 l 498 688 l 384 0"},"Ẍ":{"ha":991,"x_min":27,"x_max":965,"o":"m 384 0 l 27 0 l 216 933 l 66 1761 l 410 1761 l 501 1156 l 582 1761 l 927 1761 l 777 933 l 965 0 l 609 0 l 498 688 l 384 0 m 910 1859 l 910 2157 l 552 2157 l 552 1859 l 910 1859 m 426 1859 l 426 2157 l 68 2157 l 68 1859 l 426 1859"},"Ẋ":{"ha":991,"x_min":27,"x_max":965,"o":"m 384 0 l 27 0 l 216 933 l 66 1761 l 410 1761 l 501 1156 l 582 1761 l 927 1761 l 777 933 l 965 0 l 609 0 l 498 688 l 384 0 m 675 1852 l 675 2150 l 317 2150 l 317 1852 l 675 1852"},"Y":{"ha":914,"x_min":10,"x_max":903,"o":"m 623 0 l 291 0 l 291 579 l 10 1760 l 359 1760 l 457 1164 l 555 1760 l 903 1760 l 623 579 l 623 0"},"Ý":{"ha":914,"x_min":10,"x_max":903,"o":"m 623 0 l 291 0 l 291 579 l 10 1760 l 359 1760 l 457 1164 l 555 1760 l 903 1760 l 623 579 l 623 0 m 693 1907 l 693 2254 l 218 2036 l 218 1813 l 693 1907"},"Ŷ":{"ha":914,"x_min":10,"x_max":903,"o":"m 623 0 l 291 0 l 291 579 l 10 1760 l 359 1760 l 457 1164 l 555 1760 l 903 1760 l 623 579 l 623 0 m 370 1851 l 456 2136 l 542 1851 l 901 1851 l 660 2254 l 252 2254 l 11 1851 l 370 1851"},"Ÿ":{"ha":914,"x_min":10,"x_max":903,"o":"m 623 0 l 291 0 l 291 579 l 10 1760 l 359 1760 l 457 1164 l 555 1760 l 903 1760 l 623 579 l 623 0 m 870 1859 l 870 2157 l 512 2157 l 512 1859 l 870 1859 m 386 1859 l 386 2157 l 28 2157 l 28 1859 l 386 1859"},"Ẏ":{"ha":914,"x_min":10,"x_max":903,"o":"m 623 0 l 291 0 l 291 579 l 10 1760 l 359 1760 l 457 1164 l 555 1760 l 903 1760 l 623 579 l 623 0 m 635 1852 l 635 2110 l 277 2110 l 277 1852 l 635 1852"},"Ỵ":{"ha":914,"x_min":10,"x_max":903,"o":"m 623 0 l 291 0 l 291 579 l 10 1760 l 359 1760 l 457 1164 l 555 1760 l 903 1760 l 623 579 l 623 0 m 636 -417 l 636 -119 l 278 -119 l 278 -417 l 636 -417"},"Ỳ":{"ha":914,"x_min":10,"x_max":903,"o":"m 623 0 l 291 0 l 291 579 l 10 1760 l 359 1760 l 457 1164 l 555 1760 l 903 1760 l 623 579 l 623 0 m 693 2036 l 218 2254 l 218 1907 l 693 1813 l 693 2036"},"Ƴ":{"ha":934,"x_min":10,"x_max":944,"o":"m 623 0 l 289 0 l 289 589 l 10 1760 l 359 1760 l 457 1165 l 499 1420 q 567 1621.5 520 1543 q 704.5 1737 614 1700 q 944 1774 795 1774 l 944 1473 q 846.5 1436 875 1473 q 798 1319 818 1399 l 623 589 l 623 0"},"Ỷ":{"ha":914,"x_min":10,"x_max":903,"o":"m 623 0 l 291 0 l 291 579 l 10 1760 l 359 1760 l 457 1164 l 555 1760 l 903 1760 l 623 579 l 623 0 m 427 1837 q 621 1945.5 543 1873 q 699 2145 699 2018 q 628.5 2320.5 699 2258 q 433 2383 558 2383 q 250 2350 338 2383 l 250 2170 q 340 2186 293 2186 q 441 2091 441 2186 q 408 2011 441 2041 q 321 1961 375 1981 l 427 1837"},"Ȳ":{"ha":914,"x_min":10,"x_max":903,"o":"m 623 0 l 291 0 l 291 579 l 10 1760 l 359 1760 l 457 1164 l 555 1760 l 903 1760 l 623 579 l 623 0 m 782 1879 l 782 2032 l 132 2032 l 132 1879 l 782 1879"},"Ɏ":{"ha":913,"x_min":10,"x_max":903,"o":"m 623 0 l 291 0 l 291 579 l 170 1086 l 16 1086 l 16 1306 l 118 1306 l 10 1760 l 359 1760 l 457 1164 l 555 1760 l 903 1760 l 795 1306 l 897 1306 l 897 1086 l 743 1086 l 623 579 l 623 0"},"Ỹ":{"ha":914,"x_min":10,"x_max":903,"o":"m 623 0 l 291 0 l 291 579 l 10 1760 l 359 1760 l 457 1164 l 555 1760 l 903 1760 l 623 579 l 623 0 m 621 1871 q 741.5 1908 696 1871 q 816 2005 787 1945 q 869 2132 845 2065 l 703 2186 q 660 2128 683 2145 q 610 2111 637 2111 q 523.5 2132 571 2111 q 418.5 2174 476 2153 q 290 2195 361 2195 q 173 2164.5 219 2195 q 97.5 2083.5 127 2134 q 43 1972 68 2033 l 191 1894 q 234 1947 211 1932 q 283 1962 257 1962 q 374 1939.5 324 1962 q 485.5 1894 424 1917 q 621 1871 547 1871"},"Z":{"ha":840,"x_min":32,"x_max":806,"o":"m 789 0 l 32 0 l 32 320 l 435 1436 l 71 1436 l 71 1760 l 806 1760 l 806 1452 l 396 324 l 789 324 l 789 0"},"Ź":{"ha":840,"x_min":32,"x_max":806,"o":"m 789 0 l 32 0 l 32 320 l 435 1436 l 71 1436 l 71 1760 l 806 1760 l 806 1452 l 396 324 l 789 324 l 789 0 m 676 1907 l 676 2254 l 201 2036 l 201 1813 l 676 1907"},"Ž":{"ha":840,"x_min":-6,"x_max":884,"o":"m 789 0 l 32 0 l 32 320 l 435 1436 l 71 1436 l 71 1760 l 806 1760 l 806 1452 l 396 324 l 789 324 l 789 0 m 643 1851 l 884 2254 l 525 2254 l 439 1969 l 353 2254 l -6 2254 l 235 1851 l 643 1851"},"Ẑ":{"ha":840,"x_min":-6,"x_max":884,"o":"m 789 0 l 32 0 l 32 320 l 435 1436 l 71 1436 l 71 1760 l 806 1760 l 806 1452 l 396 324 l 789 324 l 789 0 m 353 1851 l 439 2136 l 525 1851 l 884 1851 l 643 2254 l 235 2254 l -6 1851 l 353 1851"},"Ż":{"ha":840,"x_min":32,"x_max":806,"o":"m 789 0 l 32 0 l 32 320 l 435 1436 l 71 1436 l 71 1760 l 806 1760 l 806 1452 l 396 324 l 789 324 l 789 0 m 618 1852 l 618 2150 l 260 2150 l 260 1852 l 618 1852"},"Ẓ":{"ha":840,"x_min":32,"x_max":806,"o":"m 789 0 l 32 0 l 32 320 l 435 1436 l 71 1436 l 71 1760 l 806 1760 l 806 1452 l 396 324 l 789 324 l 789 0 m 599 -417 l 599 -119 l 241 -119 l 241 -417 l 599 -417"},"Ẕ":{"ha":840,"x_min":32,"x_max":806,"o":"m 789 0 l 32 0 l 32 320 l 435 1436 l 71 1436 l 71 1760 l 806 1760 l 806 1452 l 396 324 l 789 324 l 789 0 m 745 -272 l 745 -119 l 95 -119 l 95 -272 l 745 -272"},"Ƶ":{"ha":840,"x_min":32,"x_max":806,"o":"m 789 0 l 32 0 l 32 320 l 199 782 l 95 782 l 95 1014 l 283 1014 l 435 1436 l 71 1436 l 71 1760 l 806 1760 l 806 1452 l 647 1014 l 755 1014 l 755 782 l 562 782 l 396 324 l 789 324 l 789 0"},"a":{"ha":990,"x_min":41,"x_max":924,"o":"m 345 -16 q 154.5 42 220 -16 q 65 201 89 100 q 41 430 41 302 q 68 654.5 41 567 q 160.5 798 95 742 q 341 893 226 854 l 563 969 l 563 1123 q 484 1244 563 1244 q 412 1146 412 1244 l 412 1056 l 64 1056 q 63 1076.5 63 1064 q 63 1105 63 1089 q 168.5 1422.5 63 1329 q 503 1516 274 1516 q 718 1473.5 623 1516 q 868.5 1348 813 1431 q 924 1143 924 1265 l 924 0 l 568 0 l 568 178 q 482 34 542 84 q 345 -16 422 -16 m 486 262 q 546 299 530 262 q 562 379 562 336 l 562 797 q 447 721.5 488 767 q 406 588 406 676 l 406 395 q 486 262 406 262"},"á":{"ha":990,"x_min":41,"x_max":924,"o":"m 345 -16 q 154.5 42 220 -16 q 65 201 89 100 q 41 430 41 302 q 68 654.5 41 567 q 160.5 798 95 742 q 341 893 226 854 l 563 969 l 563 1123 q 484 1244 563 1244 q 412 1146 412 1244 l 412 1056 l 64 1056 q 63 1076.5 63 1064 q 63 1105 63 1089 q 168.5 1422.5 63 1329 q 503 1516 274 1516 q 718 1473.5 623 1516 q 868.5 1348 813 1431 q 924 1143 924 1265 l 924 0 l 568 0 l 568 178 q 482 34 542 84 q 345 -16 422 -16 m 740 1663 l 740 2010 l 265 1792 l 265 1569 l 740 1663 m 486 262 q 546 299 530 262 q 562 379 562 336 l 562 797 q 447 721.5 488 767 q 406 588 406 676 l 406 395 q 486 262 406 262"},"ă":{"ha":990,"x_min":41,"x_max":924,"o":"m 345 -16 q 154.5 42 220 -16 q 65 201 89 100 q 41 430 41 302 q 68 654.5 41 567 q 160.5 798 95 742 q 341 893 226 854 l 563 969 l 563 1123 q 484 1244 563 1244 q 412 1146 412 1244 l 412 1056 l 64 1056 q 63 1076.5 63 1064 q 63 1105 63 1089 q 168.5 1422.5 63 1329 q 503 1516 274 1516 q 718 1473.5 623 1516 q 868.5 1348 813 1431 q 924 1143 924 1265 l 924 0 l 568 0 l 568 178 q 482 34 542 84 q 345 -16 422 -16 m 506 1608 q 793.5 1683.5 686 1608 q 901 1926 901 1759 q 900.5 1941 901 1931 q 899 1961 900 1951 l 643 1961 q 614 1874.5 643 1904 q 508 1845 585 1845 q 402 1874.5 431 1845 q 373 1961 373 1904 l 117 1961 q 114 1919 114 1940 q 222.5 1682 114 1756 q 506 1608 331 1608 m 486 262 q 546 299 530 262 q 562 379 562 336 l 562 797 q 447 721.5 488 767 q 406 588 406 676 l 406 395 q 486 262 406 262"},"ắ":{"ha":990,"x_min":41,"x_max":924,"o":"m 345 -16 q 154.5 42 220 -16 q 65 201 89 100 q 41 430 41 302 q 68 654.5 41 567 q 160.5 798 95 742 q 341 893 226 854 l 563 969 l 563 1123 q 484 1244 563 1244 q 412 1146 412 1244 l 412 1056 l 64 1056 q 63 1076.5 63 1064 q 63 1105 63 1089 q 168.5 1422.5 63 1329 q 503 1516 274 1516 q 718 1473.5 623 1516 q 868.5 1348 813 1431 q 924 1143 924 1265 l 924 0 l 568 0 l 568 178 q 482 34 542 84 q 345 -16 422 -16 m 502 1592 q 789.5 1660.5 682 1592 q 897 1880 897 1729 q 895 1915 897 1891 l 639 1915 q 610 1821 639 1853 q 504 1789 581 1789 q 398 1821 427 1789 q 369 1915 369 1853 l 113 1915 q 110 1873 110 1894 q 218.5 1659 110 1726 q 502 1592 327 1592 m 742 2025 l 742 2312 l 267 2144 l 267 1951 l 742 2025 m 486 262 q 546 299 530 262 q 562 379 562 336 l 562 797 q 447 721.5 488 767 q 406 588 406 676 l 406 395 q 486 262 406 262"},"ặ":{"ha":990,"x_min":41,"x_max":924,"o":"m 345 -16 q 154.5 42 220 -16 q 65 201 89 100 q 41 430 41 302 q 68 654.5 41 567 q 160.5 798 95 742 q 341 893 226 854 l 563 969 l 563 1123 q 484 1244 563 1244 q 412 1146 412 1244 l 412 1056 l 64 1056 q 63 1076.5 63 1064 q 63 1105 63 1089 q 168.5 1422.5 63 1329 q 503 1516 274 1516 q 718 1473.5 623 1516 q 868.5 1348 813 1431 q 924 1143 924 1265 l 924 0 l 568 0 l 568 178 q 482 34 542 84 q 345 -16 422 -16 m 506 1608 q 793.5 1683.5 686 1608 q 901 1926 901 1759 q 900.5 1941 901 1931 q 899 1961 900 1951 l 643 1961 q 614 1874.5 643 1904 q 508 1845 585 1845 q 402 1874.5 431 1845 q 373 1961 373 1904 l 117 1961 q 114 1919 114 1940 q 222.5 1682 114 1756 q 506 1608 331 1608 m 673 -417 l 673 -119 l 315 -119 l 315 -417 l 673 -417 m 486 262 q 546 299 530 262 q 562 379 562 336 l 562 797 q 447 721.5 488 767 q 406 588 406 676 l 406 395 q 486 262 406 262"},"ằ":{"ha":990,"x_min":41,"x_max":924,"o":"m 345 -16 q 154.5 42 220 -16 q 65 201 89 100 q 41 430 41 302 q 68 654.5 41 567 q 160.5 798 95 742 q 341 893 226 854 l 563 969 l 563 1123 q 484 1244 563 1244 q 412 1146 412 1244 l 412 1056 l 64 1056 q 63 1076.5 63 1064 q 63 1105 63 1089 q 168.5 1422.5 63 1329 q 503 1516 274 1516 q 718 1473.5 623 1516 q 868.5 1348 813 1431 q 924 1143 924 1265 l 924 0 l 568 0 l 568 178 q 482 34 542 84 q 345 -16 422 -16 m 503 1582 q 788.5 1650.5 682 1582 q 895 1870 895 1719 q 894.5 1885 895 1875 q 893 1905 894 1895 l 637 1905 q 608.5 1811 637 1843 q 503 1779 580 1779 q 398 1811 427 1779 q 369 1905 369 1843 l 113 1905 q 110 1863 110 1884 q 218.5 1649 110 1716 q 503 1582 327 1582 m 740 2126 l 265 2314 l 265 2027 l 740 1963 l 740 2126 m 486 262 q 546 299 530 262 q 562 379 562 336 l 562 797 q 447 721.5 488 767 q 406 588 406 676 l 406 395 q 486 262 406 262"},"ẳ":{"ha":990,"x_min":41,"x_max":924,"o":"m 345 -16 q 154.5 42 220 -16 q 65 201 89 100 q 41 430 41 302 q 68 654.5 41 567 q 160.5 798 95 742 q 341 893 226 854 l 563 969 l 563 1123 q 484 1244 563 1244 q 412 1146 412 1244 l 412 1056 l 64 1056 q 63 1076.5 63 1064 q 63 1105 63 1089 q 168.5 1422.5 63 1329 q 503 1516 274 1516 q 718 1473.5 623 1516 q 868.5 1348 813 1431 q 924 1143 924 1265 l 924 0 l 568 0 l 568 178 q 482 34 542 84 q 345 -16 422 -16 m 503 1582 q 788.5 1650.5 682 1582 q 895 1870 895 1719 q 894.5 1885 895 1875 q 893 1905 894 1895 l 637 1905 q 608.5 1811 637 1843 q 503 1779 580 1779 q 398 1811 427 1779 q 369 1905 369 1843 l 113 1905 q 110 1863 110 1884 q 218.5 1649 110 1716 q 503 1582 327 1582 m 472 1913 q 666 2021.5 588 1949 q 744 2221 744 2094 q 673.5 2396.5 744 2334 q 478 2459 603 2459 q 295 2426 383 2459 l 295 2246 q 385 2262 338 2262 q 486 2167 486 2262 q 453 2087 486 2117 q 366 2037 420 2057 l 472 1913 m 486 262 q 546 299 530 262 q 562 379 562 336 l 562 797 q 447 721.5 488 767 q 406 588 406 676 l 406 395 q 486 262 406 262"},"ẵ":{"ha":990,"x_min":41,"x_max":924,"o":"m 345 -16 q 154.5 42 220 -16 q 65 201 89 100 q 41 430 41 302 q 68 654.5 41 567 q 160.5 798 95 742 q 341 893 226 854 l 563 969 l 563 1123 q 484 1244 563 1244 q 412 1146 412 1244 l 412 1056 l 64 1056 q 63 1076.5 63 1064 q 63 1105 63 1089 q 168.5 1422.5 63 1329 q 503 1516 274 1516 q 718 1473.5 623 1516 q 868.5 1348 813 1431 q 924 1143 924 1265 l 924 0 l 568 0 l 568 178 q 482 34 542 84 q 345 -16 422 -16 m 503 1582 q 788.5 1650.5 682 1582 q 895 1870 895 1719 q 894.5 1885 895 1875 q 893 1905 894 1895 l 637 1905 q 608.5 1811 637 1843 q 503 1779 580 1779 q 398 1811 427 1779 q 369 1905 369 1843 l 113 1905 q 110 1863 110 1884 q 218.5 1649 110 1716 q 503 1582 327 1582 m 668 1969 q 788.5 2003 743 1969 q 863 2092.5 834 2037 q 916 2210 892 2148 l 750 2264 q 700.5 2206 725 2223 q 638 2189 676 2189 q 536 2212 585 2189 q 434.5 2257.5 487 2235 q 320 2280 382 2280 q 172.5 2218 220 2280 q 90 2070 125 2156 l 238 1992 q 290 2045 262 2030 q 350 2060 318 2060 q 453 2037.5 403 2060 q 555.5 1992 503 2015 q 668 1969 608 1969 m 486 262 q 546 299 530 262 q 562 379 562 336 l 562 797 q 447 721.5 488 767 q 406 588 406 676 l 406 395 q 486 262 406 262"},"ǎ":{"ha":990,"x_min":41,"x_max":948,"o":"m 345 -16 q 154.5 42 220 -16 q 65 201 89 100 q 41 430 41 302 q 68 654.5 41 567 q 160.5 798 95 742 q 341 893 226 854 l 563 969 l 563 1123 q 484 1244 563 1244 q 412 1146 412 1244 l 412 1056 l 64 1056 q 63 1076.5 63 1064 q 63 1105 63 1089 q 168.5 1422.5 63 1329 q 503 1516 274 1516 q 718 1473.5 623 1516 q 868.5 1348 813 1431 q 924 1143 924 1265 l 924 0 l 568 0 l 568 178 q 482 34 542 84 q 345 -16 422 -16 m 707 1607 l 948 2010 l 589 2010 l 503 1725 l 417 2010 l 58 2010 l 299 1607 l 707 1607 m 486 262 q 546 299 530 262 q 562 379 562 336 l 562 797 q 447 721.5 488 767 q 406 588 406 676 l 406 395 q 486 262 406 262"},"â":{"ha":990,"x_min":41,"x_max":948,"o":"m 345 -16 q 154.5 42 220 -16 q 65 201 89 100 q 41 430 41 302 q 68 654.5 41 567 q 160.5 798 95 742 q 341 893 226 854 l 563 969 l 563 1123 q 484 1244 563 1244 q 412 1146 412 1244 l 412 1056 l 64 1056 q 63 1076.5 63 1064 q 63 1105 63 1089 q 168.5 1422.5 63 1329 q 503 1516 274 1516 q 718 1473.5 623 1516 q 868.5 1348 813 1431 q 924 1143 924 1265 l 924 0 l 568 0 l 568 178 q 482 34 542 84 q 345 -16 422 -16 m 417 1607 l 503 1892 l 589 1607 l 948 1607 l 707 2010 l 299 2010 l 58 1607 l 417 1607 m 486 262 q 546 299 530 262 q 562 379 562 336 l 562 797 q 447 721.5 488 767 q 406 588 406 676 l 406 395 q 486 262 406 262"},"ấ":{"ha":990,"x_min":41,"x_max":1288,"o":"m 345 -16 q 154.5 42 220 -16 q 65 201 89 100 q 41 430 41 302 q 68 654.5 41 567 q 160.5 798 95 742 q 341 893 226 854 l 563 969 l 563 1123 q 484 1244 563 1244 q 412 1146 412 1244 l 412 1056 l 64 1056 q 63 1076.5 63 1064 q 63 1105 63 1089 q 168.5 1422.5 63 1329 q 503 1516 274 1516 q 718 1473.5 623 1516 q 868.5 1348 813 1431 q 924 1143 924 1265 l 924 0 l 568 0 l 568 178 q 482 34 542 84 q 345 -16 422 -16 m 413 1591 l 503 1786 l 593 1591 l 948 1591 l 707 1894 l 299 1894 l 58 1591 l 413 1591 m 1050 1832 l 1288 2127 l 981 2127 l 817 1832 l 1050 1832 m 486 262 q 546 299 530 262 q 562 379 562 336 l 562 797 q 447 721.5 488 767 q 406 588 406 676 l 406 395 q 486 262 406 262"},"ậ":{"ha":990,"x_min":41,"x_max":948,"o":"m 345 -16 q 154.5 42 220 -16 q 65 201 89 100 q 41 430 41 302 q 68 654.5 41 567 q 160.5 798 95 742 q 341 893 226 854 l 563 969 l 563 1123 q 484 1244 563 1244 q 412 1146 412 1244 l 412 1056 l 64 1056 q 63 1076.5 63 1064 q 63 1105 63 1089 q 168.5 1422.5 63 1329 q 503 1516 274 1516 q 718 1473.5 623 1516 q 868.5 1348 813 1431 q 924 1143 924 1265 l 924 0 l 568 0 l 568 178 q 482 34 542 84 q 345 -16 422 -16 m 417 1607 l 503 1892 l 589 1607 l 948 1607 l 707 2010 l 299 2010 l 58 1607 l 417 1607 m 673 -417 l 673 -119 l 315 -119 l 315 -417 l 673 -417 m 486 262 q 546 299 530 262 q 562 379 562 336 l 562 797 q 447 721.5 488 767 q 406 588 406 676 l 406 395 q 486 262 406 262"},"ầ":{"ha":990,"x_min":41,"x_max":1108,"o":"m 345 -16 q 154.5 42 220 -16 q 65 201 89 100 q 41 430 41 302 q 68 654.5 41 567 q 160.5 798 95 742 q 341 893 226 854 l 563 969 l 563 1123 q 484 1244 563 1244 q 412 1146 412 1244 l 412 1056 l 64 1056 q 63 1076.5 63 1064 q 63 1105 63 1089 q 168.5 1422.5 63 1329 q 503 1516 274 1516 q 718 1473.5 623 1516 q 868.5 1348 813 1431 q 924 1143 924 1265 l 924 0 l 568 0 l 568 178 q 482 34 542 84 q 345 -16 422 -16 m 413 1591 l 503 1786 l 593 1591 l 948 1591 l 707 1894 l 299 1894 l 58 1591 l 413 1591 m 1108 1832 l 944 2127 l 637 2127 l 875 1832 l 1108 1832 m 486 262 q 546 299 530 262 q 562 379 562 336 l 562 797 q 447 721.5 488 767 q 406 588 406 676 l 406 395 q 486 262 406 262"},"ẩ":{"ha":990,"x_min":41,"x_max":1136,"o":"m 345 -16 q 154.5 42 220 -16 q 65 201 89 100 q 41 430 41 302 q 68 654.5 41 567 q 160.5 798 95 742 q 341 893 226 854 l 563 969 l 563 1123 q 484 1244 563 1244 q 412 1146 412 1244 l 412 1056 l 64 1056 q 63 1076.5 63 1064 q 63 1105 63 1089 q 168.5 1422.5 63 1329 q 503 1516 274 1516 q 718 1473.5 623 1516 q 868.5 1348 813 1431 q 924 1143 924 1265 l 924 0 l 568 0 l 568 178 q 482 34 542 84 q 345 -16 422 -16 m 413 1591 l 503 1786 l 593 1591 l 898 1591 l 677 1904 l 329 1904 l 108 1591 l 413 1591 m 864 1797 q 1058 1905.5 980 1833 q 1136 2105 1136 1978 q 1065.5 2280.5 1136 2218 q 870 2343 995 2343 q 687 2310 775 2343 l 687 2130 q 777 2146 730 2146 q 878 2051 878 2146 q 845 1971 878 2001 q 758 1921 812 1941 l 864 1797 m 486 262 q 546 299 530 262 q 562 379 562 336 l 562 797 q 447 721.5 488 767 q 406 588 406 676 l 406 395 q 486 262 406 262"},"ẫ":{"ha":990,"x_min":41,"x_max":948,"o":"m 345 -16 q 154.5 42 220 -16 q 65 201 89 100 q 41 430 41 302 q 68 654.5 41 567 q 160.5 798 95 742 q 341 893 226 854 l 563 969 l 563 1123 q 484 1244 563 1244 q 412 1146 412 1244 l 412 1056 l 64 1056 q 63 1076.5 63 1064 q 63 1105 63 1089 q 168.5 1422.5 63 1329 q 503 1516 274 1516 q 718 1473.5 623 1516 q 868.5 1348 813 1431 q 924 1143 924 1265 l 924 0 l 568 0 l 568 178 q 482 34 542 84 q 345 -16 422 -16 m 413 1591 l 503 1786 l 593 1591 l 948 1591 l 707 1894 l 299 1894 l 58 1591 l 413 1591 m 668 1969 q 788.5 2003 743 1969 q 863 2092.5 834 2037 q 916 2210 892 2148 l 750 2264 q 700.5 2206 725 2223 q 638 2189 676 2189 q 536 2212 585 2189 q 434.5 2257.5 487 2235 q 320 2280 382 2280 q 172.5 2218 220 2280 q 90 2070 125 2156 l 238 1992 q 290 2045 262 2030 q 350 2060 318 2060 q 453 2037.5 403 2060 q 555.5 1992 503 2015 q 668 1969 608 1969 m 486 262 q 546 299 530 262 q 562 379 562 336 l 562 797 q 447 721.5 488 767 q 406 588 406 676 l 406 395 q 486 262 406 262"},"´":{"ha":650,"x_min":91,"x_max":566,"o":"m 566 1647 l 91 1553 l 91 1776 l 566 1994 l 566 1647"},"́":{"ha":0,"x_min":-238,"x_max":237,"o":"m 237 1647 l -238 1553 l -238 1776 l 237 1994 l 237 1647"},"᷇":{"ha":0,"x_min":-326,"x_max":324,"o":"m 237 1647 l -238 1553 l -238 1776 l 237 1994 l 237 1647 m 324 2022 l 324 2175 l -326 2175 l -326 2022 l 324 2022"},"ȁ":{"ha":990,"x_min":17,"x_max":924,"o":"m 345 -16 q 154.5 42 220 -16 q 65 201 89 100 q 41 430 41 302 q 68 654.5 41 567 q 160.5 798 95 742 q 341 893 226 854 l 563 969 l 563 1123 q 484 1244 563 1244 q 412 1146 412 1244 l 412 1056 l 64 1056 q 63 1076.5 63 1064 q 63 1105 63 1089 q 168.5 1422.5 63 1329 q 503 1516 274 1516 q 718 1473.5 623 1516 q 868.5 1348 813 1431 q 924 1143 924 1265 l 924 0 l 568 0 l 568 178 q 482 34 542 84 q 345 -16 422 -16 m 472 1660 l 251 2139 l 17 2031 l 306 1602 l 472 1660 m 774 1660 l 590 2139 l 360 2031 l 608 1602 l 774 1660 m 486 262 q 546 299 530 262 q 562 379 562 336 l 562 797 q 447 721.5 488 767 q 406 588 406 676 l 406 395 q 486 262 406 262"},"ä":{"ha":990,"x_min":41,"x_max":924,"o":"m 345 -16 q 154.5 42 220 -16 q 65 201 89 100 q 41 430 41 302 q 68 654.5 41 567 q 160.5 798 95 742 q 341 893 226 854 l 563 969 l 563 1123 q 484 1244 563 1244 q 412 1146 412 1244 l 412 1056 l 64 1056 q 63 1076.5 63 1064 q 63 1105 63 1089 q 168.5 1422.5 63 1329 q 503 1516 274 1516 q 718 1473.5 623 1516 q 868.5 1348 813 1431 q 924 1143 924 1265 l 924 0 l 568 0 l 568 178 q 482 34 542 84 q 345 -16 422 -16 m 917 1615 l 917 1913 l 559 1913 l 559 1615 l 917 1615 m 433 1615 l 433 1913 l 75 1913 l 75 1615 l 433 1615 m 486 262 q 546 299 530 262 q 562 379 562 336 l 562 797 q 447 721.5 488 767 q 406 588 406 676 l 406 395 q 486 262 406 262"},"ǟ":{"ha":990,"x_min":41,"x_max":924,"o":"m 345 -16 q 154.5 42 220 -16 q 65 201 89 100 q 41 430 41 302 q 68 654.5 41 567 q 160.5 798 95 742 q 341 893 226 854 l 563 969 l 563 1123 q 484 1244 563 1244 q 412 1146 412 1244 l 412 1056 l 64 1056 q 63 1076.5 63 1064 q 63 1105 63 1089 q 168.5 1422.5 63 1329 q 503 1516 274 1516 q 718 1473.5 623 1516 q 868.5 1348 813 1431 q 924 1143 924 1265 l 924 0 l 568 0 l 568 178 q 482 34 542 84 q 345 -16 422 -16 m 828 1956 l 828 2109 l 178 2109 l 178 1956 l 828 1956 m 924 1599 l 924 1847 l 566 1847 l 566 1599 l 924 1599 m 440 1599 l 440 1847 l 82 1847 l 82 1599 l 440 1599 m 486 262 q 546 299 530 262 q 562 379 562 336 l 562 797 q 447 721.5 488 767 q 406 588 406 676 l 406 395 q 486 262 406 262"},"ȧ":{"ha":990,"x_min":41,"x_max":924,"o":"m 345 -16 q 154.5 42 220 -16 q 65 201 89 100 q 41 430 41 302 q 68 654.5 41 567 q 160.5 798 95 742 q 341 893 226 854 l 563 969 l 563 1123 q 484 1244 563 1244 q 412 1146 412 1244 l 412 1056 l 64 1056 q 63 1076.5 63 1064 q 63 1105 63 1089 q 168.5 1422.5 63 1329 q 503 1516 274 1516 q 718 1473.5 623 1516 q 868.5 1348 813 1431 q 924 1143 924 1265 l 924 0 l 568 0 l 568 178 q 482 34 542 84 q 345 -16 422 -16 m 682 1608 l 682 1906 l 324 1906 l 324 1608 l 682 1608 m 486 262 q 546 299 530 262 q 562 379 562 336 l 562 797 q 447 721.5 488 767 q 406 588 406 676 l 406 395 q 486 262 406 262"},"ạ":{"ha":990,"x_min":41,"x_max":924,"o":"m 345 -16 q 154.5 42 220 -16 q 65 201 89 100 q 41 430 41 302 q 68 654.5 41 567 q 160.5 798 95 742 q 341 893 226 854 l 563 969 l 563 1123 q 484 1244 563 1244 q 412 1146 412 1244 l 412 1056 l 64 1056 q 63 1076.5 63 1064 q 63 1105 63 1089 q 168.5 1422.5 63 1329 q 503 1516 274 1516 q 718 1473.5 623 1516 q 868.5 1348 813 1431 q 924 1143 924 1265 l 924 0 l 568 0 l 568 178 q 482 34 542 84 q 345 -16 422 -16 m 673 -417 l 673 -119 l 315 -119 l 315 -417 l 673 -417 m 486 262 q 546 299 530 262 q 562 379 562 336 l 562 797 q 447 721.5 488 767 q 406 588 406 676 l 406 395 q 486 262 406 262"},"ǡ":{"ha":990,"x_min":41,"x_max":924,"o":"m 345 -16 q 154.5 42 220 -16 q 65 201 89 100 q 41 430 41 302 q 68 654.5 41 567 q 160.5 798 95 742 q 341 893 226 854 l 563 969 l 563 1123 q 484 1244 563 1244 q 412 1146 412 1244 l 412 1056 l 64 1056 q 63 1076.5 63 1064 q 63 1105 63 1089 q 168.5 1422.5 63 1329 q 503 1516 274 1516 q 718 1473.5 623 1516 q 868.5 1348 813 1431 q 924 1143 924 1265 l 924 0 l 568 0 l 568 178 q 482 34 542 84 q 345 -16 422 -16 m 828 1938 l 828 2091 l 178 2091 l 178 1938 l 828 1938 m 682 1592 l 682 1850 l 324 1850 l 324 1592 l 682 1592 m 486 262 q 546 299 530 262 q 562 379 562 336 l 562 797 q 447 721.5 488 767 q 406 588 406 676 l 406 395 q 486 262 406 262"},"æ":{"ha":1497,"x_min":38,"x_max":1446,"o":"m 449 -18 q 143.5 102.5 249 -18 q 38 430 38 223 q 77 687.5 38 595 q 192.5 830.5 116 780 q 380 919 269 881 l 560 980 l 560 1083 q 542 1202 560 1165 q 483 1239 524 1239 q 409 1157 409 1239 l 409 1056 l 61 1056 q 60 1076.5 60 1064 q 60 1105 60 1089 q 158.5 1423.5 60 1329 q 441 1518 257 1518 q 637 1487.5 568 1518 q 747 1396 706 1457 q 857.5 1487.5 787 1457 q 1044 1518 928 1518 q 1342 1411.5 1238 1518 q 1446 1092 1446 1305 l 1446 983 q 1445 812 1446 882 q 1442 704 1444 742 l 921 704 l 921 494 q 942 315 921 370 q 1012 260 963 260 q 1073 301 1056 260 q 1090 453 1090 342 l 1090 579 l 1446 579 l 1446 494 q 1410.5 218.5 1446 333 q 1286 43 1375 104 q 1036 -18 1197 -18 q 855 29.5 931 -18 q 748 148 779 77 q 637.5 28.5 714 75 q 449 -18 561 -18 m 483 262 q 543 299 527 262 q 559 379 559 336 l 559 774 q 444 701 485 744 q 403 570 403 658 l 403 395 q 483 262 403 262 m 921 1052 l 921 931 l 1090 931 l 1090 1087 q 1010 1249 1090 1249 q 932 1193.5 943 1249 q 921 1052 921 1138"},"ǽ":{"ha":1497,"x_min":38,"x_max":1446,"o":"m 449 -18 q 143.5 102.5 249 -18 q 38 430 38 223 q 77 687.5 38 595 q 192.5 830.5 116 780 q 380 919 269 881 l 560 980 l 560 1083 q 542 1202 560 1165 q 483 1239 524 1239 q 409 1157 409 1239 l 409 1056 l 61 1056 q 60 1076.5 60 1064 q 60 1105 60 1089 q 158.5 1423.5 60 1329 q 441 1518 257 1518 q 637 1487.5 568 1518 q 747 1396 706 1457 q 857.5 1487.5 787 1457 q 1044 1518 928 1518 q 1342 1411.5 1238 1518 q 1446 1092 1446 1305 l 1446 983 q 1445 812 1446 882 q 1442 704 1444 742 l 921 704 l 921 494 q 942 315 921 370 q 1012 260 963 260 q 1073 301 1056 260 q 1090 453 1090 342 l 1090 579 l 1446 579 l 1446 494 q 1410.5 218.5 1446 333 q 1286 43 1375 104 q 1036 -18 1197 -18 q 855 29.5 931 -18 q 748 148 779 77 q 637.5 28.5 714 75 q 449 -18 561 -18 m 986 1647 l 986 1994 l 511 1776 l 511 1553 l 986 1647 m 483 262 q 543 299 527 262 q 559 379 559 336 l 559 774 q 444 701 485 744 q 403 570 403 658 l 403 395 q 483 262 403 262 m 921 1052 l 921 931 l 1090 931 l 1090 1087 q 1010 1249 1090 1249 q 932 1193.5 943 1249 q 921 1052 921 1138"},"ǣ":{"ha":1497,"x_min":38,"x_max":1446,"o":"m 449 -18 q 143.5 102.5 249 -18 q 38 430 38 223 q 77 687.5 38 595 q 192.5 830.5 116 780 q 380 919 269 881 l 560 980 l 560 1083 q 542 1202 560 1165 q 483 1239 524 1239 q 409 1157 409 1239 l 409 1056 l 61 1056 q 60 1076.5 60 1064 q 60 1105 60 1089 q 158.5 1423.5 60 1329 q 441 1518 257 1518 q 637 1487.5 568 1518 q 747 1396 706 1457 q 857.5 1487.5 787 1457 q 1044 1518 928 1518 q 1342 1411.5 1238 1518 q 1446 1092 1446 1305 l 1446 983 q 1445 812 1446 882 q 1442 704 1444 742 l 921 704 l 921 494 q 942 315 921 370 q 1012 260 963 260 q 1073 301 1056 260 q 1090 453 1090 342 l 1090 579 l 1446 579 l 1446 494 q 1410.5 218.5 1446 333 q 1286 43 1375 104 q 1036 -18 1197 -18 q 855 29.5 931 -18 q 748 148 779 77 q 637.5 28.5 714 75 q 449 -18 561 -18 m 1073 1619 l 1073 1772 l 423 1772 l 423 1619 l 1073 1619 m 483 262 q 543 299 527 262 q 559 379 559 336 l 559 774 q 444 701 485 744 q 403 570 403 658 l 403 395 q 483 262 403 262 m 921 1052 l 921 931 l 1090 931 l 1090 1087 q 1010 1249 1090 1249 q 932 1193.5 943 1249 q 921 1052 921 1138"},"à":{"ha":990,"x_min":41,"x_max":924,"o":"m 345 -16 q 154.5 42 220 -16 q 65 201 89 100 q 41 430 41 302 q 68 654.5 41 567 q 160.5 798 95 742 q 341 893 226 854 l 563 969 l 563 1123 q 484 1244 563 1244 q 412 1146 412 1244 l 412 1056 l 64 1056 q 63 1076.5 63 1064 q 63 1105 63 1089 q 168.5 1422.5 63 1329 q 503 1516 274 1516 q 718 1473.5 623 1516 q 868.5 1348 813 1431 q 924 1143 924 1265 l 924 0 l 568 0 l 568 178 q 482 34 542 84 q 345 -16 422 -16 m 740 1792 l 265 2010 l 265 1663 l 740 1569 l 740 1792 m 486 262 q 546 299 530 262 q 562 379 562 336 l 562 797 q 447 721.5 488 767 q 406 588 406 676 l 406 395 q 486 262 406 262"},"ả":{"ha":990,"x_min":41,"x_max":924,"o":"m 345 -16 q 154.5 42 220 -16 q 65 201 89 100 q 41 430 41 302 q 68 654.5 41 567 q 160.5 798 95 742 q 341 893 226 854 l 563 969 l 563 1123 q 484 1244 563 1244 q 412 1146 412 1244 l 412 1056 l 64 1056 q 63 1076.5 63 1064 q 63 1105 63 1089 q 168.5 1422.5 63 1329 q 503 1516 274 1516 q 718 1473.5 623 1516 q 868.5 1348 813 1431 q 924 1143 924 1265 l 924 0 l 568 0 l 568 178 q 482 34 542 84 q 345 -16 422 -16 m 474 1577 q 668 1685.5 590 1613 q 746 1885 746 1758 q 675.5 2060.5 746 1998 q 480 2123 605 2123 q 297 2090 385 2123 l 297 1910 q 387 1926 340 1926 q 488 1831 488 1926 q 455 1751 488 1781 q 368 1701 422 1721 l 474 1577 m 486 262 q 546 299 530 262 q 562 379 562 336 l 562 797 q 447 721.5 488 767 q 406 588 406 676 l 406 395 q 486 262 406 262"},"ȃ":{"ha":990,"x_min":41,"x_max":924,"o":"m 345 -16 q 154.5 42 220 -16 q 65 201 89 100 q 41 430 41 302 q 68 654.5 41 567 q 160.5 798 95 742 q 341 893 226 854 l 563 969 l 563 1123 q 484 1244 563 1244 q 412 1146 412 1244 l 412 1056 l 64 1056 q 63 1076.5 63 1064 q 63 1105 63 1089 q 168.5 1422.5 63 1329 q 503 1516 274 1516 q 718 1473.5 623 1516 q 868.5 1348 813 1431 q 924 1143 924 1265 l 924 0 l 568 0 l 568 178 q 482 34 542 84 q 345 -16 422 -16 m 368 1624 q 406.5 1725 368 1692 q 503 1758 445 1758 q 600 1725 562 1758 q 638 1624 638 1692 l 874 1624 q 875.5 1643.5 875 1634 q 876 1658 876 1653 q 778.5 1900.5 876 1825 q 501 1976 681 1976 q 227.5 1902 326 1976 q 129 1665 129 1828 q 132 1624 129 1644 l 368 1624 m 486 262 q 546 299 530 262 q 562 379 562 336 l 562 797 q 447 721.5 488 767 q 406 588 406 676 l 406 395 q 486 262 406 262"},"ɑ":{"ha":1028,"x_min":60,"x_max":1028,"o":"m 367 -16 q 201.5 22 263 -16 q 109.5 127 140 60 q 69.5 284 79 194 q 60 477 60 374 l 60 1023 q 69.5 1216.5 60 1127 q 109.5 1373 79 1306 q 201.5 1478 140 1440 q 367 1516 263 1516 q 510.5 1469 461 1516 q 590 1341 560 1422 l 590 1500 l 948 1500 l 948 432 q 969.5 323.5 948 347 q 1028 300 991 300 l 1028 -16 q 618 144 738 -16 q 529 31.5 586 79 q 367 -16 472 -16 m 504 264 q 570.5 311 551 264 q 590 452 590 358 l 590 1060 q 569 1194 590 1152 q 504 1236 548 1236 q 439.5 1194 461 1236 q 418 1058 418 1152 l 418 452 q 504 264 418 264"},"ā":{"ha":990,"x_min":41,"x_max":924,"o":"m 345 -16 q 154.5 42 220 -16 q 65 201 89 100 q 41 430 41 302 q 68 654.5 41 567 q 160.5 798 95 742 q 341 893 226 854 l 563 969 l 563 1123 q 484 1244 563 1244 q 412 1146 412 1244 l 412 1056 l 64 1056 q 63 1076.5 63 1064 q 63 1105 63 1089 q 168.5 1422.5 63 1329 q 503 1516 274 1516 q 718 1473.5 623 1516 q 868.5 1348 813 1431 q 924 1143 924 1265 l 924 0 l 568 0 l 568 178 q 482 34 542 84 q 345 -16 422 -16 m 824 1635 l 824 1788 l 174 1788 l 174 1635 l 824 1635 m 486 262 q 546 299 530 262 q 562 379 562 336 l 562 797 q 447 721.5 488 767 q 406 588 406 676 l 406 395 q 486 262 406 262"},"&":{"ha":1065,"x_min":35,"x_max":1035,"o":"m 386 -21 q 128.5 106 222 -21 q 35 456 35 233 q 63.5 720 35 615 q 143 895 92 825 q 260 1017 194 965 l 252 1037 q 178.5 1235.5 210 1141 q 147 1430 147 1330 q 190 1609 147 1531 q 309.5 1731.5 233 1687 q 485 1776 386 1776 q 663.5 1733.5 583 1776 q 792 1606 744 1691 q 840 1391 840 1521 q 787.5 1155 840 1250 q 630 972 735 1060 l 726 730 q 896 961 785 879 l 1035 744 q 841 441 919 651 l 1017 0 l 677 0 l 638 95 q 533.5 13 599 47 q 386 -21 468 -21 m 341 493 l 341 413 q 442 235 341 235 q 508 265.5 483 235 q 542 329 533 296 l 374 738 q 341 493 341 668 m 461 1461 q 474 1384.5 461 1435 q 535 1210 487 1334 q 569 1273 554 1230 q 584 1391 584 1316 q 565.5 1499 584 1468 q 517 1530 547 1530 q 474.5 1508.5 488 1530 q 461 1461 461 1487"},"ą":{"ha":990,"x_min":41,"x_max":938,"o":"m 345 -16 q 154.5 42 220 -16 q 65 201 89 100 q 41 430 41 302 q 68 654.5 41 567 q 160.5 798 95 742 q 341 893 226 854 l 563 969 l 563 1123 q 484 1244 563 1244 q 412 1146 412 1244 l 412 1056 l 64 1056 q 63 1076.5 63 1064 q 63 1105 63 1089 q 168.5 1422.5 63 1329 q 503 1516 274 1516 q 718 1473.5 623 1516 q 868.5 1348 813 1431 q 924 1143 924 1265 l 924 0 l 568 0 l 568 178 q 482 34 542 84 q 345 -16 422 -16 m 740 -631 q 938 -591 843 -631 l 938 -368 q 822 -391 871 -391 q 707 -279 707 -391 q 753 -130.5 707 -196 q 867 0 799 -65 l 656 0 q 392 -330 392 -148 q 439.5 -491.5 392 -424 q 566 -595 487 -559 q 740 -631 645 -631 m 486 262 q 546 299 530 262 q 562 379 562 336 l 562 797 q 447 721.5 488 767 q 406 588 406 676 l 406 395 q 486 262 406 262"},"ʼ":{"ha":600,"x_min":122,"x_max":496,"o":"m 394 966 l 183 966 l 249 1202 l 122 1202 l 122 1500 l 496 1500 l 496 1211 l 394 966"},"≈":{"ha":1009,"x_min":50,"x_max":1004,"o":"m 732 810 q 603.5 824 662 810 q 483 862 545 838 q 381.5 898 422 886 q 313 910 341 910 q 259 893.5 284 910 q 212 835 234 877 l 50 921 q 110 1042.5 77 987 q 192.5 1131 143 1098 q 320 1164 242 1164 q 453.5 1151.5 400 1164 q 574 1113 507 1139 q 664.5 1082 633 1091 q 720 1073 696 1073 q 775 1091 750 1073 q 822 1155 800 1109 l 1004 1095 q 945.5 956.5 977 1022 q 864.5 850.5 914 891 q 732 810 815 810 m 732 340 q 864.5 380.5 815 340 q 945.5 486.5 914 421 q 1004 625 977 552 l 822 685 q 775 621 800 639 q 720 603 750 603 q 664.5 612 696 603 q 574 643 633 621 q 453.5 681.5 507 669 q 320 694 400 694 q 192.5 661 242 694 q 110 572.5 143 628 q 50 451 77 517 l 212 365 q 259 423.5 234 407 q 313 440 284 440 q 381.5 428 341 440 q 483 392 422 416 q 603.5 354 545 368 q 732 340 662 340"},"å":{"ha":990,"x_min":41,"x_max":924,"o":"m 345 -16 q 154.5 42 220 -16 q 65 201 89 100 q 41 430 41 302 q 68 654.5 41 567 q 160.5 798 95 742 q 341 893 226 854 l 563 969 l 563 1123 q 484 1244 563 1244 q 412 1146 412 1244 l 412 1056 l 64 1056 q 63 1076.5 63 1064 q 63 1105 63 1089 q 168.5 1422.5 63 1329 q 503 1516 274 1516 q 718 1473.5 623 1516 q 868.5 1348 813 1431 q 924 1143 924 1265 l 924 0 l 568 0 l 568 178 q 482 34 542 84 q 345 -16 422 -16 m 502 1596 q 759.5 1686 663 1596 q 856 1934 856 1776 q 759.5 2182 856 2092 q 502 2272 663 2272 q 245.5 2182 342 2272 q 149 1934 149 2092 q 245.5 1685.5 149 1775 q 502 1596 342 1596 m 486 262 q 546 299 530 262 q 562 379 562 336 l 562 797 q 447 721.5 488 767 q 406 588 406 676 l 406 395 q 486 262 406 262 m 503 1777 q 607.5 1823 570 1777 q 645 1934 645 1869 q 607.5 2045 645 1999 q 503 2091 570 2091 q 398.5 2045 436 2091 q 361 1934 361 1999 q 398.5 1823 361 1869 q 503 1777 436 1777"},"ǻ":{"ha":990,"x_min":41,"x_max":924,"o":"m 345 -16 q 154.5 42 220 -16 q 65 201 89 100 q 41 430 41 302 q 68 654.5 41 567 q 160.5 798 95 742 q 341 893 226 854 l 563 969 l 563 1123 q 484 1244 563 1244 q 412 1146 412 1244 l 412 1056 l 64 1056 q 63 1076.5 63 1064 q 63 1105 63 1089 q 168.5 1422.5 63 1329 q 503 1516 274 1516 q 718 1473.5 623 1516 q 868.5 1348 813 1431 q 924 1143 924 1265 l 924 0 l 568 0 l 568 178 q 482 34 542 84 q 345 -16 422 -16 m 503 1580 q 760.5 1665 664 1580 q 857 1898 857 1750 q 760.5 2131.5 857 2047 q 503 2216 664 2216 q 246.5 2131.5 343 2216 q 150 1898 150 2047 q 246.5 1664 150 1748 q 503 1580 343 1580 m 741 2327 l 741 2614 l 266 2446 l 266 2253 l 741 2327 m 486 262 q 546 299 530 262 q 562 379 562 336 l 562 797 q 447 721.5 488 767 q 406 588 406 676 l 406 395 q 486 262 406 262 m 504 1761 q 608.5 1801 571 1761 q 646 1898 646 1841 q 608.5 1995 646 1955 q 504 2035 571 2035 q 399.5 1995 437 2035 q 362 1898 362 1955 q 399.5 1801 362 1841 q 504 1761 437 1761"},"ḁ":{"ha":990,"x_min":41,"x_max":924,"o":"m 345 -16 q 154.5 42 220 -16 q 65 201 89 100 q 41 430 41 302 q 68 654.5 41 567 q 160.5 798 95 742 q 341 893 226 854 l 563 969 l 563 1123 q 484 1244 563 1244 q 412 1146 412 1244 l 412 1056 l 64 1056 q 63 1076.5 63 1064 q 63 1105 63 1089 q 168.5 1422.5 63 1329 q 503 1516 274 1516 q 718 1473.5 623 1516 q 868.5 1348 813 1431 q 924 1143 924 1265 l 924 0 l 568 0 l 568 178 q 482 34 542 84 q 345 -16 422 -16 m 493 -633 q 750.5 -548 654 -633 q 847 -315 847 -463 q 750.5 -81.5 847 -166 q 493 3 654 3 q 236.5 -81.5 333 3 q 140 -315 140 -166 q 236.5 -549 140 -465 q 493 -633 333 -633 m 486 262 q 546 299 530 262 q 562 379 562 336 l 562 797 q 447 721.5 488 767 q 406 588 406 676 l 406 395 q 486 262 406 262 m 494 -452 q 598.5 -412 561 -452 q 636 -315 636 -372 q 598.5 -218 636 -258 q 494 -178 561 -178 q 389.5 -218 427 -178 q 352 -315 352 -258 q 389.5 -412 352 -372 q 494 -452 427 -452"},"^":{"ha":970,"x_min":40,"x_max":930,"o":"m 399 432 l 40 432 l 281 1355 l 689 1355 l 930 432 l 571 432 l 485 1027 l 399 432"},"~":{"ha":1009,"x_min":50,"x_max":1004,"o":"m 732 810 q 603.5 824 662 810 q 483 862 545 838 q 381.5 898 422 886 q 313 910 341 910 q 259 893.5 284 910 q 212 835 234 877 l 50 921 q 110 1042.5 77 987 q 192.5 1131 143 1098 q 320 1164 242 1164 q 453.5 1151.5 400 1164 q 574 1113 507 1139 q 664.5 1082 633 1091 q 720 1073 696 1073 q 775 1091 750 1073 q 822 1155 800 1109 l 1004 1095 q 945.5 956.5 977 1022 q 864.5 850.5 914 891 q 732 810 815 810"},"*":{"ha":926,"x_min":36,"x_max":890,"o":"m 579 741 l 347 741 l 391 1043 l 152 854 l 36 1054 l 310 1171 l 36 1280 l 152 1480 l 390 1301 l 347 1593 l 579 1593 l 544 1307 l 774 1480 l 890 1280 l 615 1171 l 890 1054 l 774 854 l 543 1036 l 579 741"},"ⱥ":{"ha":990,"x_min":41,"x_max":924,"o":"m 241 -186 l 101 -186 l 159 39 q 65 197.5 89 95 q 41 430 41 300 q 68 654.5 41 567 q 160.5 798 95 742 q 341 893 226 854 l 563 969 l 563 1123 q 484 1244 563 1244 q 412 1146 412 1244 l 412 1056 l 64 1056 q 63 1076.5 63 1064 q 63 1105 63 1089 q 168.5 1422.5 63 1329 q 503 1516 274 1516 q 544 1515 524 1516 l 606 1760 l 746 1760 l 678 1490 q 856.5 1365.5 789 1453 q 924 1143 924 1278 l 924 0 l 568 0 l 568 178 q 482 34 542 84 q 345 -16 422 -16 q 286 -12 314 -16 l 241 -186 m 486 262 q 546 299 530 262 q 562 379 562 336 l 562 797 q 447 721.5 488 767 q 406 588 406 676 l 406 395 q 486 262 406 262"},"@":{"ha":1770,"x_min":64,"x_max":1712,"o":"m 919 -158 q 587.5 -106.5 742 -158 q 315 56.5 433 -55 q 130.5 346 197 168 q 64 777 64 524 q 167 1314.5 64 1091 q 463.5 1657 270 1538 q 928 1776 657 1776 q 1360.5 1669 1186 1776 q 1623.5 1361.5 1535 1562 q 1712 882 1712 1161 q 1623 433.5 1712 590 q 1329 277 1534 277 q 1112 337.5 1182 277 q 1007 491 1042 398 q 940.5 342.5 989 400 q 810 285 892 285 q 644 353.5 711 285 q 543.5 533.5 577 422 q 510 774 510 645 q 536.5 1037.5 510 918 q 626 1228 563 1157 q 798 1299 689 1299 q 917.5 1260.5 870 1299 q 1002 1159 965 1222 l 1041 1290 l 1267 1290 l 1267 650 q 1291 538.5 1267 572 q 1356 505 1315 505 q 1444 600 1422 505 q 1466 877 1466 695 q 1417 1229.5 1466 1082 q 1255.5 1456.5 1368 1377 q 950 1536 1143 1536 q 502.5 1339 655 1536 q 350 774 350 1142 q 509.5 252.5 350 427 q 934 78 669 78 q 1200 99 1041 78 l 1231 -127 q 919 -158 1054 -158 m 903 532 q 965.5 579.5 949 532 q 982 682 982 627 l 982 1074 q 884.5 1049 920 1074 q 834.5 961 849 1024 q 820 783 820 898 q 827 666 820 724 q 852.5 570 834 608 q 903 532 871 532"},"ã":{"ha":990,"x_min":41,"x_max":924,"o":"m 345 -16 q 154.5 42 220 -16 q 65 201 89 100 q 41 430 41 302 q 68 654.5 41 567 q 160.5 798 95 742 q 341 893 226 854 l 563 969 l 563 1123 q 484 1244 563 1244 q 412 1146 412 1244 l 412 1056 l 64 1056 q 63 1076.5 63 1064 q 63 1105 63 1089 q 168.5 1422.5 63 1329 q 503 1516 274 1516 q 718 1473.5 623 1516 q 868.5 1348 813 1431 q 924 1143 924 1265 l 924 0 l 568 0 l 568 178 q 482 34 542 84 q 345 -16 422 -16 m 668 1627 q 788.5 1664 743 1627 q 863 1761 834 1701 q 916 1888 892 1821 l 750 1942 q 707 1884 730 1901 q 657 1867 684 1867 q 571.5 1888 618 1867 q 468 1930 525 1909 q 337 1951 411 1951 q 220 1920.5 266 1951 q 144.5 1839.5 174 1890 q 90 1728 115 1789 l 238 1650 q 281 1703 258 1688 q 330 1718 304 1718 q 424.5 1695.5 376 1718 q 532 1650 473 1673 q 668 1627 591 1627 m 486 262 q 546 299 530 262 q 562 379 562 336 l 562 797 q 447 721.5 488 767 q 406 588 406 676 l 406 395 q 486 262 406 262"},"b":{"ha":1027,"x_min":76,"x_max":967,"o":"m 671 -16 q 528 27.5 583 -16 q 440 160 473 71 l 440 0 l 76 0 l 76 1760 l 440 1760 l 440 1340 q 531.5 1469.5 473 1423 q 699 1516 590 1516 q 906.5 1409 846 1516 q 967 1129 967 1302 l 967 391 q 935.5 183.5 967 276 q 838.5 37.5 904 91 q 671 -16 773 -16 m 523 263 q 592 319 580 263 q 604 457 604 375 l 604 1043 q 592 1181.5 604 1126 q 524 1237 580 1237 q 453 1180.5 466 1237 q 440 1043 440 1124 l 440 457 q 453 319.5 440 376 q 523 263 466 263"},"\\":{"ha":830,"x_min":27,"x_max":801,"o":"m 801 0 l 438 0 l 27 1767 l 391 1767 l 801 0"},"|":{"ha":443,"x_min":62,"x_max":381,"o":"m 381 -84 l 62 -84 l 62 1953 l 381 1953 l 381 -84"},"ḃ":{"ha":1027,"x_min":76,"x_max":967,"o":"m 671 -16 q 528 27.5 583 -16 q 440 160 473 71 l 440 0 l 76 0 l 76 1760 l 440 1760 l 440 1340 q 531.5 1469.5 473 1423 q 699 1516 590 1516 q 906.5 1409 846 1516 q 967 1129 967 1302 l 967 391 q 935.5 183.5 967 276 q 838.5 37.5 904 91 q 671 -16 773 -16 m 523 263 q 592 319 580 263 q 604 457 604 375 l 604 1043 q 592 1181.5 604 1126 q 524 1237 580 1237 q 453 1180.5 466 1237 q 440 1043 440 1124 l 440 457 q 453 319.5 440 376 q 523 263 466 263 m 904 1619 l 904 1917 l 546 1917 l 546 1619 l 904 1619"},"ḅ":{"ha":1027,"x_min":76,"x_max":967,"o":"m 671 -16 q 528 27.5 583 -16 q 440 160 473 71 l 440 0 l 76 0 l 76 1760 l 440 1760 l 440 1340 q 531.5 1469.5 473 1423 q 699 1516 590 1516 q 906.5 1409 846 1516 q 967 1129 967 1302 l 967 391 q 935.5 183.5 967 276 q 838.5 37.5 904 91 q 671 -16 773 -16 m 523 263 q 592 319 580 263 q 604 457 604 375 l 604 1043 q 592 1181.5 604 1126 q 524 1237 580 1237 q 453 1180.5 466 1237 q 440 1043 440 1124 l 440 457 q 453 319.5 440 376 q 523 263 466 263 m 693 -417 l 693 -119 l 335 -119 l 335 -417 l 693 -417"},"ꞵ":{"ha":1007,"x_min":58,"x_max":969,"o":"m 408 -250 l 58 -250 l 58 1412 q 483 1776 58 1776 q 793 1692 677 1776 q 909 1412 909 1608 l 909 1295 q 874.5 1118 909 1190 q 759 1020 840 1046 q 927.5 871.5 886 990 q 969 559 969 753 q 862 123.5 969 257 q 563 -10 755 -10 q 408 15 470 -10 l 408 -250 m 408 1453 l 408 314 q 437 257 408 277 q 513 237 466 237 q 590.5 261.5 560 237 q 621 336 621 286 l 621 731 q 588.5 845 621 812 q 474 878 556 878 l 474 1126 q 542.5 1160 527 1126 q 558 1245 558 1194 l 558 1453 q 483 1529 558 1529 q 408 1453 408 1529"},"ɓ":{"ha":1027,"x_min":72,"x_max":967,"o":"m 671 -16 q 528 27.5 583 -16 q 440 160 473 71 l 440 0 l 72 0 l 72 1328 q 120.5 1560 72 1459 q 273 1718.5 169 1661 q 544 1776 377 1776 l 544 1500 q 464 1466.5 488 1500 q 440 1368 440 1433 l 440 1242 q 531.5 1371.5 473 1325 q 699 1418 590 1418 q 906.5 1311 846 1418 q 967 1031 967 1204 l 967 391 q 935.5 183.5 967 276 q 838.5 37.5 904 91 q 671 -16 773 -16 m 523 263 q 592 319 580 263 q 604 457 604 375 l 604 945 q 592 1083.5 604 1028 q 524 1139 580 1139 q 453 1082.5 466 1139 q 440 945 440 1026 l 440 457 q 453 319.5 440 376 q 523 263 466 263"},"ʘ":{"ha":1017,"x_min":60,"x_max":957,"o":"m 508 -16 q 60 449 60 -16 l 60 1051 q 179 1389.5 60 1263 q 508 1516 298 1516 q 838 1389.5 719 1516 q 957 1051 957 1263 l 957 449 q 508 -16 957 -16 m 508 260 q 572.5 292.5 553 260 q 592 375 592 325 l 592 1108 q 508 1239 592 1239 q 424 1108 424 1239 l 424 375 q 443.5 292.5 424 325 q 508 260 463 260 m 563 630 l 563 894 l 453 894 l 453 630 l 563 630"},"◆":{"ha":1484,"x_min":40,"x_max":1444,"o":"m 1444 756 l 742 52 l 40 756 l 742 1460 l 1444 756"},"■":{"ha":1652,"x_min":78,"x_max":1574,"o":"m 1574 0 l 78 0 l 78 1500 l 1574 1500 l 1574 0"},"ḇ":{"ha":1027,"x_min":76,"x_max":967,"o":"m 671 -16 q 528 27.5 583 -16 q 440 160 473 71 l 440 0 l 76 0 l 76 1760 l 440 1760 l 440 1340 q 531.5 1469.5 473 1423 q 699 1516 590 1516 q 906.5 1409 846 1516 q 967 1129 967 1302 l 967 391 q 935.5 183.5 967 276 q 838.5 37.5 904 91 q 671 -16 773 -16 m 523 263 q 592 319 580 263 q 604 457 604 375 l 604 1043 q 592 1181.5 604 1126 q 524 1237 580 1237 q 453 1180.5 466 1237 q 440 1043 440 1124 l 440 457 q 453 319.5 440 376 q 523 263 466 263 m 839 -272 l 839 -119 l 189 -119 l 189 -272 l 839 -272"},"{":{"ha":696,"x_min":31,"x_max":661,"o":"m 661 79 l 661 -188 q 364 -150.5 471 -184 q 213.5 -38 257 -117 q 170 180 170 41 l 170 515 q 146.5 662 170 615 q 31 719 123 709 l 31 916 q 146.5 973.5 123 927 q 170 1120 170 1020 l 170 1455 q 213.5 1673.5 170 1595 q 364 1785.5 257 1752 q 661 1823 471 1819 l 661 1556 q 564.5 1538.5 607 1552 q 522 1472 522 1525 l 522 1097 q 491.5 944.5 522 1001 q 411 859.5 461 888 q 304 818 361 831 q 411 776.5 361 805 q 491.5 691.5 461 748 q 522 538 522 635 l 522 163 q 564.5 96.5 522 110 q 661 79 607 83"},"}":{"ha":697,"x_min":40,"x_max":670,"o":"m 40 -188 l 40 79 q 136.5 96.5 94 83 q 179 163 179 110 l 179 538 q 209.5 691.5 179 635 q 290 776.5 240 748 q 397 818 340 805 q 290 859.5 340 831 q 209.5 944 240 888 q 179 1097 179 1000 l 179 1472 q 136.5 1538.5 179 1525 q 40 1556 94 1552 l 40 1823 q 337 1785.5 230 1819 q 487.5 1673.5 444 1752 q 531 1455 531 1595 l 531 1120 q 555 973.5 531 1020 q 670 916 579 927 l 670 719 q 555 662 579 709 q 531 515 531 615 l 531 180 q 487.5 -38 531 41 q 337 -150.5 444 -117 q 40 -188 230 -184"},"[":{"ha":651,"x_min":62,"x_max":616,"o":"m 616 -188 l 62 -188 l 62 1823 l 616 1823 l 616 1542 l 414 1542 l 414 93 l 616 93 l 616 -188"},"]":{"ha":651,"x_min":35,"x_max":589,"o":"m 589 -188 l 35 -188 l 35 93 l 237 93 l 237 1542 l 35 1542 l 35 1823 l 589 1823 l 589 -188"},"˘":{"ha":1015,"x_min":109,"x_max":896,"o":"m 501 1592 q 217.5 1666 326 1592 q 109 1903 109 1740 q 112 1945 109 1924 l 368 1945 q 397 1858.5 368 1888 q 503 1829 426 1829 q 609 1858.5 580 1829 q 638 1945 638 1888 l 894 1945 q 895.5 1925 895 1935 q 896 1910 896 1915 q 788.5 1667.5 896 1743 q 501 1592 681 1592"},"̮":{"ha":0,"x_min":-393,"x_max":394,"o":"m -1 -416 q -284.5 -342 -176 -416 q -393 -105 -393 -268 q -390 -64 -393 -83 l -134 -64 q -105 -149.5 -134 -120 q 1 -179 -76 -179 q 107 -149.5 78 -179 q 136 -64 136 -120 l 392 -64 q 394 -98 394 -88 q 286.5 -340.5 394 -265 q -1 -416 179 -416"},"̆":{"ha":0,"x_min":-393,"x_max":394,"o":"m -1 1592 q -284.5 1666 -176 1592 q -393 1903 -393 1740 q -390 1945 -393 1924 l -134 1945 q -105 1858.5 -134 1888 q 1 1829 -76 1829 q 107 1858.5 78 1829 q 136 1945 136 1888 l 392 1945 q 393.5 1925 393 1935 q 394 1910 394 1915 q 286.5 1667.5 394 1743 q -1 1592 179 1592"},"̯":{"ha":0,"x_min":-374,"x_max":373,"o":"m -135 -513 l -371 -513 q -374 -471 -374 -492 q -275.5 -234 -374 -308 q -2 -160 -177 -160 q 275.5 -235.5 178 -160 q 373 -478 373 -311 q 372.5 -492.5 373 -483 q 371 -513 372 -502 l 135 -513 q 97 -411.5 135 -445 q 0 -378 59 -378 q -96.5 -411.5 -58 -378 q -135 -513 -135 -445"},"̑":{"ha":0,"x_min":-374,"x_max":373,"o":"m -135 1608 l -371 1608 q -374 1649 -374 1628 q -275.5 1886 -374 1812 q -2 1960 -177 1960 q 275.5 1884.5 178 1960 q 373 1642 373 1809 q 372.5 1627.5 373 1637 q 371 1608 372 1618 l 135 1608 q 97 1709 135 1676 q 0 1742 59 1742 q -96.5 1709 -58 1742 q -135 1608 -135 1676"},"¦":{"ha":455,"x_min":68,"x_max":387,"o":"m 387 1043 l 68 1043 l 68 1953 l 387 1953 l 387 1043 m 387 -84 l 387 796 l 68 796 l 68 -84 l 387 -84"},"ƀ":{"ha":1027,"x_min":-78,"x_max":967,"o":"m 671 -16 q 528 27.5 583 -16 q 440 160 473 71 l 440 0 l 76 0 l 76 1512 l -78 1512 l -78 1665 l 76 1665 l 76 1760 l 440 1760 l 440 1665 l 572 1665 l 572 1512 l 440 1512 l 440 1340 q 531.5 1469.5 473 1423 q 699 1516 590 1516 q 906.5 1409 846 1516 q 967 1129 967 1302 l 967 391 q 935.5 183.5 967 276 q 838.5 37.5 904 91 q 671 -16 773 -16 m 523 263 q 592 319 580 263 q 604 457 604 375 l 604 1043 q 592 1181.5 604 1126 q 524 1237 580 1237 q 453 1180.5 466 1237 q 440 1043 440 1124 l 440 457 q 453 319.5 440 376 q 523 263 466 263"},"•":{"ha":721,"x_min":47,"x_max":674,"o":"m 360 403 q 129 496.5 211 403 q 47 741 47 590 q 129 986 47 893 q 360 1079 211 1079 q 591.5 986 509 1079 q 674 741 674 893 q 591.5 496.5 674 590 q 360 403 509 403"},"∙":{"ha":600,"x_min":151,"x_max":469,"o":"m 469 723 l 151 723 l 151 1021 l 469 1021 l 469 723"},"c":{"ha":1006,"x_min":60,"x_max":953,"o":"m 523 -16 q 165.5 113 271 -16 q 60 492 60 242 l 60 954 q 100 1267 60 1142 q 240 1454 140 1392 q 518 1516 340 1516 q 740.5 1472 642 1516 q 896 1343 839 1428 q 953 1135 953 1258 l 953 906 l 588 906 l 588 1116 q 573 1203.5 588 1168 q 508 1239 558 1239 q 420 1114 420 1239 l 420 387 q 440 302.5 420 341 q 506 264 460 264 q 571.5 301.5 553 264 q 590 389 590 339 l 590 641 l 953 641 l 953 379 q 897.5 166.5 953 255 q 745 31 842 78 q 523 -16 648 -16"},"ć":{"ha":1006,"x_min":60,"x_max":953,"o":"m 523 -16 q 165.5 113 271 -16 q 60 492 60 242 l 60 954 q 100 1267 60 1142 q 240 1454 140 1392 q 518 1516 340 1516 q 740.5 1472 642 1516 q 896 1343 839 1428 q 953 1135 953 1258 l 953 906 l 588 906 l 588 1116 q 573 1203.5 588 1168 q 508 1239 558 1239 q 420 1114 420 1239 l 420 387 q 440 302.5 420 341 q 506 264 460 264 q 571.5 301.5 553 264 q 590 389 590 339 l 590 641 l 953 641 l 953 379 q 897.5 166.5 953 255 q 745 31 842 78 q 523 -16 648 -16 m 752 1647 l 752 1994 l 277 1776 l 277 1553 l 752 1647"},"̐":{"ha":0,"x_min":-393,"x_max":394,"o":"m -1 1592 q -284.5 1659 -176 1592 q -393 1873 -393 1726 q -390 1915 -393 1894 l -134 1915 q -105 1821 -134 1853 q 1 1789 -76 1789 q 107 1821 78 1789 q 136 1915 136 1853 l 392 1915 q 393.5 1895 393 1905 q 394 1880 394 1885 q 286.5 1660.5 394 1729 q -1 1592 179 1592 m 180 2006 l 180 2264 l -178 2264 l -178 2006 l 180 2006"},"ˇ":{"ha":970,"x_min":40,"x_max":930,"o":"m 689 1591 l 281 1591 l 40 1994 l 399 1994 l 485 1709 l 571 1994 l 930 1994 l 689 1591"},"̌":{"ha":0,"x_min":-445,"x_max":445,"o":"m 204 1591 l -204 1591 l -445 1994 l -86 1994 l 0 1709 l 86 1994 l 445 1994 l 204 1591"},"č":{"ha":1006,"x_min":60,"x_max":960,"o":"m 523 -16 q 165.5 113 271 -16 q 60 492 60 242 l 60 954 q 100 1267 60 1142 q 240 1454 140 1392 q 518 1516 340 1516 q 740.5 1472 642 1516 q 896 1343 839 1428 q 953 1135 953 1258 l 953 906 l 588 906 l 588 1116 q 573 1203.5 588 1168 q 508 1239 558 1239 q 420 1114 420 1239 l 420 387 q 440 302.5 420 341 q 506 264 460 264 q 571.5 301.5 553 264 q 590 389 590 339 l 590 641 l 953 641 l 953 379 q 897.5 166.5 953 255 q 745 31 842 78 q 523 -16 648 -16 m 719 1591 l 960 1994 l 601 1994 l 515 1709 l 429 1994 l 70 1994 l 311 1591 l 719 1591"},"ç":{"ha":1006,"x_min":60,"x_max":953,"o":"m 523 -16 q 165.5 113 271 -16 q 60 492 60 242 l 60 954 q 100 1267 60 1142 q 240 1454 140 1392 q 518 1516 340 1516 q 740.5 1472 642 1516 q 896 1343 839 1428 q 953 1135 953 1258 l 953 906 l 588 906 l 588 1116 q 573 1203.5 588 1168 q 508 1239 558 1239 q 420 1114 420 1239 l 420 387 q 440 302.5 420 341 q 506 264 460 264 q 571.5 301.5 553 264 q 590 389 590 339 l 590 641 l 953 641 l 953 379 q 897.5 166.5 953 255 q 745 31 842 78 q 523 -16 648 -16 m 488 -631 q 715 -560.5 644 -631 q 786 -387 786 -490 q 732.5 -189.5 786 -294 q 582 0 679 -85 l 421 0 q 497.5 -145 470 -73 q 525 -273 525 -217 q 491.5 -364.5 525 -338 q 408 -391 458 -391 q 351 -384.5 381 -391 q 290 -368 321 -378 l 290 -591 q 488 -631 385 -631"},"ḉ":{"ha":1006,"x_min":60,"x_max":953,"o":"m 523 -16 q 165.5 113 271 -16 q 60 492 60 242 l 60 954 q 100 1267 60 1142 q 240 1454 140 1392 q 518 1516 340 1516 q 740.5 1472 642 1516 q 896 1343 839 1428 q 953 1135 953 1258 l 953 906 l 588 906 l 588 1116 q 573 1203.5 588 1168 q 508 1239 558 1239 q 420 1114 420 1239 l 420 387 q 440 302.5 420 341 q 506 264 460 264 q 571.5 301.5 553 264 q 590 389 590 339 l 590 641 l 953 641 l 953 379 q 897.5 166.5 953 255 q 745 31 842 78 q 523 -16 648 -16 m 488 -631 q 715 -560.5 644 -631 q 786 -387 786 -490 q 732.5 -189.5 786 -294 q 582 0 679 -85 l 421 0 q 497.5 -145 470 -73 q 525 -273 525 -217 q 491.5 -364.5 525 -338 q 408 -391 458 -391 q 351 -384.5 381 -391 q 290 -368 321 -378 l 290 -591 q 488 -631 385 -631 m 753 1647 l 753 1994 l 278 1776 l 278 1553 l 753 1647"},"ĉ":{"ha":1006,"x_min":60,"x_max":960,"o":"m 523 -16 q 165.5 113 271 -16 q 60 492 60 242 l 60 954 q 100 1267 60 1142 q 240 1454 140 1392 q 518 1516 340 1516 q 740.5 1472 642 1516 q 896 1343 839 1428 q 953 1135 953 1258 l 953 906 l 588 906 l 588 1116 q 573 1203.5 588 1168 q 508 1239 558 1239 q 420 1114 420 1239 l 420 387 q 440 302.5 420 341 q 506 264 460 264 q 571.5 301.5 553 264 q 590 389 590 339 l 590 641 l 953 641 l 953 379 q 897.5 166.5 953 255 q 745 31 842 78 q 523 -16 648 -16 m 429 1591 l 515 1876 l 601 1591 l 960 1591 l 719 1994 l 311 1994 l 70 1591 l 429 1591"},"ċ":{"ha":1006,"x_min":60,"x_max":953,"o":"m 523 -16 q 165.5 113 271 -16 q 60 492 60 242 l 60 954 q 100 1267 60 1142 q 240 1454 140 1392 q 518 1516 340 1516 q 740.5 1472 642 1516 q 896 1343 839 1428 q 953 1135 953 1258 l 953 906 l 588 906 l 588 1116 q 573 1203.5 588 1168 q 508 1239 558 1239 q 420 1114 420 1239 l 420 387 q 440 302.5 420 341 q 506 264 460 264 q 571.5 301.5 553 264 q 590 389 590 339 l 590 641 l 953 641 l 953 379 q 897.5 166.5 953 255 q 745 31 842 78 q 523 -16 648 -16 m 694 1592 l 694 1890 l 336 1890 l 336 1592 l 694 1592"},"₵":{"ha":986,"x_min":48,"x_max":941,"o":"m 595 -163 l 422 -163 l 422 -13 q 132.5 138 217 10 q 48 492 48 266 l 48 954 q 80.5 1244 48 1124 q 194.5 1432 113 1364 q 422 1514 276 1500 l 422 1677 l 595 1677 l 595 1511 q 842 1394.5 743 1490 q 941 1135 941 1299 l 941 879 l 576 879 l 576 1116 q 561 1203.5 576 1168 q 496 1239 546 1239 q 408 1114 408 1239 l 408 387 q 428 302.5 408 341 q 494 264 448 264 q 559.5 301.5 541 264 q 578 389 578 339 l 578 614 l 941 614 l 941 379 q 843 110 941 211 q 595 -12 745 9 l 595 -163"},"¸":{"ha":576,"x_min":40,"x_max":536,"o":"m 238 -631 q 40 -591 135 -631 l 40 -368 q 101 -384.5 71 -378 q 158 -391 131 -391 q 241.5 -364.5 208 -391 q 275 -273 275 -338 q 247.5 -145 275 -217 q 171 0 220 -73 l 332 0 q 482.5 -189.5 429 -85 q 536 -387 536 -294 q 465 -560.5 536 -490 q 238 -631 394 -631"},"̧":{"ha":0,"x_min":-450,"x_max":46,"o":"m -252 -631 q -450 -591 -355 -631 l -450 -368 q -389 -384.5 -419 -378 q -332 -391 -359 -391 q -248.5 -364.5 -282 -391 q -215 -273 -215 -338 q -242.5 -145 -215 -217 q -319 0 -270 -73 l -158 0 q -7.5 -189.5 -61 -85 q 46 -387 46 -294 q -25 -560.5 46 -490 q -252 -631 -96 -631"},"¢":{"ha":986,"x_min":48,"x_max":941,"o":"m 595 -163 l 422 -163 l 422 -13 q 132.5 138 217 10 q 48 492 48 266 l 48 954 q 80.5 1244 48 1124 q 194.5 1432 113 1364 q 422 1514 276 1500 l 422 1677 l 595 1677 l 595 1511 q 842 1394.5 743 1490 q 941 1135 941 1299 l 941 879 l 576 879 l 576 1116 q 561 1203.5 576 1168 q 496 1239 546 1239 q 408 1114 408 1239 l 408 387 q 428 302.5 408 341 q 494 264 448 264 q 559.5 301.5 541 264 q 578 389 578 339 l 578 614 l 941 614 l 941 379 q 843 110 941 211 q 595 -12 745 9 l 595 -163"},"ꭓ":{"ha":940,"x_min":8,"x_max":930,"o":"m 930 14 l 930 -260 q 744 -239.5 820 -260 q 614.5 -169 668 -219 q 520 -32 561 -119 q 438 188 479 55 l 424 235 l 279 -250 l 8 -250 l 301 703 l 192 1058 q 127.5 1205 158 1168 q 40 1242 97 1242 l 40 1516 q 280.5 1481.5 190 1516 q 428.5 1360.5 371 1447 q 537 1116 486 1274 l 654 1501 l 920 1501 l 658 655 l 798 198 q 857 51 832 88 q 930 14 882 14"},"ƈ":{"ha":1049,"x_min":60,"x_max":1059,"o":"m 523 -16 q 165.5 113 271 -16 q 60 492 60 242 l 60 954 q 100 1267 60 1142 q 240 1454 140 1392 q 518 1516 340 1516 q 664 1495 603 1516 q 797.5 1692 699 1614 q 1059 1770 896 1770 l 1059 1494 q 953 1362 953 1494 l 953 906 l 588 906 l 588 1116 q 573 1203.5 588 1168 q 508 1239 558 1239 q 420 1114 420 1239 l 420 387 q 440 302.5 420 341 q 506 264 460 264 q 571.5 301.5 553 264 q 590 389 590 339 l 590 641 l 953 641 l 953 379 q 897.5 166.5 953 255 q 745 31 842 78 q 523 -16 648 -16"},"ˆ":{"ha":970,"x_min":40,"x_max":930,"o":"m 399 1591 l 40 1591 l 281 1994 l 689 1994 l 930 1591 l 571 1591 l 485 1876 l 399 1591"},"̭":{"ha":0,"x_min":-445,"x_max":445,"o":"m -86 -512 l -445 -512 l -204 -109 l 204 -109 l 445 -512 l 86 -512 l 0 -227 l -86 -512"},"̂":{"ha":0,"x_min":-445,"x_max":445,"o":"m -86 1591 l -445 1591 l -204 1994 l 204 1994 l 445 1591 l 86 1591 l 0 1876 l -86 1591"},"ǂ":{"ha":683,"x_min":-10,"x_max":693,"o":"m 513 -186 l 173 -186 l 173 348 l -10 348 l -10 644 l 173 644 l 173 938 l -10 938 l -10 1234 l 173 1234 l 173 1760 l 513 1760 l 513 1234 l 693 1234 l 693 938 l 513 938 l 513 644 l 693 644 l 693 348 l 513 348 l 513 -186"},"ǀ":{"ha":464,"x_min":62,"x_max":402,"o":"m 402 -186 l 62 -186 l 62 1760 l 402 1760 l 402 -186"},"ǁ":{"ha":1004,"x_min":62,"x_max":942,"o":"m 402 -186 l 62 -186 l 62 1760 l 402 1760 l 402 -186 m 942 -186 l 942 1760 l 602 1760 l 602 -186 l 942 -186"},"ǃ":{"ha":469,"x_min":55,"x_max":413,"o":"m 343 479 l 125 479 l 55 1760 l 413 1760 l 343 479 m 413 1 l 413 299 l 55 299 l 55 1 l 413 1"},":":{"ha":495,"x_min":68,"x_max":426,"o":"m 426 976 l 68 976 l 68 1274 l 426 1274 l 426 976 m 426 237 l 426 535 l 68 535 l 68 237 l 426 237"},"꞉":{"ha":495,"x_min":68,"x_max":426,"o":"m 426 976 l 68 976 l 68 1274 l 426 1274 l 426 976 m 426 237 l 426 535 l 68 535 l 68 237 l 426 237"},"₡":{"ha":1042,"x_min":128,"x_max":915,"o":"m 278 -113 l 173 -113 l 219 108 q 128 391 128 217 l 128 1129 q 222 1480 128 1360 q 527 1600 316 1600 l 543 1679 l 648 1679 l 630 1591 q 701 1570 667 1583 l 723 1679 l 828 1679 l 794 1515 q 878 1399.5 848 1470 q 908 1232 908 1329 l 908 952 l 678 952 l 528 228 q 624.5 281.5 595 232 q 654 408 654 331 l 654 682 l 915 682 l 915 381 q 810 76 915 173 q 520 -21 705 -21 q 477 -19 498 -21 l 458 -113 l 353 -113 l 377 1 q 308 32 340 13 l 278 -113 m 576 1331 l 384 401 q 429 257 386 297 l 637 1264 q 576 1331 619 1314 m 384 1161 l 384 909 l 472 1335 q 400.5 1274.5 417 1321 q 384 1161 384 1228"},",":{"ha":484,"x_min":55,"x_max":429,"o":"m 327 -235 l 116 -235 l 182 1 l 55 1 l 55 299 l 429 299 l 429 10 l 327 -235"},"̓":{"ha":0,"x_min":-187,"x_max":187,"o":"m 187 1656 l -187 1656 l -187 1945 l -85 2190 l 126 2190 l 60 1954 l 187 1954 l 187 1656"},"̦":{"ha":0,"x_min":-199,"x_max":175,"o":"m 73 -643 l -138 -643 l -72 -407 l -199 -407 l -199 -109 l 175 -109 l 175 -398 l 73 -643"},"̒":{"ha":0,"x_min":-187,"x_max":187,"o":"m 187 1656 l -187 1656 l -187 1945 l -85 2190 l 126 2190 l 60 1954 l 187 1954 l 187 1656"},"ʻ":{"ha":600,"x_min":104,"x_max":478,"o":"m 478 966 l 104 966 l 104 1255 l 206 1500 l 417 1500 l 351 1264 l 478 1264 l 478 966"},"⁒":{"ha":980,"x_min":55,"x_max":925,"o":"m 412 0 l 159 0 l 569 1760 l 823 1760 l 412 0 m 363 1462 l 363 1760 l 55 1760 l 55 1462 l 363 1462 m 925 0 l 925 298 l 617 298 l 617 0 l 925 0"},"©":{"ha":1382,"x_min":34,"x_max":1348,"o":"m 691 205 q 431.5 254.5 551 205 q 222.5 393.5 312 304 q 83.5 602.5 133 483 q 34 862 34 722 q 83.5 1121.5 34 1002 q 222.5 1330.5 133 1241 q 431.5 1469.5 312 1420 q 691 1519 551 1519 q 950.5 1469.5 831 1519 q 1159.5 1330.5 1070 1420 q 1298.5 1121.5 1249 1241 q 1348 862 1348 1002 q 1298.5 602.5 1348 722 q 1159.5 393.5 1249 483 q 950.5 254.5 1070 304 q 691 205 831 205 m 691 334 q 948 405.5 836 334 q 1124.5 597 1060 477 q 1189 862 1189 717 q 1124.5 1127.5 1189 1008 q 948 1318.5 1060 1247 q 691 1390 836 1390 q 434.5 1318.5 547 1390 q 257.5 1127.5 322 1247 q 193 862 193 1008 q 257.5 597 193 717 q 434.5 405.5 322 477 q 691 334 547 334 m 685 424 q 928 643 928 424 l 928 806 l 735 806 l 735 657 q 689 592 735 592 q 656.5 613.5 668 592 q 645 657 645 635 l 645 1066 q 653 1112.5 645 1095 q 689 1130 661 1130 q 735 1053 735 1130 l 735 952 l 924 952 l 924 1105 q 857 1255.5 924 1206 q 689 1305 790 1305 q 510 1240 565 1305 q 455 1049 455 1175 l 455 648 q 518 483 455 542 q 685 424 581 424"},"ȼ":{"ha":1006,"x_min":60,"x_max":953,"o":"m 341 -186 l 201 -186 l 259 38 q 106.5 209 153 95 q 60 492 60 323 l 60 954 q 100 1267 60 1142 q 240 1454 140 1392 q 518 1516 340 1516 q 641 1504 583 1516 l 706 1760 l 846 1760 l 770 1457 q 903.5 1329.5 854 1411 q 953 1135 953 1248 l 953 906 l 588 906 l 588 1116 q 573 1203.5 588 1168 q 508 1239 558 1239 q 420 1114 420 1239 l 420 387 q 440 302.5 420 341 q 506 264 460 264 q 571.5 301.5 553 264 q 590 389 590 339 l 590 641 l 953 641 l 953 379 q 897.5 166.5 953 255 q 745 31 842 78 q 523 -16 648 -16 q 388 -5 449 -16 l 341 -186"},"¤":{"ha":1000,"x_min":45,"x_max":954,"o":"m 283 598 l 194 509 l 45 659 l 136 750 q 83 964 83 848 q 135 1178 83 1081 l 45 1268 l 194 1418 l 281 1330 q 499 1385 378 1385 q 717 1331 620 1385 l 804 1418 l 954 1269 l 864 1179 q 918 964 918 1082 q 864 748 918 846 l 954 658 l 804 509 l 715 597 q 499 545 623 545 q 283 598 375 545 m 499 741 q 651 807 594 741 q 708 966 708 873 q 652 1123.5 708 1061 q 499 1186 596 1186 q 348 1121 405 1186 q 291 964 291 1056 q 347.5 806 291 871 q 499 741 404 741"},"d":{"ha":1020,"x_min":62,"x_max":954,"o":"m 367 -16 q 202 22 263 -16 q 111 127 141 60 q 71.5 284 81 194 q 62 477 62 374 l 62 1129 q 123.5 1409 62 1302 q 332 1516 185 1516 q 499.5 1469.5 441 1516 q 590 1340 558 1423 l 590 1760 l 954 1760 l 954 0 l 590 0 l 590 159 q 510.5 31 560 78 q 367 -16 461 -16 m 504 264 q 572.5 305 555 264 q 590 452 590 346 l 590 1083 q 574.5 1187.5 590 1136 q 506 1239 559 1239 q 433 1190 448 1239 q 418 1083 418 1141 l 418 452 q 504 264 418 264"},"†":{"ha":789,"x_min":31,"x_max":758,"o":"m 578 0 l 214 0 l 214 996 l 31 996 l 31 1292 l 214 1292 l 214 1592 l 578 1592 l 578 1292 l 758 1292 l 758 996 l 578 996 l 578 0"},"‡":{"ha":807,"x_min":40,"x_max":767,"o":"m 587 0 l 223 0 l 223 350 l 40 350 l 40 646 l 223 646 l 223 940 l 40 940 l 40 1236 l 223 1236 l 223 1592 l 587 1592 l 587 1236 l 767 1236 l 767 940 l 587 940 l 587 646 l 767 646 l 767 350 l 587 350 l 587 0"},"̏":{"ha":0,"x_min":-486,"x_max":271,"o":"m -31 1644 l -197 1586 l -486 2015 l -252 2123 l -31 1644 m 271 1644 l 87 2123 l -143 2015 l 105 1586 l 271 1644"},"ď":{"ha":1344,"x_min":62,"x_max":1344,"o":"m 367 -16 q 202 22 263 -16 q 111 127 141 60 q 71.5 284 81 194 q 62 477 62 374 l 62 1129 q 123.5 1409 62 1302 q 332 1516 185 1516 q 499.5 1469.5 441 1516 q 590 1340 558 1423 l 590 1760 l 954 1760 l 954 0 l 590 0 l 590 159 q 510.5 31 560 78 q 367 -16 461 -16 m 504 264 q 572.5 305 555 264 q 590 452 590 346 l 590 1083 q 574.5 1187.5 590 1136 q 506 1239 559 1239 q 433 1190 448 1239 q 418 1083 418 1141 l 418 452 q 504 264 418 264 m 1242 1226 l 1344 1471 l 1344 1760 l 1032 1760 l 1032 1462 l 1107 1462 l 1031 1226 l 1242 1226"},"ḑ":{"ha":1020,"x_min":62,"x_max":954,"o":"m 367 -16 q 202 22 263 -16 q 111 127 141 60 q 71.5 284 81 194 q 62 477 62 374 l 62 1129 q 123.5 1409 62 1302 q 332 1516 185 1516 q 499.5 1469.5 441 1516 q 590 1340 558 1423 l 590 1760 l 954 1760 l 954 0 l 590 0 l 590 159 q 510.5 31 560 78 q 367 -16 461 -16 m 624 -643 l 726 -398 l 726 -109 l 352 -109 l 352 -407 l 479 -407 l 413 -643 l 624 -643 m 504 264 q 572.5 305 555 264 q 590 452 590 346 l 590 1083 q 574.5 1187.5 590 1136 q 506 1239 559 1239 q 433 1190 448 1239 q 418 1083 418 1141 l 418 452 q 504 264 418 264"},"ḓ":{"ha":1020,"x_min":62,"x_max":997,"o":"m 367 -16 q 202 22 263 -16 q 111 127 141 60 q 71.5 284 81 194 q 62 477 62 374 l 62 1129 q 123.5 1409 62 1302 q 332 1516 185 1516 q 499.5 1469.5 441 1516 q 590 1340 558 1423 l 590 1760 l 954 1760 l 954 0 l 590 0 l 590 159 q 510.5 31 560 78 q 367 -16 461 -16 m 466 -512 l 552 -227 l 638 -512 l 997 -512 l 756 -109 l 348 -109 l 107 -512 l 466 -512 m 504 264 q 572.5 305 555 264 q 590 452 590 346 l 590 1083 q 574.5 1187.5 590 1136 q 506 1239 559 1239 q 433 1190 448 1239 q 418 1083 418 1141 l 418 452 q 504 264 418 264"},"đ":{"ha":1020,"x_min":62,"x_max":1072,"o":"m 367 -16 q 202 22 263 -16 q 111 127 141 60 q 71.5 284 81 194 q 62 477 62 374 l 62 1129 q 123.5 1409 62 1302 q 332 1516 185 1516 q 499.5 1469.5 441 1516 q 590 1340 558 1423 l 590 1532 l 422 1532 l 422 1685 l 590 1685 l 590 1760 l 954 1760 l 954 1685 l 1072 1685 l 1072 1532 l 954 1532 l 954 0 l 590 0 l 590 159 q 510.5 31 560 78 q 367 -16 461 -16 m 504 264 q 572.5 305 555 264 q 590 452 590 346 l 590 1083 q 574.5 1187.5 590 1136 q 506 1239 559 1239 q 433 1190 448 1239 q 418 1083 418 1141 l 418 452 q 504 264 418 264"},"ḋ":{"ha":1020,"x_min":62,"x_max":954,"o":"m 367 -16 q 202 22 263 -16 q 111 127 141 60 q 71.5 284 81 194 q 62 477 62 374 l 62 1129 q 123.5 1409 62 1302 q 332 1516 185 1516 q 499.5 1469.5 441 1516 q 590 1340 558 1423 l 590 1760 l 954 1760 l 954 0 l 590 0 l 590 159 q 510.5 31 560 78 q 367 -16 461 -16 m 504 264 q 572.5 305 555 264 q 590 452 590 346 l 590 1083 q 574.5 1187.5 590 1136 q 506 1239 559 1239 q 433 1190 448 1239 q 418 1083 418 1141 l 418 452 q 504 264 418 264 m 498 1619 l 498 1917 l 140 1917 l 140 1619 l 498 1619"},"ḍ":{"ha":1020,"x_min":62,"x_max":954,"o":"m 367 -16 q 202 22 263 -16 q 111 127 141 60 q 71.5 284 81 194 q 62 477 62 374 l 62 1129 q 123.5 1409 62 1302 q 332 1516 185 1516 q 499.5 1469.5 441 1516 q 590 1340 558 1423 l 590 1760 l 954 1760 l 954 0 l 590 0 l 590 159 q 510.5 31 560 78 q 367 -16 461 -16 m 504 264 q 572.5 305 555 264 q 590 452 590 346 l 590 1083 q 574.5 1187.5 590 1136 q 506 1239 559 1239 q 433 1190 448 1239 q 418 1083 418 1141 l 418 452 q 504 264 418 264 m 731 -417 l 731 -119 l 373 -119 l 373 -417 l 731 -417"},"°":{"ha":796,"x_min":44,"x_max":751,"o":"m 397 931 q 140.5 1020.5 237 931 q 44 1269 44 1110 q 140.5 1517 44 1427 q 397 1607 237 1607 q 654.5 1517 558 1607 q 751 1269 751 1427 q 654.5 1021 751 1111 q 397 931 558 931 m 398 1112 q 502.5 1158 465 1112 q 540 1269 540 1204 q 502.5 1380 540 1334 q 398 1426 465 1426 q 293.5 1380 331 1426 q 256 1269 256 1334 q 293.5 1158 256 1204 q 398 1112 331 1112"}}}
